<svg viewBox="0 0 102 101" fill="none" xmlns="http://www.w3.org/2000/svg">
  <g stroke="currentcolor">
    <path d="M26 7.19873L76 7.19873L101 50.5L76 93.8013H26L1 50.5L26 7.19873Z"/>
    <path d="M51 34.75C48.1392 34.75 45.4565 35.5127 43.1443 36.8459"/>
    <path d="M51 14.2L44 14.2V7.2"/>
    <g stroke-dasharray="2 2">
      <path d="M51 50.5V93.8"/>
      <path d="M26 7.19873L51 50.5"/>
      <circle cx="51" cy="50.5" r="50"/>
      <path d="M51 7.2V50.5"/>
    </g>
  </g>
  <g fill="currentcolor">
    <path d="M20.8408 63.876C21.0208 63.876 21.2188 63.891 21.4348 63.921C21.6508 63.945 21.8548 63.981 22.0468 64.029C21.9868 64.503 21.9238 64.977 21.8578 65.451C21.7978 65.925 21.7468 66.351 21.7048 66.729C21.6688 67.101 21.6508 67.386 21.6508 67.584C21.6508 67.704 21.6598 67.824 21.6778 67.944C21.6958 68.064 21.7708 68.124 21.9028 68.124C22.0048 68.124 22.1158 68.058 22.2358 67.926C22.3618 67.794 22.4698 67.569 22.5598 67.251L22.8118 67.305C22.7938 67.413 22.7548 67.539 22.6948 67.683C22.6408 67.821 22.5658 67.959 22.4698 68.097C22.3738 68.235 22.2568 68.349 22.1188 68.439C21.9808 68.529 21.8218 68.574 21.6418 68.574C21.4018 68.574 21.2308 68.499 21.1288 68.349C21.0268 68.199 20.9758 68.004 20.9758 67.764C20.9758 67.59 20.9908 67.401 21.0208 67.197C21.0568 66.993 21.0958 66.78 21.1378 66.558H21.1108C20.9668 67.002 20.8168 67.359 20.6608 67.629C20.5108 67.893 20.3578 68.094 20.2018 68.232C20.0518 68.37 19.9048 68.46 19.7608 68.502C19.6168 68.55 19.4818 68.574 19.3558 68.574C19.0318 68.574 18.7588 68.454 18.5368 68.214C18.3208 67.974 18.2128 67.572 18.2128 67.008C18.2128 66.588 18.2668 66.189 18.3748 65.811C18.4828 65.433 18.6448 65.1 18.8608 64.812C19.0828 64.518 19.3588 64.29 19.6888 64.128C20.0188 63.96 20.4028 63.876 20.8408 63.876ZM20.5618 64.2C20.2918 64.2 20.0548 64.275 19.8508 64.425C19.6528 64.575 19.4878 64.779 19.3558 65.037C19.2238 65.289 19.1248 65.574 19.0588 65.892C18.9988 66.204 18.9688 66.525 18.9688 66.855C18.9688 67.239 19.0108 67.557 19.0948 67.809C19.1788 68.055 19.3318 68.178 19.5538 68.178C19.7158 68.178 19.8778 68.097 20.0398 67.935C20.2078 67.773 20.3638 67.557 20.5078 67.287C20.6518 67.011 20.7808 66.705 20.8948 66.369C21.0088 66.027 21.0988 65.679 21.1648 65.325C21.2308 64.971 21.2638 64.632 21.2638 64.308C21.0838 64.236 20.8498 64.2 20.5618 64.2Z"/>
    <path d="M30.0395 32.004C30.6215 32.01 31.0835 32.085 31.4255 32.229C31.7735 32.373 32.0195 32.568 32.1635 32.814C32.3135 33.054 32.3795 33.333 32.3615 33.651C32.3495 33.879 32.2925 34.113 32.1905 34.353C32.0945 34.587 31.9235 34.8 31.6775 34.992C31.4315 35.184 31.0775 35.328 30.6155 35.424C30.7115 35.532 30.7835 35.613 30.8315 35.667C30.8795 35.715 30.9185 35.757 30.9485 35.793C30.9785 35.823 31.0115 35.868 31.0475 35.928C31.0835 35.988 31.1375 36.081 31.2095 36.207L31.7675 37.17C31.8635 37.332 31.9535 37.479 32.0375 37.611C32.1275 37.737 32.2325 37.839 32.3525 37.917C32.4785 37.989 32.6345 38.025 32.8205 38.025L32.8025 38.322H31.7045C31.5725 38.208 31.4435 38.064 31.3175 37.89C31.1975 37.71 31.0775 37.521 30.9575 37.323L30.4085 36.36C30.3365 36.228 30.2555 36.081 30.1655 35.919C30.0755 35.757 29.9705 35.619 29.8505 35.505C29.7965 35.511 29.7185 35.514 29.6165 35.514C29.5205 35.514 29.4305 35.514 29.3465 35.514C29.2625 35.508 29.2115 35.505 29.1935 35.505L29.1035 37.251C29.0975 37.413 29.0885 37.554 29.0765 37.674C29.0645 37.788 29.0525 37.884 29.0405 37.962C29.1485 37.956 29.2565 37.95 29.3645 37.944C29.4725 37.938 29.5805 37.932 29.6885 37.926L29.6705 38.322H27.6815L27.6995 38.025C27.9275 38.013 28.0865 37.962 28.1765 37.872C28.2665 37.776 28.3205 37.647 28.3385 37.485C28.3565 37.317 28.3685 37.128 28.3745 36.918L28.5815 33.03C28.5875 32.91 28.5965 32.796 28.6085 32.688C28.6205 32.574 28.6325 32.472 28.6445 32.382C28.5365 32.388 28.4255 32.394 28.3115 32.4C28.2035 32.406 28.0955 32.412 27.9875 32.418L28.0145 32.022C28.3505 32.016 28.6835 32.01 29.0135 32.004C29.3495 31.998 29.6915 31.998 30.0395 32.004ZM29.9855 32.346C29.7755 32.346 29.6255 32.388 29.5355 32.472C29.4455 32.556 29.3885 32.676 29.3645 32.832C29.3405 32.982 29.3225 33.165 29.3105 33.381L29.2115 35.154C29.3075 35.16 29.3975 35.166 29.4815 35.172C29.5715 35.178 29.6675 35.178 29.7695 35.172C30.0995 35.16 30.3935 35.106 30.6515 35.01C30.9095 34.914 31.1135 34.761 31.2635 34.551C31.4195 34.341 31.5065 34.065 31.5245 33.723C31.5485 33.267 31.4345 32.925 31.1825 32.697C30.9365 32.463 30.5375 32.346 29.9855 32.346Z"/>
    <path d="M34.875 37.256C35.047 37.256 35.201 37.288 35.337 37.352C35.473 37.412 35.579 37.496 35.655 37.604C35.735 37.708 35.775 37.826 35.775 37.958C35.775 38.046 35.753 38.118 35.709 38.174C35.665 38.226 35.603 38.252 35.523 38.252C35.427 38.256 35.359 38.228 35.319 38.168C35.283 38.108 35.265 38.056 35.265 38.012C35.265 37.976 35.269 37.938 35.277 37.898C35.289 37.858 35.311 37.82 35.343 37.784C35.323 37.672 35.267 37.592 35.175 37.544C35.087 37.492 34.985 37.466 34.869 37.466C34.697 37.466 34.553 37.512 34.437 37.604C34.321 37.696 34.229 37.816 34.161 37.964C34.093 38.112 34.043 38.272 34.011 38.444C33.983 38.612 33.969 38.776 33.969 38.936C33.969 39.356 34.037 39.654 34.173 39.83C34.313 40.006 34.489 40.094 34.701 40.094C34.857 40.094 35.019 40.04 35.187 39.932C35.359 39.824 35.503 39.626 35.619 39.338L35.829 39.44C35.677 39.788 35.493 40.034 35.277 40.178C35.061 40.318 34.835 40.388 34.599 40.388C34.247 40.388 33.965 40.282 33.753 40.07C33.545 39.854 33.441 39.522 33.441 39.074C33.441 38.878 33.469 38.674 33.525 38.462C33.581 38.25 33.667 38.054 33.783 37.874C33.899 37.69 34.047 37.542 34.227 37.43C34.411 37.314 34.627 37.256 34.875 37.256Z"/>
    <path d="M57.9145 22.182C58.4965 22.188 58.9585 22.263 59.3005 22.407C59.6485 22.551 59.8945 22.746 60.0385 22.992C60.1885 23.232 60.2545 23.511 60.2365 23.829C60.2245 24.057 60.1675 24.291 60.0655 24.531C59.9695 24.765 59.7985 24.978 59.5525 25.17C59.3065 25.362 58.9525 25.506 58.4905 25.602C58.5865 25.71 58.6585 25.791 58.7065 25.845C58.7545 25.893 58.7935 25.935 58.8235 25.971C58.8535 26.001 58.8865 26.046 58.9225 26.106C58.9585 26.166 59.0125 26.259 59.0845 26.385L59.6425 27.348C59.7385 27.51 59.8285 27.657 59.9125 27.789C60.0025 27.915 60.1075 28.017 60.2275 28.095C60.3535 28.167 60.5095 28.203 60.6955 28.203L60.6775 28.5H59.5795C59.4475 28.386 59.3185 28.242 59.1925 28.068C59.0725 27.888 58.9525 27.699 58.8325 27.501L58.2835 26.538C58.2115 26.406 58.1305 26.259 58.0405 26.097C57.9505 25.935 57.8455 25.797 57.7255 25.683C57.6715 25.689 57.5935 25.692 57.4915 25.692C57.3955 25.692 57.3055 25.692 57.2215 25.692C57.1375 25.686 57.0865 25.683 57.0685 25.683L56.9785 27.429C56.9725 27.591 56.9635 27.732 56.9515 27.852C56.9395 27.966 56.9275 28.062 56.9155 28.14C57.0235 28.134 57.1315 28.128 57.2395 28.122C57.3475 28.116 57.4555 28.11 57.5635 28.104L57.5455 28.5H55.5565L55.5745 28.203C55.8025 28.191 55.9615 28.14 56.0515 28.05C56.1415 27.954 56.1955 27.825 56.2135 27.663C56.2315 27.495 56.2435 27.306 56.2495 27.096L56.4565 23.208C56.4625 23.088 56.4715 22.974 56.4835 22.866C56.4955 22.752 56.5075 22.65 56.5195 22.56C56.4115 22.566 56.3005 22.572 56.1865 22.578C56.0785 22.584 55.9705 22.59 55.8625 22.596L55.8895 22.2C56.2255 22.194 56.5585 22.188 56.8885 22.182C57.2245 22.176 57.5665 22.176 57.9145 22.182ZM57.8605 22.524C57.6505 22.524 57.5005 22.566 57.4105 22.65C57.3205 22.734 57.2635 22.854 57.2395 23.01C57.2155 23.16 57.1975 23.343 57.1855 23.559L57.0865 25.332C57.1825 25.338 57.2725 25.344 57.3565 25.35C57.4465 25.356 57.5425 25.356 57.6445 25.35C57.9745 25.338 58.2685 25.284 58.5265 25.188C58.7845 25.092 58.9885 24.939 59.1385 24.729C59.2945 24.519 59.3815 24.243 59.3995 23.901C59.4235 23.445 59.3095 23.103 59.0575 22.875C58.8115 22.641 58.4125 22.524 57.8605 22.524Z"/>
    <path d="M62.14 26.488C62.232 26.488 62.308 26.52 62.368 26.584C62.428 26.644 62.458 26.726 62.458 26.83C62.458 26.93 62.426 27.012 62.362 27.076C62.298 27.136 62.222 27.166 62.134 27.166C62.046 27.166 61.97 27.136 61.906 27.076C61.846 27.012 61.816 26.93 61.816 26.83C61.816 26.726 61.848 26.644 61.912 26.584C61.976 26.52 62.052 26.488 62.14 26.488ZM61.798 27.784C61.966 27.784 62.092 27.842 62.176 27.958C62.26 28.07 62.302 28.22 62.302 28.408C62.302 28.568 62.282 28.758 62.242 28.978C62.206 29.198 62.168 29.428 62.128 29.668C62.092 29.908 62.074 30.14 62.074 30.364C62.074 30.532 62.136 30.616 62.26 30.616C62.328 30.616 62.402 30.572 62.482 30.484C62.566 30.396 62.638 30.246 62.698 30.034L62.866 30.07C62.842 30.182 62.8 30.304 62.74 30.436C62.68 30.568 62.6 30.682 62.5 30.778C62.4 30.87 62.274 30.916 62.122 30.916C61.762 30.916 61.582 30.728 61.582 30.352C61.582 30.12 61.602 29.896 61.642 29.68C61.682 29.46 61.72 29.242 61.756 29.026C61.796 28.806 61.816 28.582 61.816 28.354C61.816 28.302 61.804 28.244 61.78 28.18C61.76 28.116 61.716 28.084 61.648 28.084C61.584 28.084 61.51 28.128 61.426 28.216C61.342 28.304 61.27 28.454 61.21 28.666L61.042 28.63C61.054 28.558 61.078 28.476 61.114 28.384C61.15 28.288 61.198 28.194 61.258 28.102C61.322 28.01 61.398 27.934 61.486 27.874C61.574 27.814 61.678 27.784 61.798 27.784Z"/>
    <path d="M57.9145 68.157C58.4965 68.163 58.9585 68.238 59.3005 68.382C59.6485 68.526 59.8945 68.721 60.0385 68.967C60.1885 69.207 60.2545 69.486 60.2365 69.804C60.2245 70.032 60.1675 70.266 60.0655 70.506C59.9695 70.74 59.7985 70.953 59.5525 71.145C59.3065 71.337 58.9525 71.481 58.4905 71.577C58.5865 71.685 58.6585 71.766 58.7065 71.82C58.7545 71.868 58.7935 71.91 58.8235 71.946C58.8535 71.976 58.8865 72.021 58.9225 72.081C58.9585 72.141 59.0125 72.234 59.0845 72.36L59.6425 73.323C59.7385 73.485 59.8285 73.632 59.9125 73.764C60.0025 73.89 60.1075 73.992 60.2275 74.07C60.3535 74.142 60.5095 74.178 60.6955 74.178L60.6775 74.475H59.5795C59.4475 74.361 59.3185 74.217 59.1925 74.043C59.0725 73.863 58.9525 73.674 58.8325 73.476L58.2835 72.513C58.2115 72.381 58.1305 72.234 58.0405 72.072C57.9505 71.91 57.8455 71.772 57.7255 71.658C57.6715 71.664 57.5935 71.667 57.4915 71.667C57.3955 71.667 57.3055 71.667 57.2215 71.667C57.1375 71.661 57.0865 71.658 57.0685 71.658L56.9785 73.404C56.9725 73.566 56.9635 73.707 56.9515 73.827C56.9395 73.941 56.9275 74.037 56.9155 74.115C57.0235 74.109 57.1315 74.103 57.2395 74.097C57.3475 74.091 57.4555 74.085 57.5635 74.079L57.5455 74.475H55.5565L55.5745 74.178C55.8025 74.166 55.9615 74.115 56.0515 74.025C56.1415 73.929 56.1955 73.8 56.2135 73.638C56.2315 73.47 56.2435 73.281 56.2495 73.071L56.4565 69.183C56.4625 69.063 56.4715 68.949 56.4835 68.841C56.4955 68.727 56.5075 68.625 56.5195 68.535C56.4115 68.541 56.3005 68.547 56.1865 68.553C56.0785 68.559 55.9705 68.565 55.8625 68.571L55.8895 68.175C56.2255 68.169 56.5585 68.163 56.8885 68.157C57.2245 68.151 57.5665 68.151 57.9145 68.157ZM57.8605 68.499C57.6505 68.499 57.5005 68.541 57.4105 68.625C57.3205 68.709 57.2635 68.829 57.2395 68.985C57.2155 69.135 57.1975 69.318 57.1855 69.534L57.0865 71.307C57.1825 71.313 57.2725 71.319 57.3565 71.325C57.4465 71.331 57.5425 71.331 57.6445 71.325C57.9745 71.313 58.2685 71.259 58.5265 71.163C58.7845 71.067 58.9885 70.914 59.1385 70.704C59.2945 70.494 59.3815 70.218 59.3995 69.876C59.4235 69.42 59.3095 69.078 59.0575 68.85C58.8115 68.616 58.4125 68.499 57.8605 68.499Z"/>
    <path d="M62.14 72.463C62.232 72.463 62.308 72.495 62.368 72.559C62.428 72.619 62.458 72.701 62.458 72.805C62.458 72.905 62.426 72.987 62.362 73.051C62.298 73.111 62.222 73.141 62.134 73.141C62.046 73.141 61.97 73.111 61.906 73.051C61.846 72.987 61.816 72.905 61.816 72.805C61.816 72.701 61.848 72.619 61.912 72.559C61.976 72.495 62.052 72.463 62.14 72.463ZM61.798 73.759C61.966 73.759 62.092 73.817 62.176 73.933C62.26 74.045 62.302 74.195 62.302 74.383C62.302 74.543 62.282 74.733 62.242 74.953C62.206 75.173 62.168 75.403 62.128 75.643C62.092 75.883 62.074 76.115 62.074 76.339C62.074 76.507 62.136 76.591 62.26 76.591C62.328 76.591 62.402 76.547 62.482 76.459C62.566 76.371 62.638 76.221 62.698 76.009L62.866 76.045C62.842 76.157 62.8 76.279 62.74 76.411C62.68 76.543 62.6 76.657 62.5 76.753C62.4 76.845 62.274 76.891 62.122 76.891C61.762 76.891 61.582 76.703 61.582 76.327C61.582 76.095 61.602 75.871 61.642 75.655C61.682 75.435 61.72 75.217 61.756 75.001C61.796 74.781 61.816 74.557 61.816 74.329C61.816 74.277 61.804 74.219 61.78 74.155C61.76 74.091 61.716 74.059 61.648 74.059C61.584 74.059 61.51 74.103 61.426 74.191C61.342 74.279 61.27 74.429 61.21 74.641L61.042 74.605C61.054 74.533 61.078 74.451 61.114 74.359C61.15 74.263 61.198 74.169 61.258 74.077C61.322 73.985 61.398 73.909 61.486 73.849C61.574 73.789 61.678 73.759 61.798 73.759Z"/>
    <circle cx="51" cy="50.5" r="2.5"/>
  </g>
</svg>
