<svg viewBox="0 0 102 102" fill="none" xmlns="http://www.w3.org/2000/svg">
  <g stroke="currentcolor">
    <path d="M51 1L98.5528 35.5491L80.3893 91.4509H21.6107L3.44717 35.5491L51 1Z"/>
    <g stroke-dasharray="2 2">
      <circle cx="51" cy="51" r="50"/>
      <path d="M51 51V1"/>
      <path d="M51 91.4519V51"/>
    </g>
  </g>
  <g fill="currentcolor">
    <path d="M57.9145 22.182C58.4965 22.188 58.9585 22.263 59.3005 22.407C59.6485 22.551 59.8945 22.746 60.0385 22.992C60.1885 23.232 60.2545 23.511 60.2365 23.829C60.2245 24.057 60.1675 24.291 60.0655 24.531C59.9695 24.765 59.7985 24.978 59.5525 25.17C59.3065 25.362 58.9525 25.506 58.4905 25.602C58.5865 25.71 58.6585 25.791 58.7065 25.845C58.7545 25.893 58.7935 25.935 58.8235 25.971C58.8535 26.001 58.8865 26.046 58.9225 26.106C58.9585 26.166 59.0125 26.259 59.0845 26.385L59.6425 27.348C59.7385 27.51 59.8285 27.657 59.9125 27.789C60.0025 27.915 60.1075 28.017 60.2275 28.095C60.3535 28.167 60.5095 28.203 60.6955 28.203L60.6775 28.5H59.5795C59.4475 28.386 59.3185 28.242 59.1925 28.068C59.0725 27.888 58.9525 27.699 58.8325 27.501L58.2835 26.538C58.2115 26.406 58.1305 26.259 58.0405 26.097C57.9505 25.935 57.8455 25.797 57.7255 25.683C57.6715 25.689 57.5935 25.692 57.4915 25.692C57.3955 25.692 57.3055 25.692 57.2215 25.692C57.1375 25.686 57.0865 25.683 57.0685 25.683L56.9785 27.429C56.9725 27.591 56.9635 27.732 56.9515 27.852C56.9395 27.966 56.9275 28.062 56.9155 28.14C57.0235 28.134 57.1315 28.128 57.2395 28.122C57.3475 28.116 57.4555 28.11 57.5635 28.104L57.5455 28.5H55.5565L55.5745 28.203C55.8025 28.191 55.9615 28.14 56.0515 28.05C56.1415 27.954 56.1955 27.825 56.2135 27.663C56.2315 27.495 56.2435 27.306 56.2495 27.096L56.4565 23.208C56.4625 23.088 56.4715 22.974 56.4835 22.866C56.4955 22.752 56.5075 22.65 56.5195 22.56C56.4115 22.566 56.3005 22.572 56.1865 22.578C56.0785 22.584 55.9705 22.59 55.8625 22.596L55.8895 22.2C56.2255 22.194 56.5585 22.188 56.8885 22.182C57.2245 22.176 57.5665 22.176 57.9145 22.182ZM57.8605 22.524C57.6505 22.524 57.5005 22.566 57.4105 22.65C57.3205 22.734 57.2635 22.854 57.2395 23.01C57.2155 23.16 57.1975 23.343 57.1855 23.559L57.0865 25.332C57.1825 25.338 57.2725 25.344 57.3565 25.35C57.4465 25.356 57.5425 25.356 57.6445 25.35C57.9745 25.338 58.2685 25.284 58.5265 25.188C58.7845 25.092 58.9885 24.939 59.1385 24.729C59.2945 24.519 59.3815 24.243 59.3995 23.901C59.4235 23.445 59.3095 23.103 59.0575 22.875C58.8115 22.641 58.4125 22.524 57.8605 22.524Z"/>
    <path d="M62.75 27.434C62.922 27.434 63.076 27.466 63.212 27.53C63.348 27.59 63.454 27.674 63.53 27.782C63.61 27.886 63.65 28.004 63.65 28.136C63.65 28.224 63.628 28.296 63.584 28.352C63.54 28.404 63.478 28.43 63.398 28.43C63.302 28.434 63.234 28.406 63.194 28.346C63.158 28.286 63.14 28.234 63.14 28.19C63.14 28.154 63.144 28.116 63.152 28.076C63.164 28.036 63.186 27.998 63.218 27.962C63.198 27.85 63.142 27.77 63.05 27.722C62.962 27.67 62.86 27.644 62.744 27.644C62.572 27.644 62.428 27.69 62.312 27.782C62.196 27.874 62.104 27.994 62.036 28.142C61.968 28.29 61.918 28.45 61.886 28.622C61.858 28.79 61.844 28.954 61.844 29.114C61.844 29.534 61.912 29.832 62.048 30.008C62.188 30.184 62.364 30.272 62.576 30.272C62.732 30.272 62.894 30.218 63.062 30.11C63.234 30.002 63.378 29.804 63.494 29.516L63.704 29.618C63.552 29.966 63.368 30.212 63.152 30.356C62.936 30.496 62.71 30.566 62.474 30.566C62.122 30.566 61.84 30.46 61.628 30.248C61.42 30.032 61.316 29.7 61.316 29.252C61.316 29.056 61.344 28.852 61.4 28.64C61.456 28.428 61.542 28.232 61.658 28.052C61.774 27.868 61.922 27.72 62.102 27.608C62.286 27.492 62.502 27.434 62.75 27.434Z"/>
    <circle cx="51" cy="51" r="2.5"/>
    <path d="M57.9145 67.2329C58.4965 67.2389 58.9585 67.3139 59.3005 67.4579C59.6485 67.6019 59.8945 67.7969 60.0385 68.0429C60.1885 68.2829 60.2545 68.5619 60.2365 68.8799C60.2245 69.1079 60.1675 69.3419 60.0655 69.5819C59.9695 69.8159 59.7985 70.0289 59.5525 70.2209C59.3065 70.4129 58.9525 70.5569 58.4905 70.6529C58.5865 70.7609 58.6585 70.8419 58.7065 70.8959C58.7545 70.9439 58.7935 70.9859 58.8235 71.0219C58.8535 71.0519 58.8865 71.0969 58.9225 71.1569C58.9585 71.2169 59.0125 71.3099 59.0845 71.4359L59.6425 72.3989C59.7385 72.5609 59.8285 72.7079 59.9125 72.8399C60.0025 72.9659 60.1075 73.0679 60.2275 73.1459C60.3535 73.2179 60.5095 73.2539 60.6955 73.2539L60.6775 73.5509H59.5795C59.4475 73.4369 59.3185 73.2929 59.1925 73.1189C59.0725 72.9389 58.9525 72.7499 58.8325 72.5519L58.2835 71.5889C58.2115 71.4569 58.1305 71.3099 58.0405 71.1479C57.9505 70.9859 57.8455 70.8479 57.7255 70.7339C57.6715 70.7399 57.5935 70.7429 57.4915 70.7429C57.3955 70.7429 57.3055 70.7429 57.2215 70.7429C57.1375 70.7369 57.0865 70.7339 57.0685 70.7339L56.9785 72.4799C56.9725 72.6419 56.9635 72.7829 56.9515 72.9029C56.9395 73.0169 56.9275 73.1129 56.9155 73.1909C57.0235 73.1849 57.1315 73.1789 57.2395 73.1729C57.3475 73.1669 57.4555 73.1609 57.5635 73.1549L57.5455 73.5509H55.5565L55.5745 73.2539C55.8025 73.2419 55.9615 73.1909 56.0515 73.1009C56.1415 73.0049 56.1955 72.8759 56.2135 72.7139C56.2315 72.5459 56.2435 72.3569 56.2495 72.1469L56.4565 68.2589C56.4625 68.1389 56.4715 68.0249 56.4835 67.9169C56.4955 67.8029 56.5075 67.7009 56.5195 67.6109C56.4115 67.6169 56.3005 67.6229 56.1865 67.6289C56.0785 67.6349 55.9705 67.6409 55.8625 67.6469L55.8895 67.2509C56.2255 67.2449 56.5585 67.2389 56.8885 67.2329C57.2245 67.2269 57.5665 67.2269 57.9145 67.2329ZM57.8605 67.5749C57.6505 67.5749 57.5005 67.6169 57.4105 67.7009C57.3205 67.7849 57.2635 67.9049 57.2395 68.0609C57.2155 68.2109 57.1975 68.3939 57.1855 68.6099L57.0865 70.3829C57.1825 70.3889 57.2725 70.3949 57.3565 70.4009C57.4465 70.4069 57.5425 70.4069 57.6445 70.4009C57.9745 70.3889 58.2685 70.3349 58.5265 70.2389C58.7845 70.1429 58.9885 69.9899 59.1385 69.7799C59.2945 69.5699 59.3815 69.2939 59.3995 68.9519C59.4235 68.4959 59.3095 68.1539 59.0575 67.9259C58.8115 67.6919 58.4125 67.5749 57.8605 67.5749Z"/>
    <path d="M62.14 71.5389C62.232 71.5389 62.308 71.5709 62.368 71.6349C62.428 71.6949 62.458 71.7769 62.458 71.8809C62.458 71.9809 62.426 72.0629 62.362 72.1269C62.298 72.1869 62.222 72.2169 62.134 72.2169C62.046 72.2169 61.97 72.1869 61.906 72.1269C61.846 72.0629 61.816 71.9809 61.816 71.8809C61.816 71.7769 61.848 71.6949 61.912 71.6349C61.976 71.5709 62.052 71.5389 62.14 71.5389ZM61.798 72.8349C61.966 72.8349 62.092 72.8929 62.176 73.0089C62.26 73.1209 62.302 73.2709 62.302 73.4589C62.302 73.6189 62.282 73.8089 62.242 74.0289C62.206 74.2489 62.168 74.4789 62.128 74.7189C62.092 74.9589 62.074 75.1909 62.074 75.4149C62.074 75.5829 62.136 75.6669 62.26 75.6669C62.328 75.6669 62.402 75.6229 62.482 75.5349C62.566 75.4469 62.638 75.2969 62.698 75.0849L62.866 75.1209C62.842 75.2329 62.8 75.3549 62.74 75.4869C62.68 75.6189 62.6 75.7329 62.5 75.8289C62.4 75.9209 62.274 75.9669 62.122 75.9669C61.762 75.9669 61.582 75.7789 61.582 75.4029C61.582 75.1709 61.602 74.9469 61.642 74.7309C61.682 74.5109 61.72 74.2929 61.756 74.0769C61.796 73.8569 61.816 73.6329 61.816 73.4049C61.816 73.3529 61.804 73.2949 61.78 73.2309C61.76 73.1669 61.716 73.1349 61.648 73.1349C61.584 73.1349 61.51 73.1789 61.426 73.2669C61.342 73.3549 61.27 73.5049 61.21 73.7169L61.042 73.6809C61.054 73.6089 61.078 73.5269 61.114 73.4349C61.15 73.3389 61.198 73.2449 61.258 73.1529C61.322 73.0609 61.398 72.9849 61.486 72.9249C61.574 72.8649 61.678 72.8349 61.798 72.8349Z"/>
  </g>
</svg>
