<svg viewBox="0 0 101 101" fill="currentcolor" xmlns="http://www.w3.org/2000/svg">
  <g stroke="currentcolor">
    <path d="M0 14H100"/>
    <path d="M11.5 34H55.75" stroke-dasharray="2 2"/>
    <path d="M50 100.603L100 14"/>
    <path d="M50 100.603L11.5 33.9186"/>
  </g>
  <path d="M43.437 9V8.703C43.749 8.691 43.956 8.595 44.058 8.415C44.166 8.235 44.22 7.989 44.22 7.677L44.193 3.429L43.113 4.122L42.933 3.861L44.688 2.556H44.994L45.003 8.019C45.003 8.133 45 8.244 44.994 8.352C44.994 8.46 44.988 8.556 44.976 8.64C45.102 8.634 45.228 8.628 45.354 8.622C45.48 8.616 45.606 8.61 45.732 8.604V9H43.437ZM48.8483 9.144C48.3923 9.144 48.0143 9.048 47.7143 8.856C47.4143 8.658 47.1803 8.4 47.0123 8.082C46.8443 7.758 46.7243 7.404 46.6523 7.02C46.5863 6.636 46.5533 6.255 46.5533 5.877C46.5533 5.499 46.5953 5.115 46.6793 4.725C46.7693 4.335 46.9073 3.978 47.0933 3.654C47.2793 3.324 47.5193 3.06 47.8133 2.862C48.1073 2.658 48.4643 2.556 48.8843 2.556C49.3223 2.556 49.6853 2.655 49.9733 2.853C50.2673 3.051 50.4983 3.312 50.6663 3.636C50.8403 3.954 50.9633 4.305 51.0353 4.689C51.1073 5.073 51.1433 5.454 51.1433 5.832C51.1433 6.204 51.1013 6.585 51.0173 6.975C50.9333 7.365 50.8013 7.725 50.6213 8.055C50.4413 8.379 50.2043 8.643 49.9103 8.847C49.6223 9.045 49.2683 9.144 48.8483 9.144ZM48.9023 8.793C49.1603 8.793 49.3733 8.712 49.5413 8.55C49.7093 8.388 49.8413 8.172 49.9373 7.902C50.0393 7.632 50.1113 7.335 50.1533 7.011C50.1953 6.681 50.2163 6.351 50.2163 6.021C50.2163 5.655 50.1953 5.289 50.1533 4.923C50.1113 4.557 50.0393 4.221 49.9373 3.915C49.8353 3.609 49.6973 3.363 49.5233 3.177C49.3493 2.991 49.1303 2.898 48.8663 2.898C48.6083 2.898 48.3893 2.979 48.2093 3.141C48.0353 3.303 47.8943 3.519 47.7863 3.789C47.6783 4.059 47.6003 4.359 47.5523 4.689C47.5043 5.019 47.4803 5.352 47.4803 5.688C47.4803 5.94 47.4923 6.207 47.5163 6.489C47.5403 6.771 47.5823 7.05 47.6423 7.326C47.7083 7.596 47.7953 7.842 47.9033 8.064C48.0113 8.286 48.1463 8.463 48.3083 8.595C48.4703 8.727 48.6683 8.793 48.9023 8.793ZM54.4382 9.144C53.9822 9.144 53.6042 9.048 53.3042 8.856C53.0042 8.658 52.7702 8.4 52.6022 8.082C52.4342 7.758 52.3142 7.404 52.2422 7.02C52.1762 6.636 52.1432 6.255 52.1432 5.877C52.1432 5.499 52.1852 5.115 52.2692 4.725C52.3592 4.335 52.4972 3.978 52.6832 3.654C52.8692 3.324 53.1092 3.06 53.4032 2.862C53.6972 2.658 54.0542 2.556 54.4742 2.556C54.9122 2.556 55.2752 2.655 55.5632 2.853C55.8572 3.051 56.0882 3.312 56.2562 3.636C56.4302 3.954 56.5532 4.305 56.6252 4.689C56.6972 5.073 56.7332 5.454 56.7332 5.832C56.7332 6.204 56.6912 6.585 56.6072 6.975C56.5232 7.365 56.3912 7.725 56.2112 8.055C56.0312 8.379 55.7942 8.643 55.5002 8.847C55.2122 9.045 54.8582 9.144 54.4382 9.144ZM54.4922 8.793C54.7502 8.793 54.9632 8.712 55.1312 8.55C55.2992 8.388 55.4312 8.172 55.5272 7.902C55.6292 7.632 55.7012 7.335 55.7432 7.011C55.7852 6.681 55.8062 6.351 55.8062 6.021C55.8062 5.655 55.7852 5.289 55.7432 4.923C55.7012 4.557 55.6292 4.221 55.5272 3.915C55.4252 3.609 55.2872 3.363 55.1132 3.177C54.9392 2.991 54.7202 2.898 54.4562 2.898C54.1982 2.898 53.9792 2.979 53.7992 3.141C53.6252 3.303 53.4842 3.519 53.3762 3.789C53.2682 4.059 53.1902 4.359 53.1422 4.689C53.0942 5.019 53.0702 5.352 53.0702 5.688C53.0702 5.94 53.0822 6.207 53.1062 6.489C53.1302 6.771 53.1722 7.05 53.2322 7.326C53.2982 7.596 53.3852 7.842 53.4932 8.064C53.6012 8.286 53.7362 8.463 53.8982 8.595C54.0602 8.727 54.2582 8.793 54.4922 8.793Z"/>
  <path d="M79.937 63V62.703C80.249 62.691 80.456 62.595 80.558 62.415C80.666 62.235 80.72 61.989 80.72 61.677L80.693 57.429L79.613 58.122L79.433 57.861L81.188 56.556H81.494L81.503 62.019C81.503 62.133 81.5 62.244 81.494 62.352C81.494 62.46 81.488 62.556 81.476 62.64C81.602 62.634 81.728 62.628 81.854 62.622C81.98 62.616 82.106 62.61 82.232 62.604V63H79.937ZM85.3483 63.144C84.8923 63.144 84.5143 63.048 84.2143 62.856C83.9143 62.658 83.6803 62.4 83.5123 62.082C83.3443 61.758 83.2243 61.404 83.1523 61.02C83.0863 60.636 83.0533 60.255 83.0533 59.877C83.0533 59.499 83.0953 59.115 83.1793 58.725C83.2693 58.335 83.4073 57.978 83.5933 57.654C83.7793 57.324 84.0193 57.06 84.3133 56.862C84.6073 56.658 84.9643 56.556 85.3843 56.556C85.8223 56.556 86.1853 56.655 86.4733 56.853C86.7673 57.051 86.9983 57.312 87.1663 57.636C87.3403 57.954 87.4633 58.305 87.5353 58.689C87.6073 59.073 87.6433 59.454 87.6433 59.832C87.6433 60.204 87.6013 60.585 87.5173 60.975C87.4333 61.365 87.3013 61.725 87.1213 62.055C86.9413 62.379 86.7043 62.643 86.4103 62.847C86.1223 63.045 85.7683 63.144 85.3483 63.144ZM85.4023 62.793C85.6603 62.793 85.8733 62.712 86.0413 62.55C86.2093 62.388 86.3413 62.172 86.4373 61.902C86.5393 61.632 86.6113 61.335 86.6533 61.011C86.6953 60.681 86.7163 60.351 86.7163 60.021C86.7163 59.655 86.6953 59.289 86.6533 58.923C86.6113 58.557 86.5393 58.221 86.4373 57.915C86.3353 57.609 86.1973 57.363 86.0233 57.177C85.8493 56.991 85.6303 56.898 85.3663 56.898C85.1083 56.898 84.8893 56.979 84.7093 57.141C84.5353 57.303 84.3943 57.519 84.2863 57.789C84.1783 58.059 84.1003 58.359 84.0523 58.689C84.0043 59.019 83.9803 59.352 83.9803 59.688C83.9803 59.94 83.9923 60.207 84.0163 60.489C84.0403 60.771 84.0823 61.05 84.1423 61.326C84.2083 61.596 84.2953 61.842 84.4033 62.064C84.5113 62.286 84.6463 62.463 84.8083 62.595C84.9703 62.727 85.1683 62.793 85.4023 62.793ZM90.9382 63.144C90.4822 63.144 90.1042 63.048 89.8042 62.856C89.5042 62.658 89.2702 62.4 89.1022 62.082C88.9342 61.758 88.8142 61.404 88.7422 61.02C88.6762 60.636 88.6432 60.255 88.6432 59.877C88.6432 59.499 88.6852 59.115 88.7692 58.725C88.8592 58.335 88.9972 57.978 89.1832 57.654C89.3692 57.324 89.6092 57.06 89.9032 56.862C90.1972 56.658 90.5542 56.556 90.9742 56.556C91.4122 56.556 91.7752 56.655 92.0632 56.853C92.3572 57.051 92.5882 57.312 92.7562 57.636C92.9302 57.954 93.0532 58.305 93.1252 58.689C93.1972 59.073 93.2332 59.454 93.2332 59.832C93.2332 60.204 93.1912 60.585 93.1072 60.975C93.0232 61.365 92.8912 61.725 92.7112 62.055C92.5312 62.379 92.2942 62.643 92.0002 62.847C91.7122 63.045 91.3582 63.144 90.9382 63.144ZM90.9922 62.793C91.2502 62.793 91.4632 62.712 91.6312 62.55C91.7992 62.388 91.9312 62.172 92.0272 61.902C92.1292 61.632 92.2012 61.335 92.2432 61.011C92.2852 60.681 92.3062 60.351 92.3062 60.021C92.3062 59.655 92.2852 59.289 92.2432 58.923C92.2012 58.557 92.1292 58.221 92.0272 57.915C91.9252 57.609 91.7872 57.363 91.6132 57.177C91.4392 56.991 91.2202 56.898 90.9562 56.898C90.6982 56.898 90.4792 56.979 90.2992 57.141C90.1252 57.303 89.9842 57.519 89.8762 57.789C89.7682 58.059 89.6902 58.359 89.6422 58.689C89.5942 59.019 89.5702 59.352 89.5702 59.688C89.5702 59.94 89.5822 60.207 89.6062 60.489C89.6302 60.771 89.6722 61.05 89.7322 61.326C89.7982 61.596 89.8852 61.842 89.9932 62.064C90.1012 62.286 90.2362 62.463 90.3982 62.595C90.5602 62.727 90.7582 62.793 90.9922 62.793Z"/>
  <path d="M18.5086 70.308C18.3346 70.308 18.1696 70.263 18.0136 70.173C17.8636 70.083 17.7886 69.927 17.7886 69.705C17.7886 69.507 17.8726 69.327 18.0406 69.165C18.2146 69.003 18.4066 68.829 18.6166 68.643C18.8446 68.451 19.0546 68.235 19.2466 67.995C19.4386 67.749 19.5406 67.452 19.5526 67.104C19.5586 66.882 19.5286 66.681 19.4626 66.501C19.3966 66.321 19.2826 66.177 19.1206 66.069C18.9586 65.961 18.7366 65.907 18.4546 65.907C18.2866 65.907 18.1276 65.94 17.9776 66.006C17.8336 66.072 17.7166 66.156 17.6266 66.258C17.5366 66.354 17.4826 66.45 17.4646 66.546C17.4946 66.594 17.5186 66.648 17.5366 66.708C17.5606 66.768 17.5726 66.831 17.5726 66.897C17.5726 66.975 17.5396 67.062 17.4736 67.158C17.4076 67.248 17.3026 67.29 17.1586 67.284C17.0266 67.272 16.9276 67.224 16.8616 67.14C16.8016 67.05 16.7716 66.939 16.7716 66.807C16.7716 66.633 16.8436 66.45 16.9876 66.258C17.1376 66.06 17.3476 65.895 17.6176 65.763C17.8876 65.625 18.2116 65.556 18.5896 65.556C19.0576 65.556 19.4236 65.634 19.6876 65.79C19.9576 65.946 20.1466 66.144 20.2546 66.384C20.3686 66.624 20.4196 66.87 20.4076 67.122C20.3896 67.368 20.3086 67.593 20.1646 67.797C20.0266 67.995 19.8586 68.178 19.6606 68.346C19.4626 68.514 19.2676 68.67 19.0756 68.814C18.8836 68.958 18.7216 69.096 18.5896 69.228C18.4576 69.354 18.3916 69.477 18.3916 69.597C18.3916 69.669 18.4186 69.738 18.4726 69.804C18.5326 69.864 18.6316 69.894 18.7696 69.894C18.8176 69.894 18.8716 69.891 18.9316 69.885C18.9916 69.873 19.0486 69.855 19.1026 69.831L19.2106 70.146C19.1146 70.2 19.0006 70.242 18.8686 70.272C18.7366 70.296 18.6166 70.308 18.5086 70.308ZM18.5626 72.144C18.4426 72.144 18.3316 72.096 18.2296 72C18.1276 71.91 18.0766 71.781 18.0766 71.613C18.0766 71.469 18.1276 71.346 18.2296 71.244C18.3316 71.136 18.4426 71.082 18.5626 71.082C18.7006 71.082 18.8146 71.136 18.9046 71.244C19.0006 71.346 19.0486 71.469 19.0486 71.613C19.0486 71.763 19.0006 71.889 18.9046 71.991C18.8146 72.093 18.7006 72.144 18.5626 72.144ZM22.7713 70.308C22.5973 70.308 22.4323 70.263 22.2763 70.173C22.1263 70.083 22.0513 69.927 22.0513 69.705C22.0513 69.507 22.1353 69.327 22.3033 69.165C22.4773 69.003 22.6693 68.829 22.8793 68.643C23.1073 68.451 23.3173 68.235 23.5093 67.995C23.7013 67.749 23.8033 67.452 23.8153 67.104C23.8213 66.882 23.7913 66.681 23.7253 66.501C23.6593 66.321 23.5453 66.177 23.3833 66.069C23.2213 65.961 22.9993 65.907 22.7173 65.907C22.5493 65.907 22.3903 65.94 22.2403 66.006C22.0963 66.072 21.9793 66.156 21.8893 66.258C21.7993 66.354 21.7453 66.45 21.7273 66.546C21.7573 66.594 21.7813 66.648 21.7993 66.708C21.8233 66.768 21.8353 66.831 21.8353 66.897C21.8353 66.975 21.8023 67.062 21.7363 67.158C21.6703 67.248 21.5653 67.29 21.4213 67.284C21.2893 67.272 21.1903 67.224 21.1243 67.14C21.0643 67.05 21.0343 66.939 21.0343 66.807C21.0343 66.633 21.1063 66.45 21.2503 66.258C21.4003 66.06 21.6103 65.895 21.8803 65.763C22.1503 65.625 22.4743 65.556 22.8523 65.556C23.3203 65.556 23.6863 65.634 23.9503 65.79C24.2203 65.946 24.4093 66.144 24.5173 66.384C24.6313 66.624 24.6823 66.87 24.6703 67.122C24.6523 67.368 24.5713 67.593 24.4273 67.797C24.2893 67.995 24.1213 68.178 23.9233 68.346C23.7253 68.514 23.5303 68.67 23.3383 68.814C23.1463 68.958 22.9843 69.096 22.8523 69.228C22.7203 69.354 22.6543 69.477 22.6543 69.597C22.6543 69.669 22.6813 69.738 22.7353 69.804C22.7953 69.864 22.8943 69.894 23.0323 69.894C23.0803 69.894 23.1343 69.891 23.1943 69.885C23.2543 69.873 23.3113 69.855 23.3653 69.831L23.4733 70.146C23.3773 70.2 23.2633 70.242 23.1313 70.272C22.9993 70.296 22.8793 70.308 22.7713 70.308ZM22.8253 72.144C22.7053 72.144 22.5943 72.096 22.4923 72C22.3903 71.91 22.3393 71.781 22.3393 71.613C22.3393 71.469 22.3903 71.346 22.4923 71.244C22.5943 71.136 22.7053 71.082 22.8253 71.082C22.9633 71.082 23.0773 71.136 23.1673 71.244C23.2633 71.346 23.3113 71.469 23.3113 71.613C23.3113 71.763 23.2633 71.889 23.1673 71.991C23.0773 72.093 22.9633 72.144 22.8253 72.144Z"/>
  <path d="M12.414 27C12.414 26.682 12.462 26.4 12.558 26.154C12.66 25.908 12.795 25.683 12.963 25.479C13.131 25.269 13.32 25.068 13.53 24.876C13.746 24.678 13.965 24.471 14.187 24.255C14.577 23.883 14.859 23.538 15.033 23.22C15.207 22.902 15.294 22.596 15.294 22.302C15.294 22.074 15.261 21.855 15.195 21.645C15.135 21.429 15.024 21.252 14.862 21.114C14.7 20.976 14.475 20.907 14.187 20.907C13.941 20.907 13.722 20.97 13.53 21.096C13.338 21.216 13.209 21.366 13.143 21.546C13.203 21.606 13.245 21.672 13.269 21.744C13.293 21.81 13.305 21.876 13.305 21.942C13.305 22.02 13.272 22.113 13.206 22.221C13.14 22.323 13.026 22.371 12.864 22.365C12.732 22.359 12.63 22.308 12.558 22.212C12.486 22.116 12.45 22.002 12.45 21.87C12.45 21.696 12.519 21.507 12.657 21.303C12.801 21.099 13.011 20.925 13.287 20.781C13.569 20.631 13.917 20.556 14.331 20.556C14.649 20.556 14.952 20.607 15.24 20.709C15.528 20.811 15.762 20.982 15.942 21.222C16.128 21.456 16.221 21.777 16.221 22.185C16.221 22.491 16.086 22.842 15.816 23.238C15.552 23.628 15.099 24.084 14.457 24.606C14.049 24.942 13.713 25.26 13.449 25.56C13.191 25.854 13.041 26.106 12.999 26.316L14.592 26.361C14.886 26.367 15.144 26.367 15.366 26.361C15.594 26.355 15.771 26.31 15.897 26.226C16.029 26.136 16.095 25.974 16.095 25.74H16.365L16.311 27H12.414ZM19.633 27.144C19.177 27.144 18.799 27.048 18.499 26.856C18.199 26.658 17.965 26.4 17.797 26.082C17.629 25.758 17.509 25.404 17.437 25.02C17.371 24.636 17.338 24.255 17.338 23.877C17.338 23.499 17.38 23.115 17.464 22.725C17.554 22.335 17.692 21.978 17.878 21.654C18.064 21.324 18.304 21.06 18.598 20.862C18.892 20.658 19.249 20.556 19.669 20.556C20.107 20.556 20.47 20.655 20.758 20.853C21.052 21.051 21.283 21.312 21.451 21.636C21.625 21.954 21.748 22.305 21.82 22.689C21.892 23.073 21.928 23.454 21.928 23.832C21.928 24.204 21.886 24.585 21.802 24.975C21.718 25.365 21.586 25.725 21.406 26.055C21.226 26.379 20.989 26.643 20.695 26.847C20.407 27.045 20.053 27.144 19.633 27.144ZM19.687 26.793C19.945 26.793 20.158 26.712 20.326 26.55C20.494 26.388 20.626 26.172 20.722 25.902C20.824 25.632 20.896 25.335 20.938 25.011C20.98 24.681 21.001 24.351 21.001 24.021C21.001 23.655 20.98 23.289 20.938 22.923C20.896 22.557 20.824 22.221 20.722 21.915C20.62 21.609 20.482 21.363 20.308 21.177C20.134 20.991 19.915 20.898 19.651 20.898C19.393 20.898 19.174 20.979 18.994 21.141C18.82 21.303 18.679 21.519 18.571 21.789C18.463 22.059 18.385 22.359 18.337 22.689C18.289 23.019 18.265 23.352 18.265 23.688C18.265 23.94 18.277 24.207 18.301 24.489C18.325 24.771 18.367 25.05 18.427 25.326C18.493 25.596 18.58 25.842 18.688 26.064C18.796 26.286 18.931 26.463 19.093 26.595C19.255 26.727 19.453 26.793 19.687 26.793Z"/>
  <path d="M30.3536 14.6464C30.1583 14.4512 29.8417 14.4512 29.6464 14.6464L26.4645 17.8284C26.2692 18.0237 26.2692 18.3403 26.4645 18.5355C26.6597 18.7308 26.9763 18.7308 27.1716 18.5355L30 15.7071L32.8284 18.5355C33.0237 18.7308 33.3403 18.7308 33.5355 18.5355C33.7308 18.3403 33.7308 18.0237 33.5355 17.8284L30.3536 14.6464ZM29.6464 33.3536C29.8417 33.5488 30.1583 33.5488 30.3536 33.3536L33.5355 30.1716C33.7308 29.9763 33.7308 29.6597 33.5355 29.4645C33.3403 29.2692 33.0237 29.2692 32.8284 29.4645L30 32.2929L27.1716 29.4645C26.9763 29.2692 26.6597 29.2692 26.4645 29.4645C26.2692 29.6597 26.2692 29.9763 26.4645 30.1716L29.6464 33.3536ZM29.5 15V33H30.5V15H29.5Z"/>
</svg>
