<svg viewBox="0 0 102 101" fill="currentcolor" xmlns="http://www.w3.org/2000/svg">
  <g stroke="currentcolor">
    <path d="M51 100.603L12.547 34"/>
    <path d="M66.358 34L51 60.6008"/>
    <path d="M1 14H101"/>
    <path d="M51 100.603L89.453 34L101 14"/>
    <path d="M12.5469 34H35.64H66.36"/>
    <path d="M4.17542 25.5L9.37157 22.5"/>
    <path d="M77.905 37V31"/>
    <path d="M94.3159 37V31"/>
    <path d="M96.1376 37V31"/>
    <path d="M82.9347 11.2884L77.7385 8.28842"/>
    <path d="M83.8455 9.71077L78.6494 6.71077"/>
    <path d="M38.7077 87.8901L33.5115 84.8901"/>
    <path d="M39.6185 86.3124L34.4224 83.3124"/>
    <path d="M42.6279 69.1017L47.8241 72.1017"/>
    <path d="M69.5354 22.5L74.7316 25.5"/>
    <path d="M5.86243 37V31"/>
    <path d="M7.68414 37V31"/>
    <g stroke-dasharray="2 2">
      <path d="M39.452 80.6008L33.678 90.6017"/>
      <path d="M83.679 3.99915L77.905 14"/>
      <path d="M77.905 14L66.358 34"/>
      <path d="M0.999995 14L12.547 34"/>
      <path d="M1 34H12.5466"/>
      <path d="M89.4535 34H101"/>
      <path d="M39.452 80.6025L51 60.6008"/>
      <path d="M89.45 34H66.36"/>
    </g>
  </g>
  <path d="M49.5268 9V8.703C49.8388 8.691 50.0458 8.595 50.1478 8.415C50.2558 8.235 50.3098 7.989 50.3098 7.677L50.2828 3.429L49.2028 4.122L49.0228 3.861L50.7778 2.556H51.0838L51.0928 8.019C51.0928 8.133 51.0898 8.244 51.0838 8.352C51.0838 8.46 51.0778 8.556 51.0658 8.64C51.1918 8.634 51.3178 8.628 51.4438 8.622C51.5698 8.616 51.6958 8.61 51.8218 8.604V9H49.5268Z"/>
  <path d="M81.997 64.3013C81.997 63.9833 82.045 63.7013 82.141 63.4553C82.243 63.2093 82.378 62.9843 82.546 62.7803C82.714 62.5703 82.903 62.3693 83.113 62.1773C83.329 61.9793 83.548 61.7723 83.77 61.5563C84.16 61.1843 84.442 60.8393 84.616 60.5213C84.79 60.2033 84.877 59.8973 84.877 59.6033C84.877 59.3753 84.844 59.1563 84.778 58.9463C84.718 58.7303 84.607 58.5533 84.445 58.4153C84.283 58.2773 84.058 58.2083 83.77 58.2083C83.524 58.2083 83.305 58.2713 83.113 58.3973C82.921 58.5173 82.792 58.6673 82.726 58.8473C82.786 58.9073 82.828 58.9733 82.852 59.0453C82.876 59.1113 82.888 59.1773 82.888 59.2433C82.888 59.3213 82.855 59.4143 82.789 59.5223C82.723 59.6243 82.609 59.6723 82.447 59.6663C82.315 59.6603 82.213 59.6093 82.141 59.5133C82.069 59.4173 82.033 59.3033 82.033 59.1713C82.033 58.9973 82.102 58.8083 82.24 58.6043C82.384 58.4003 82.594 58.2263 82.87 58.0823C83.152 57.9323 83.5 57.8573 83.914 57.8573C84.232 57.8573 84.535 57.9083 84.823 58.0103C85.111 58.1123 85.345 58.2833 85.525 58.5233C85.711 58.7573 85.804 59.0783 85.804 59.4863C85.804 59.7923 85.669 60.1433 85.399 60.5393C85.135 60.9293 84.682 61.3853 84.04 61.9073C83.632 62.2433 83.296 62.5613 83.032 62.8613C82.774 63.1553 82.624 63.4073 82.582 63.6173L84.175 63.6623C84.469 63.6683 84.727 63.6683 84.949 63.6623C85.177 63.6563 85.354 63.6113 85.48 63.5273C85.612 63.4373 85.678 63.2753 85.678 63.0413H85.948L85.894 64.3013H81.997Z"/>
  <path d="M22.7901 72.4453C22.3581 72.4453 22.0011 72.3823 21.7191 72.2563C21.4371 72.1243 21.2271 71.9623 21.0891 71.7703C20.9571 71.5783 20.8911 71.3953 20.8911 71.2213C20.8911 71.0833 20.9271 70.9693 20.9991 70.8793C21.0711 70.7833 21.1731 70.7323 21.3051 70.7263C21.4671 70.7143 21.5781 70.7593 21.6381 70.8613C21.6981 70.9573 21.7281 71.0473 21.7281 71.1313C21.7281 71.1913 21.7191 71.2513 21.7011 71.3113C21.6831 71.3713 21.6591 71.4313 21.6291 71.4913C21.6891 71.6953 21.8241 71.8423 22.0341 71.9323C22.2501 72.0223 22.4811 72.0673 22.7271 72.0673C23.1531 72.0673 23.4921 71.9503 23.7441 71.7163C24.0021 71.4823 24.1311 71.1433 24.1311 70.6993C24.1311 70.4353 24.0891 70.1863 24.0051 69.9523C23.9211 69.7123 23.7651 69.5173 23.5371 69.3673C23.3091 69.2173 22.9761 69.1483 22.5381 69.1603C22.4901 69.1603 22.4391 69.1633 22.3851 69.1693C22.3311 69.1693 22.2711 69.1723 22.2051 69.1783V68.7733H22.5741C22.8921 68.7733 23.1411 68.7013 23.3211 68.5573C23.5011 68.4133 23.6301 68.2423 23.7081 68.0443C23.7861 67.8463 23.8251 67.6633 23.8251 67.4953C23.8251 67.2493 23.7921 67.0303 23.7261 66.8383C23.6661 66.6403 23.5581 66.4873 23.4021 66.3793C23.2461 66.2653 23.0301 66.2083 22.7541 66.2083C22.4841 66.2083 22.2531 66.2803 22.0611 66.4243C21.8691 66.5623 21.7491 66.7063 21.7011 66.8563C21.7551 66.9163 21.7911 66.9763 21.8091 67.0363C21.8331 67.0963 21.8451 67.1593 21.8451 67.2253C21.8451 67.2973 21.8151 67.3813 21.7551 67.4773C21.6951 67.5733 21.5871 67.6183 21.4311 67.6123C21.3051 67.6123 21.2091 67.5673 21.1431 67.4773C21.0771 67.3873 21.0441 67.2793 21.0441 67.1533C21.0441 66.9853 21.1101 66.8023 21.2421 66.6043C21.3741 66.4003 21.5751 66.2263 21.8451 66.0823C22.1211 65.9323 22.4661 65.8573 22.8801 65.8573C23.2041 65.8573 23.5041 65.9083 23.7801 66.0103C24.0561 66.1123 24.2781 66.2803 24.4461 66.5143C24.6141 66.7423 24.6981 67.0453 24.6981 67.4233C24.6981 67.7053 24.5901 67.9843 24.3741 68.2603C24.1581 68.5303 23.7741 68.7523 23.2221 68.9263C23.7921 68.9863 24.2391 69.1693 24.5631 69.4753C24.8931 69.7813 25.0581 70.1683 25.0581 70.6363C25.0581 71.0443 24.9501 71.3833 24.7341 71.6533C24.5241 71.9173 24.2451 72.1153 23.8971 72.2473C23.5551 72.3793 23.1861 72.4453 22.7901 72.4453Z"/>
  <path d="M40.6775 28.019C40.6775 28.139 40.6745 28.253 40.6685 28.361C40.6685 28.469 40.6595 28.568 40.6415 28.658C40.7615 28.652 40.8785 28.649 40.9925 28.649C41.1065 28.643 41.2205 28.637 41.3345 28.631V29H39.0755V28.703H39.1385C39.4445 28.679 39.6395 28.568 39.7235 28.37C39.8135 28.166 39.8585 27.899 39.8585 27.569V27.263H37.1225V26.822L40.3805 22.556H40.6775V26.723L41.5865 26.732V27.263H40.6775V28.019ZM39.8405 23.834L37.7165 26.678L39.8585 26.705V23.834H39.8405Z"/>
  <path d="M66.1939 54.4453C65.8099 54.4453 65.4829 54.3823 65.2129 54.2563C64.9429 54.1243 64.7359 53.9623 64.5919 53.7703C64.4479 53.5783 64.3759 53.3953 64.3759 53.2213C64.3759 53.0833 64.4119 52.9693 64.4839 52.8793C64.5559 52.7833 64.6579 52.7323 64.7899 52.7263C64.9519 52.7143 65.0629 52.7593 65.1229 52.8613C65.1829 52.9573 65.2129 53.0473 65.2129 53.1313C65.2129 53.1913 65.2039 53.2513 65.1859 53.3113C65.1679 53.3713 65.1439 53.4283 65.1139 53.4823C65.1379 53.6263 65.2129 53.7463 65.3389 53.8423C65.4649 53.9323 65.6089 53.9983 65.7709 54.0403C65.9389 54.0823 66.0919 54.1003 66.2299 54.0943C66.5239 54.0823 66.7609 54.0043 66.9409 53.8603C67.1209 53.7103 67.2529 53.5213 67.3369 53.2933C67.4269 53.0653 67.4719 52.8253 67.4719 52.5733C67.4719 52.4053 67.4569 52.2193 67.4269 52.0153C67.4029 51.8113 67.3429 51.6193 67.2469 51.4393C67.1569 51.2533 67.0189 51.1003 66.8329 50.9803C66.6469 50.8603 66.3949 50.8003 66.0769 50.8003C65.9749 50.8003 65.8489 50.8123 65.6989 50.8363C65.5549 50.8603 65.4079 50.8963 65.2579 50.9443C65.1139 50.9923 64.9909 51.0493 64.8889 51.1153L64.6369 50.8813L64.6189 48.0013H66.9499C67.2919 48.0013 67.5259 47.9563 67.6519 47.8663C67.7839 47.7703 67.8499 47.6203 67.8499 47.4163H68.0929L68.0389 48.6043L65.0329 48.6673V50.6473C65.1769 50.5873 65.3629 50.5303 65.5909 50.4763C65.8249 50.4223 66.0739 50.3953 66.3379 50.3953C66.7099 50.3953 67.0249 50.4553 67.2829 50.5753C67.5469 50.6893 67.7599 50.8453 67.9219 51.0433C68.0899 51.2353 68.2129 51.4513 68.2909 51.6913C68.3689 51.9253 68.4079 52.1653 68.4079 52.4113C68.4079 52.8553 68.3029 53.2303 68.0929 53.5363C67.8889 53.8363 67.6189 54.0643 67.2829 54.2203C66.9469 54.3703 66.5839 54.4453 66.1939 54.4453Z"/>
</svg>
