<svg viewBox="0 0 249 107" fill="currentcolor" xmlns="http://www.w3.org/2000/svg">
  <g stroke="currentcolor">
    <path d="M149 6H249"/>
    <path d="M13 14H113"/>
    <path d="M63 100.603L113 14"/>
    <path d="M13 14H113"/>
    <g fill="none">
      <path d="M149 66H156V73"/>
      <path d="M175.125 73C175.125 68.3223 177.663 64.2374 181.437 62.0475"/>
      <path d="M47.5 24C47.5 36.9787 36.9787 47.5 24 47.5C11.0213 47.5 0.5 36.9787 0.5 24C0.5 11.0213 11.0213 0.5 24 0.5C36.9787 0.5 47.5 11.0213 47.5 24Z"/>
    </g>
    <g stroke-dasharray="2 2">
      <path d="M13 34H113"/>
      <path d="M63 100.603L13 14"/>
      <path d="M13 34H113"/>
      <path d="M63 100.603L13 14"/>
      <path d="M149 73H249"/>
      <path d="M149 6L206.735 106"/>
      <path d="M149 73V6"/>
    </g>
  </g>
  <path d="M56.166 9V8.703C56.478 8.691 56.685 8.595 56.787 8.415C56.895 8.235 56.949 7.989 56.949 7.677L56.922 3.429L55.842 4.122L55.662 3.861L57.417 2.556H57.723L57.732 8.019C57.732 8.133 57.729 8.244 57.723 8.352C57.723 8.46 57.717 8.556 57.705 8.64C57.831 8.634 57.957 8.628 58.083 8.622C58.209 8.616 58.335 8.61 58.461 8.604V9H56.166ZM61.5773 9.144C61.1213 9.144 60.7433 9.048 60.4433 8.856C60.1433 8.658 59.9093 8.4 59.7413 8.082C59.5733 7.758 59.4533 7.404 59.3813 7.02C59.3153 6.636 59.2823 6.255 59.2823 5.877C59.2823 5.499 59.3243 5.115 59.4083 4.725C59.4983 4.335 59.6363 3.978 59.8223 3.654C60.0083 3.324 60.2483 3.06 60.5423 2.862C60.8363 2.658 61.1933 2.556 61.6133 2.556C62.0513 2.556 62.4143 2.655 62.7023 2.853C62.9963 3.051 63.2273 3.312 63.3953 3.636C63.5693 3.954 63.6923 4.305 63.7643 4.689C63.8363 5.073 63.8723 5.454 63.8723 5.832C63.8723 6.204 63.8303 6.585 63.7463 6.975C63.6623 7.365 63.5303 7.725 63.3503 8.055C63.1703 8.379 62.9333 8.643 62.6393 8.847C62.3513 9.045 61.9973 9.144 61.5773 9.144ZM61.6313 8.793C61.8893 8.793 62.1023 8.712 62.2703 8.55C62.4383 8.388 62.5703 8.172 62.6663 7.902C62.7683 7.632 62.8403 7.335 62.8823 7.011C62.9243 6.681 62.9453 6.351 62.9453 6.021C62.9453 5.655 62.9243 5.289 62.8823 4.923C62.8403 4.557 62.7683 4.221 62.6663 3.915C62.5643 3.609 62.4263 3.363 62.2523 3.177C62.0783 2.991 61.8593 2.898 61.5953 2.898C61.3373 2.898 61.1183 2.979 60.9383 3.141C60.7643 3.303 60.6233 3.519 60.5153 3.789C60.4073 4.059 60.3293 4.359 60.2813 4.689C60.2333 5.019 60.2093 5.352 60.2093 5.688C60.2093 5.94 60.2213 6.207 60.2453 6.489C60.2693 6.771 60.3113 7.05 60.3713 7.326C60.4373 7.596 60.5243 7.842 60.6323 8.064C60.7403 8.286 60.8753 8.463 61.0373 8.595C61.1993 8.727 61.3973 8.793 61.6313 8.793ZM67.1672 9.144C66.7112 9.144 66.3332 9.048 66.0332 8.856C65.7332 8.658 65.4992 8.4 65.3312 8.082C65.1632 7.758 65.0432 7.404 64.9712 7.02C64.9052 6.636 64.8722 6.255 64.8722 5.877C64.8722 5.499 64.9142 5.115 64.9982 4.725C65.0882 4.335 65.2262 3.978 65.4122 3.654C65.5982 3.324 65.8382 3.06 66.1322 2.862C66.4262 2.658 66.7832 2.556 67.2032 2.556C67.6412 2.556 68.0042 2.655 68.2922 2.853C68.5862 3.051 68.8172 3.312 68.9852 3.636C69.1592 3.954 69.2822 4.305 69.3542 4.689C69.4262 5.073 69.4622 5.454 69.4622 5.832C69.4622 6.204 69.4202 6.585 69.3362 6.975C69.2522 7.365 69.1202 7.725 68.9402 8.055C68.7602 8.379 68.5232 8.643 68.2292 8.847C67.9412 9.045 67.5872 9.144 67.1672 9.144ZM67.2212 8.793C67.4792 8.793 67.6922 8.712 67.8602 8.55C68.0282 8.388 68.1602 8.172 68.2562 7.902C68.3582 7.632 68.4302 7.335 68.4722 7.011C68.5142 6.681 68.5352 6.351 68.5352 6.021C68.5352 5.655 68.5142 5.289 68.4722 4.923C68.4302 4.557 68.3582 4.221 68.2562 3.915C68.1542 3.609 68.0162 3.363 67.8422 3.177C67.6682 2.991 67.4492 2.898 67.1852 2.898C66.9272 2.898 66.7082 2.979 66.5282 3.141C66.3542 3.303 66.2132 3.519 66.1052 3.789C65.9972 4.059 65.9192 4.359 65.8712 4.689C65.8232 5.019 65.7992 5.352 65.7992 5.688C65.7992 5.94 65.8112 6.207 65.8352 6.489C65.8592 6.771 65.9012 7.05 65.9612 7.326C66.0272 7.596 66.1142 7.842 66.2222 8.064C66.3302 8.286 66.4652 8.463 66.6272 8.595C66.7892 8.727 66.9872 8.793 67.2212 8.793Z"/>
  <path d="M92.666 63V62.703C92.978 62.691 93.185 62.595 93.287 62.415C93.395 62.235 93.449 61.989 93.449 61.677L93.422 57.429L92.342 58.122L92.162 57.861L93.917 56.556H94.223L94.232 62.019C94.232 62.133 94.229 62.244 94.223 62.352C94.223 62.46 94.217 62.556 94.205 62.64C94.331 62.634 94.457 62.628 94.583 62.622C94.709 62.616 94.835 62.61 94.961 62.604V63H92.666ZM98.0773 63.144C97.6213 63.144 97.2433 63.048 96.9433 62.856C96.6433 62.658 96.4093 62.4 96.2413 62.082C96.0733 61.758 95.9533 61.404 95.8813 61.02C95.8153 60.636 95.7823 60.255 95.7823 59.877C95.7823 59.499 95.8243 59.115 95.9083 58.725C95.9983 58.335 96.1363 57.978 96.3223 57.654C96.5083 57.324 96.7483 57.06 97.0423 56.862C97.3363 56.658 97.6933 56.556 98.1133 56.556C98.5513 56.556 98.9143 56.655 99.2023 56.853C99.4963 57.051 99.7273 57.312 99.8953 57.636C100.069 57.954 100.192 58.305 100.264 58.689C100.336 59.073 100.372 59.454 100.372 59.832C100.372 60.204 100.33 60.585 100.246 60.975C100.162 61.365 100.03 61.725 99.8503 62.055C99.6703 62.379 99.4333 62.643 99.1393 62.847C98.8513 63.045 98.4973 63.144 98.0773 63.144ZM98.1313 62.793C98.3893 62.793 98.6023 62.712 98.7703 62.55C98.9383 62.388 99.0703 62.172 99.1663 61.902C99.2683 61.632 99.3403 61.335 99.3823 61.011C99.4243 60.681 99.4453 60.351 99.4453 60.021C99.4453 59.655 99.4243 59.289 99.3823 58.923C99.3403 58.557 99.2683 58.221 99.1663 57.915C99.0643 57.609 98.9263 57.363 98.7523 57.177C98.5783 56.991 98.3593 56.898 98.0953 56.898C97.8373 56.898 97.6183 56.979 97.4383 57.141C97.2643 57.303 97.1233 57.519 97.0153 57.789C96.9073 58.059 96.8293 58.359 96.7813 58.689C96.7333 59.019 96.7093 59.352 96.7093 59.688C96.7093 59.94 96.7213 60.207 96.7453 60.489C96.7693 60.771 96.8113 61.05 96.8713 61.326C96.9373 61.596 97.0243 61.842 97.1323 62.064C97.2403 62.286 97.3753 62.463 97.5373 62.595C97.6993 62.727 97.8973 62.793 98.1313 62.793ZM103.667 63.144C103.211 63.144 102.833 63.048 102.533 62.856C102.233 62.658 101.999 62.4 101.831 62.082C101.663 61.758 101.543 61.404 101.471 61.02C101.405 60.636 101.372 60.255 101.372 59.877C101.372 59.499 101.414 59.115 101.498 58.725C101.588 58.335 101.726 57.978 101.912 57.654C102.098 57.324 102.338 57.06 102.632 56.862C102.926 56.658 103.283 56.556 103.703 56.556C104.141 56.556 104.504 56.655 104.792 56.853C105.086 57.051 105.317 57.312 105.485 57.636C105.659 57.954 105.782 58.305 105.854 58.689C105.926 59.073 105.962 59.454 105.962 59.832C105.962 60.204 105.92 60.585 105.836 60.975C105.752 61.365 105.62 61.725 105.44 62.055C105.26 62.379 105.023 62.643 104.729 62.847C104.441 63.045 104.087 63.144 103.667 63.144ZM103.721 62.793C103.979 62.793 104.192 62.712 104.36 62.55C104.528 62.388 104.66 62.172 104.756 61.902C104.858 61.632 104.93 61.335 104.972 61.011C105.014 60.681 105.035 60.351 105.035 60.021C105.035 59.655 105.014 59.289 104.972 58.923C104.93 58.557 104.858 58.221 104.756 57.915C104.654 57.609 104.516 57.363 104.342 57.177C104.168 56.991 103.949 56.898 103.685 56.898C103.427 56.898 103.208 56.979 103.028 57.141C102.854 57.303 102.713 57.519 102.605 57.789C102.497 58.059 102.419 58.359 102.371 58.689C102.323 59.019 102.299 59.352 102.299 59.688C102.299 59.94 102.311 60.207 102.335 60.489C102.359 60.771 102.401 61.05 102.461 61.326C102.527 61.596 102.614 61.842 102.722 62.064C102.83 62.286 102.965 62.463 103.127 62.595C103.289 62.727 103.487 62.793 103.721 62.793Z"/>
  <path d="M34.9567 65.205C34.9147 65.457 34.8757 65.724 34.8397 66.006C34.8097 66.282 34.7827 66.522 34.7587 66.726C34.7167 67.122 34.6747 67.533 34.6327 67.959C34.5907 68.385 34.5457 68.838 34.4977 69.318H34.5247C34.6447 68.886 34.7767 68.541 34.9207 68.283C35.0647 68.025 35.2147 67.833 35.3707 67.707C35.5267 67.581 35.6797 67.5 35.8297 67.464C35.9857 67.422 36.1297 67.401 36.2617 67.401C36.5377 67.401 36.7567 67.479 36.9187 67.635C37.0867 67.791 37.2067 67.995 37.2787 68.247C37.3507 68.493 37.3867 68.763 37.3867 69.057C37.3867 69.471 37.3387 69.861 37.2427 70.227C37.1527 70.593 37.0087 70.917 36.8107 71.199C36.6127 71.481 36.3547 71.703 36.0367 71.865C35.7187 72.021 35.3377 72.099 34.8937 72.099C34.7437 72.099 34.5547 72.084 34.3267 72.054C34.1047 72.03 33.9007 71.982 33.7147 71.91C33.7567 71.322 33.7927 70.794 33.8227 70.326C33.8527 69.858 33.8797 69.411 33.9037 68.985C33.9337 68.559 33.9637 68.127 33.9937 67.689C34.0297 67.251 34.0687 66.771 34.1107 66.249C34.1227 66.093 34.1317 65.994 34.1377 65.952C34.1437 65.91 34.1527 65.85 34.1647 65.772C34.0567 65.778 33.9487 65.784 33.8407 65.79C33.7327 65.796 33.6247 65.802 33.5167 65.808L33.5527 65.448C33.8167 65.448 34.0237 65.436 34.1737 65.412C34.3237 65.388 34.4347 65.358 34.5067 65.322C34.5847 65.286 34.6477 65.247 34.6957 65.205H34.9567ZM36.0007 67.824C35.8327 67.83 35.6677 67.917 35.5057 68.085C35.3497 68.247 35.2057 68.463 35.0737 68.733C34.9417 68.997 34.8247 69.294 34.7227 69.624C34.6207 69.948 34.5397 70.281 34.4797 70.623C34.4197 70.959 34.3867 71.277 34.3807 71.577C34.4527 71.649 34.5517 71.703 34.6777 71.739C34.8097 71.769 34.9327 71.784 35.0467 71.784C35.3767 71.778 35.6437 71.691 35.8477 71.523C36.0577 71.349 36.2167 71.13 36.3247 70.866C36.4387 70.596 36.5167 70.308 36.5587 70.002C36.6007 69.696 36.6187 69.405 36.6127 69.129C36.6067 68.721 36.5557 68.4 36.4597 68.166C36.3637 67.926 36.2107 67.812 36.0007 67.824Z"/>
  <path d="M28.9957 22.401C29.1757 22.401 29.3737 22.416 29.5897 22.446C29.8057 22.47 30.0097 22.506 30.2017 22.554C30.1417 23.028 30.0787 23.502 30.0127 23.976C29.9527 24.45 29.9017 24.876 29.8597 25.254C29.8237 25.626 29.8057 25.911 29.8057 26.109C29.8057 26.229 29.8147 26.349 29.8327 26.469C29.8507 26.589 29.9257 26.649 30.0577 26.649C30.1597 26.649 30.2707 26.583 30.3907 26.451C30.5167 26.319 30.6247 26.094 30.7147 25.776L30.9667 25.83C30.9487 25.938 30.9097 26.064 30.8497 26.208C30.7957 26.346 30.7207 26.484 30.6247 26.622C30.5287 26.76 30.4117 26.874 30.2737 26.964C30.1357 27.054 29.9767 27.099 29.7967 27.099C29.5567 27.099 29.3857 27.024 29.2837 26.874C29.1817 26.724 29.1307 26.529 29.1307 26.289C29.1307 26.115 29.1457 25.926 29.1757 25.722C29.2117 25.518 29.2507 25.305 29.2927 25.083H29.2657C29.1217 25.527 28.9717 25.884 28.8157 26.154C28.6657 26.418 28.5127 26.619 28.3567 26.757C28.2067 26.895 28.0597 26.985 27.9157 27.027C27.7717 27.075 27.6367 27.099 27.5107 27.099C27.1867 27.099 26.9137 26.979 26.6917 26.739C26.4757 26.499 26.3677 26.097 26.3677 25.533C26.3677 25.113 26.4217 24.714 26.5297 24.336C26.6377 23.958 26.7997 23.625 27.0157 23.337C27.2377 23.043 27.5137 22.815 27.8437 22.653C28.1737 22.485 28.5577 22.401 28.9957 22.401ZM28.7167 22.725C28.4467 22.725 28.2097 22.8 28.0057 22.95C27.8077 23.1 27.6427 23.304 27.5107 23.562C27.3787 23.814 27.2797 24.099 27.2137 24.417C27.1537 24.729 27.1237 25.05 27.1237 25.38C27.1237 25.764 27.1657 26.082 27.2497 26.334C27.3337 26.58 27.4867 26.703 27.7087 26.703C27.8707 26.703 28.0327 26.622 28.1947 26.46C28.3627 26.298 28.5187 26.082 28.6627 25.812C28.8067 25.536 28.9357 25.23 29.0497 24.894C29.1637 24.552 29.2537 24.204 29.3197 23.85C29.3857 23.496 29.4187 23.157 29.4187 22.833C29.2387 22.761 29.0047 22.725 28.7167 22.725Z"/>
  <path d="M179.996 37.901C180.176 37.901 180.374 37.916 180.59 37.946C180.806 37.97 181.01 38.006 181.202 38.054C181.142 38.528 181.079 39.002 181.013 39.476C180.953 39.95 180.902 40.376 180.86 40.754C180.824 41.126 180.806 41.411 180.806 41.609C180.806 41.729 180.815 41.849 180.833 41.969C180.851 42.089 180.926 42.149 181.058 42.149C181.16 42.149 181.271 42.083 181.391 41.951C181.517 41.819 181.625 41.594 181.715 41.276L181.967 41.33C181.949 41.438 181.91 41.564 181.85 41.708C181.796 41.846 181.721 41.984 181.625 42.122C181.529 42.26 181.412 42.374 181.274 42.464C181.136 42.554 180.977 42.599 180.797 42.599C180.557 42.599 180.386 42.524 180.284 42.374C180.182 42.224 180.131 42.029 180.131 41.789C180.131 41.615 180.146 41.426 180.176 41.222C180.212 41.018 180.251 40.805 180.293 40.583H180.266C180.122 41.027 179.972 41.384 179.816 41.654C179.666 41.918 179.513 42.119 179.357 42.257C179.207 42.395 179.06 42.485 178.916 42.527C178.772 42.575 178.637 42.599 178.511 42.599C178.187 42.599 177.914 42.479 177.692 42.239C177.476 41.999 177.368 41.597 177.368 41.033C177.368 40.613 177.422 40.214 177.53 39.836C177.638 39.458 177.8 39.125 178.016 38.837C178.238 38.543 178.514 38.315 178.844 38.153C179.174 37.985 179.558 37.901 179.996 37.901ZM179.717 38.225C179.447 38.225 179.21 38.3 179.006 38.45C178.808 38.6 178.643 38.804 178.511 39.062C178.379 39.314 178.28 39.599 178.214 39.917C178.154 40.229 178.124 40.55 178.124 40.88C178.124 41.264 178.166 41.582 178.25 41.834C178.334 42.08 178.487 42.203 178.709 42.203C178.871 42.203 179.033 42.122 179.195 41.96C179.363 41.798 179.519 41.582 179.663 41.312C179.807 41.036 179.936 40.73 180.05 40.394C180.164 40.052 180.254 39.704 180.32 39.35C180.386 38.996 180.419 38.657 180.419 38.333C180.239 38.261 180.005 38.225 179.717 38.225Z"/>
  <path d="M132.414 42.5C132.414 42.182 132.462 41.9 132.558 41.654C132.66 41.408 132.795 41.183 132.963 40.979C133.131 40.769 133.32 40.568 133.53 40.376C133.746 40.178 133.965 39.971 134.187 39.755C134.577 39.383 134.859 39.038 135.033 38.72C135.207 38.402 135.294 38.096 135.294 37.802C135.294 37.574 135.261 37.355 135.195 37.145C135.135 36.929 135.024 36.752 134.862 36.614C134.7 36.476 134.475 36.407 134.187 36.407C133.941 36.407 133.722 36.47 133.53 36.596C133.338 36.716 133.209 36.866 133.143 37.046C133.203 37.106 133.245 37.172 133.269 37.244C133.293 37.31 133.305 37.376 133.305 37.442C133.305 37.52 133.272 37.613 133.206 37.721C133.14 37.823 133.026 37.871 132.864 37.865C132.732 37.859 132.63 37.808 132.558 37.712C132.486 37.616 132.45 37.502 132.45 37.37C132.45 37.196 132.519 37.007 132.657 36.803C132.801 36.599 133.011 36.425 133.287 36.281C133.569 36.131 133.917 36.056 134.331 36.056C134.649 36.056 134.952 36.107 135.24 36.209C135.528 36.311 135.762 36.482 135.942 36.722C136.128 36.956 136.221 37.277 136.221 37.685C136.221 37.991 136.086 38.342 135.816 38.738C135.552 39.128 135.099 39.584 134.457 40.106C134.049 40.442 133.713 40.76 133.449 41.06C133.191 41.354 133.041 41.606 132.999 41.816L134.592 41.861C134.886 41.867 135.144 41.867 135.366 41.861C135.594 41.855 135.771 41.81 135.897 41.726C136.029 41.636 136.095 41.474 136.095 41.24H136.365L136.311 42.5H132.414ZM139.633 42.644C139.177 42.644 138.799 42.548 138.499 42.356C138.199 42.158 137.965 41.9 137.797 41.582C137.629 41.258 137.509 40.904 137.437 40.52C137.371 40.136 137.338 39.755 137.338 39.377C137.338 38.999 137.38 38.615 137.464 38.225C137.554 37.835 137.692 37.478 137.878 37.154C138.064 36.824 138.304 36.56 138.598 36.362C138.892 36.158 139.249 36.056 139.669 36.056C140.107 36.056 140.47 36.155 140.758 36.353C141.052 36.551 141.283 36.812 141.451 37.136C141.625 37.454 141.748 37.805 141.82 38.189C141.892 38.573 141.928 38.954 141.928 39.332C141.928 39.704 141.886 40.085 141.802 40.475C141.718 40.865 141.586 41.225 141.406 41.555C141.226 41.879 140.989 42.143 140.695 42.347C140.407 42.545 140.053 42.644 139.633 42.644ZM139.687 42.293C139.945 42.293 140.158 42.212 140.326 42.05C140.494 41.888 140.626 41.672 140.722 41.402C140.824 41.132 140.896 40.835 140.938 40.511C140.98 40.181 141.001 39.851 141.001 39.521C141.001 39.155 140.98 38.789 140.938 38.423C140.896 38.057 140.824 37.721 140.722 37.415C140.62 37.109 140.482 36.863 140.308 36.677C140.134 36.491 139.915 36.398 139.651 36.398C139.393 36.398 139.174 36.479 138.994 36.641C138.82 36.803 138.679 37.019 138.571 37.289C138.463 37.559 138.385 37.859 138.337 38.189C138.289 38.519 138.265 38.852 138.265 39.188C138.265 39.44 138.277 39.707 138.301 39.989C138.325 40.271 138.367 40.55 138.427 40.826C138.493 41.096 138.58 41.342 138.688 41.564C138.796 41.786 138.931 41.963 139.093 42.095C139.255 42.227 139.453 42.293 139.687 42.293Z"/>
  <path d="M193.155 68.144C192.621 68.144 192.195 68.018 191.877 67.766C191.565 67.514 191.34 67.157 191.202 66.695C191.07 66.227 191.004 65.675 191.004 65.039C191.004 64.823 191.022 64.568 191.058 64.274C191.1 63.974 191.172 63.668 191.274 63.356C191.376 63.038 191.517 62.744 191.697 62.474C191.883 62.198 192.12 61.976 192.408 61.808C192.696 61.64 193.044 61.556 193.452 61.556C193.812 61.556 194.109 61.622 194.343 61.754C194.577 61.88 194.751 62.033 194.865 62.213C194.985 62.387 195.045 62.549 195.045 62.699C195.045 62.825 195.012 62.933 194.946 63.023C194.886 63.107 194.79 63.155 194.658 63.167C194.508 63.173 194.403 63.131 194.343 63.041C194.283 62.951 194.253 62.867 194.253 62.789C194.253 62.663 194.289 62.537 194.361 62.411C194.331 62.303 194.235 62.189 194.073 62.069C193.917 61.949 193.716 61.889 193.47 61.889C193.194 61.889 192.96 61.961 192.768 62.105C192.582 62.249 192.429 62.438 192.309 62.672C192.195 62.906 192.105 63.158 192.039 63.428C191.973 63.692 191.925 63.947 191.895 64.193C191.871 64.439 191.856 64.649 191.85 64.823C192 64.625 192.201 64.451 192.453 64.301C192.711 64.145 193.014 64.067 193.362 64.067C193.722 64.067 194.022 64.13 194.262 64.256C194.508 64.376 194.703 64.535 194.847 64.733C194.997 64.931 195.102 65.15 195.162 65.39C195.228 65.624 195.261 65.855 195.261 66.083C195.261 66.455 195.168 66.8 194.982 67.118C194.802 67.43 194.553 67.679 194.235 67.865C193.917 68.051 193.557 68.144 193.155 68.144ZM193.173 67.793C193.455 67.793 193.683 67.724 193.857 67.586C194.031 67.442 194.157 67.256 194.235 67.028C194.313 66.794 194.352 66.545 194.352 66.281C194.352 66.113 194.337 65.927 194.307 65.723C194.277 65.513 194.22 65.315 194.136 65.129C194.058 64.937 193.941 64.781 193.785 64.661C193.629 64.535 193.425 64.472 193.173 64.472C192.987 64.472 192.804 64.52 192.624 64.616C192.444 64.706 192.285 64.826 192.147 64.976C192.015 65.126 191.919 65.288 191.859 65.462C191.877 65.75 191.91 66.032 191.958 66.308C192.012 66.584 192.087 66.833 192.183 67.055C192.285 67.277 192.417 67.457 192.579 67.595C192.741 67.727 192.939 67.793 193.173 67.793ZM198.502 68.144C198.046 68.144 197.668 68.048 197.368 67.856C197.068 67.658 196.834 67.4 196.666 67.082C196.498 66.758 196.378 66.404 196.306 66.02C196.24 65.636 196.207 65.255 196.207 64.877C196.207 64.499 196.249 64.115 196.333 63.725C196.423 63.335 196.561 62.978 196.747 62.654C196.933 62.324 197.173 62.06 197.467 61.862C197.761 61.658 198.118 61.556 198.538 61.556C198.976 61.556 199.339 61.655 199.627 61.853C199.921 62.051 200.152 62.312 200.32 62.636C200.494 62.954 200.617 63.305 200.689 63.689C200.761 64.073 200.797 64.454 200.797 64.832C200.797 65.204 200.755 65.585 200.671 65.975C200.587 66.365 200.455 66.725 200.275 67.055C200.095 67.379 199.858 67.643 199.564 67.847C199.276 68.045 198.922 68.144 198.502 68.144ZM198.556 67.793C198.814 67.793 199.027 67.712 199.195 67.55C199.363 67.388 199.495 67.172 199.591 66.902C199.693 66.632 199.765 66.335 199.807 66.011C199.849 65.681 199.87 65.351 199.87 65.021C199.87 64.655 199.849 64.289 199.807 63.923C199.765 63.557 199.693 63.221 199.591 62.915C199.489 62.609 199.351 62.363 199.177 62.177C199.003 61.991 198.784 61.898 198.52 61.898C198.262 61.898 198.043 61.979 197.863 62.141C197.689 62.303 197.548 62.519 197.44 62.789C197.332 63.059 197.254 63.359 197.206 63.689C197.158 64.019 197.134 64.352 197.134 64.688C197.134 64.94 197.146 65.207 197.17 65.489C197.194 65.771 197.236 66.05 197.296 66.326C197.362 66.596 197.449 66.842 197.557 67.064C197.665 67.286 197.8 67.463 197.962 67.595C198.124 67.727 198.322 67.793 198.556 67.793ZM203.102 64.364C202.82 64.364 202.574 64.301 202.364 64.175C202.16 64.049 202.001 63.878 201.887 63.662C201.773 63.446 201.716 63.209 201.716 62.951C201.716 62.693 201.779 62.459 201.905 62.249C202.037 62.039 202.211 61.871 202.427 61.745C202.643 61.619 202.877 61.556 203.129 61.556C203.411 61.556 203.654 61.619 203.858 61.745C204.068 61.871 204.23 62.039 204.344 62.249C204.458 62.459 204.515 62.693 204.515 62.951C204.515 63.209 204.449 63.446 204.317 63.662C204.191 63.878 204.02 64.049 203.804 64.175C203.594 64.301 203.36 64.364 203.102 64.364ZM203.12 63.896C203.366 63.896 203.564 63.803 203.714 63.617C203.87 63.425 203.948 63.203 203.948 62.951C203.948 62.705 203.87 62.486 203.714 62.294C203.564 62.096 203.363 61.997 203.111 61.997C202.865 61.997 202.664 62.096 202.508 62.294C202.358 62.486 202.283 62.705 202.283 62.951C202.283 63.203 202.358 63.425 202.508 63.617C202.664 63.803 202.868 63.896 203.12 63.896Z"/>
  <path d="M137.853 24.3536C138.049 24.1583 138.049 23.8417 137.853 23.6464L134.672 20.4645C134.476 20.2692 134.16 20.2692 133.964 20.4645C133.769 20.6597 133.769 20.9763 133.964 21.1716L136.793 24L133.964 26.8284C133.769 27.0237 133.769 27.3403 133.964 27.5355C134.16 27.7308 134.476 27.7308 134.672 27.5355L137.853 24.3536ZM48 24.5L137.5 24.5V23.5L48 23.5V24.5Z"/>
</svg>
