<svg xmlns="http://www.w3.org/2000/svg" viewBox="0 0 223.78 52.18"><title>rad</title><path d="M8.24,52.18a1.1,1.1,0,0,1,.45-0.4,4.08,4.08,0,0,0,.82-1c0.06-.15.21,0.21,0.47-0.27a13.49,13.49,0,0,1,1-2,2.87,2.87,0,0,0,.8-0.49c0.13-.3.37-0.73,0.47-1a1.64,1.64,0,0,1,.59-0.28c0.28-.24.65-0.84,0.86-1s-0.27-.47,0-0.61a9.47,9.47,0,0,0,.93-0.67A0.84,0.84,0,0,0,15,44.19l0.13-.3a0.69,0.69,0,0,1,0-.51c0.13,0,.26.23,0.51-0.08a8.93,8.93,0,0,0,1.14-1.58,1.37,1.37,0,0,1,.62-0.91A7.47,7.47,0,0,0,18.27,40a7.2,7.2,0,0,0,.91-1l0.54-.71c0.13-.18.54-0.3,0.64-0.47a0.35,0.35,0,0,1-.06.46,0.93,0.93,0,0,0,0,.44,0.47,0.47,0,0,0,0,.64,0.72,0.72,0,0,1,.11.67,2.84,2.84,0,0,0-.08.81,1.09,1.09,0,0,1-.17.72,3.31,3.31,0,0,0-.33,1.5,3.15,3.15,0,0,1,.07,1.09c0,0.49-.08.5,0.07,0.56s0.26-.2.37-0.46,0.19,0.39.27,0.6a2.5,2.5,0,0,1,0,.91,4,4,0,0,1-.3,1.11,1.26,1.26,0,0,0,.12.76,2.29,2.29,0,0,1-.21.8,2.1,2.1,0,0,0,.39,1,3.93,3.93,0,0,0,0,1,2.47,2.47,0,0,1,.11,1.2,1.87,1.87,0,0,1,0,.45,1.51,1.51,0,0,1-.09.17h7.61a15.72,15.72,0,0,0,.07-2.1,15.38,15.38,0,0,1,0-2c0.13-.59-0.33-0.61-0.18-1a2,2,0,0,0,.1-1.2,6.43,6.43,0,0,1-.2-2,6.22,6.22,0,0,0,.13-2.12,3.85,3.85,0,0,1,0-.95,13.65,13.65,0,0,1,0-1.58,8.46,8.46,0,0,1,.11-1,1.11,1.11,0,0,0,.18-1c-0.24-.4.17-1.1,0.05-1.51a1.36,1.36,0,0,1,.45-0.93,5.62,5.62,0,0,0,0-1.72,1.29,1.29,0,0,1-.12-0.82,0.87,0.87,0,0,0,0-.93c-0.19-.38.3-0.7,0.28-0.94s-0.29-.42,0-0.61a1.83,1.83,0,0,0,.5-1.32,1.44,1.44,0,0,0-.23-1c-0.19-.26.4-0.24,0.31-0.46a0.92,0.92,0,0,1-.1-0.75,0.34,0.34,0,0,0-.06-0.56c-0.25-.11.18-0.69,0.28-0.94a8.76,8.76,0,0,0,.13-2.12,1.68,1.68,0,0,1-.12-0.82,2.06,2.06,0,0,0,.2-1,7.66,7.66,0,0,1,.26-1.72,5.11,5.11,0,0,1,.19-1.28,3.79,3.79,0,0,0,.19-1.28,13.54,13.54,0,0,0,.13-1.42,0.86,0.86,0,0,1,0-.61A4.72,4.72,0,0,0,31,12.92a11.46,11.46,0,0,1,.14-1.59,1,1,0,0,0-.17-0.72,1.45,1.45,0,0,1,.13-0.71,1.48,1.48,0,0,0-.36-1.1c-0.29-.3.2-1,0.14-1.3a2,2,0,0,1,.09-0.9c0.08-.32-0.18-0.13-0.33-0.2a0.91,0.91,0,0,1-.42-0.53,0.76,0.76,0,0,1,0-.7s-0.48.56-.76,0.27,0.43-.46.06-0.62S29,4.08,28.71,4a0.76,0.76,0,0,1-.45-0.81c0-.44-0.65-0.54-1.1-0.73a10.19,10.19,0,0,1-2-1.3,2.14,2.14,0,0,0-1-.57A1.87,1.87,0,0,1,22.88.24,2,2,0,0,0,21,.24c-0.43.17-1.09,0-.6,0.57a1.93,1.93,0,0,1,.42,1.37,15.88,15.88,0,0,1-.09,2.08,5.56,5.56,0,0,0-.06,1.8,17.72,17.72,0,0,1-.24,2,2.06,2.06,0,0,1,0,.91,2.28,2.28,0,0,0,.08,1.27,13.21,13.21,0,0,1,.08,1.89,12,12,0,0,0,0,1.79c0.12,0.23,0,.2-0.09.53a2.76,2.76,0,0,0,0,1,3.43,3.43,0,0,1,0,.85c-0.07.38,0.27,1.35,0.21,1.59a0.77,0.77,0,0,0-.09.63,0.93,0.93,0,0,1,0,.76,1,1,0,0,0,.14.81,1.47,1.47,0,0,1-.23,1,15.51,15.51,0,0,0,0,2.12c0,0.57.12,1.07,0.1,1.32s-0.39.1-.27,0.42a4.37,4.37,0,0,1,.15,1,3.59,3.59,0,0,1-.14,1.27c-0.1.44-.15,1.08-0.19,1.38v0.29A6.49,6.49,0,0,0,19,27.76a12.64,12.64,0,0,0-1.53-.56c-0.6-.25-0.59-0.07-1-0.26s-0.1.66-.2,0.89a8.43,8.43,0,0,1-.63,1.06c-0.23.34-2.27,3.28-3.16,4.32s-1.55,2.61-1.86,2.92a13.41,13.41,0,0,0-1,1,4.65,4.65,0,0,1-.37,1.08,3.89,3.89,0,0,1-.92,1.12,2.29,2.29,0,0,0-.87.6c-0.2.27,0.15,0.21,0,.63A7.43,7.43,0,0,1,6.7,41.7a1.36,1.36,0,0,1-.4,1c-0.34.09,0,.48-0.38,0.61a1.32,1.32,0,0,0-.78.73,2.69,2.69,0,0,1-.44,1,1.37,1.37,0,0,0-.33.63c-0.24.43-.5,0.61-0.62,0.91a2.15,2.15,0,0,1-.38.61c-0.11.13,0.23,0.16,0,.48a6.07,6.07,0,0,0-.59,1,0.53,0.53,0,0,1-.24.43c-0.23.14-.08,0.73-0.34,0.8a1.48,1.48,0,0,0-.78.73,1.1,1.1,0,0,1-.6.57C0.61,51.24.68,52,.43,51.93a0.5,0.5,0,0,0-.43.25H8.24Z" fill="#21252b"/><path d="M98.47,42.19a17.76,17.76,0,0,0-.68,2c-0.33.92-.8,2.43-1.09,3.13a7.19,7.19,0,0,0-.5,2.44,11.13,11.13,0,0,0-.33,2.42h4.36a8.78,8.78,0,0,1-.09-1.44,5.43,5.43,0,0,1,.51-1.9A3.58,3.58,0,0,0,101,47a3.13,3.13,0,0,1,.39-1.6,7.67,7.67,0,0,1,.77-1.26,2.84,2.84,0,0,0,.53-1.25,2.63,2.63,0,0,1,.51-1.2,4,4,0,0,0-.08-1.33,5.62,5.62,0,0,0-.42-1.65c-0.18-.55-0.1-0.75-0.42-0.83a5.45,5.45,0,0,0-1.18.15c-0.48,0-.63.09-0.73,0.46a5.18,5.18,0,0,1-.87,1.63A13,13,0,0,0,98.47,42.19Z" fill="#21252b"/><path d="M100.58,52.18h3.75a4,4,0,0,0,.41-0.34,20.61,20.61,0,0,1,1.51-1.48,5.21,5.21,0,0,0,1.41-1.44c0.5-.76,1-1.26,1.21-1.61a16.6,16.6,0,0,0,1.25-1.5,4,4,0,0,1,1-1.08,3.88,3.88,0,0,0,.39-0.39c0.13,0.74.25,1.4,0.29,1.71a28.22,28.22,0,0,1,.2,2.85c0,0.83-.28,2.59-0.29,3.18,0,0,0,.07,0,0.1H122c-0.13-.74-0.35-2.18-0.53-3.08a18.31,18.31,0,0,1-.19-1.91,10.13,10.13,0,0,0-.38-1.46,2.29,2.29,0,0,0,0-1.1,11.74,11.74,0,0,0-.37-2c-0.29-.71-0.51-2-0.82-2.65s-0.54-2.06-.72-2.19a1.89,1.89,0,0,1-.56-0.77c-0.14-.36.18-1,0-1.29A1.38,1.38,0,0,1,118,35a6.17,6.17,0,0,0-.51-2,2,2,0,0,1,0-1.72c0.18-.28-0.41-1.12-0.37-1.63a3,3,0,0,0-.17-2,7.75,7.75,0,0,1-.7-1.41,8.49,8.49,0,0,0-.63-1.15,4.77,4.77,0,0,0-1.28-1,2.48,2.48,0,0,0-1.39-.47,0.53,0.53,0,0,1-.52-0.16c-0.21-.16-0.29,0-0.56.06s-0.44-.07-0.93,0a0.55,0.55,0,0,0-.59.69c0,0.43-.31,1.28-0.29,1.65a6.35,6.35,0,0,1-.59,1.81,20.19,20.19,0,0,0-.34,2.33,8.63,8.63,0,0,0,.12,1.94c0,0.63.59,2.78,0.78,3.86s0.83,2.77.91,3.27c0,0.34.15,0.82,0.19,1.41a3.49,3.49,0,0,0-.57,1,6.73,6.73,0,0,1-1.15,2.08,9.43,9.43,0,0,1-2,1.88,10.28,10.28,0,0,1-.71.85c-0.31.31-.22,0.52-0.48,0.5s-0.28.24-.33,0.57-0.64.26-.84,0.53a18.38,18.38,0,0,0-1.84,2A13.88,13.88,0,0,1,100.58,52.18Z" fill="#21252b"/><path d="M41.9,52.18c0-.08,0-0.16,0-0.24A6.71,6.71,0,0,1,42.69,50c0.21-.5.25-1,0.43-1.29S43,48.39,43,48.2a4.17,4.17,0,0,1,.72-0.58,5.92,5.92,0,0,0,.67-1c0.19-.45.27-1.18,0.41-1.65A6.75,6.75,0,0,1,46,43.26a2.55,2.55,0,0,0,.52-1c0.15-.35.3-1.4,0.43-1.7a1.45,1.45,0,0,1,.56-0.76,2.59,2.59,0,0,0,.76-1.09,8.33,8.33,0,0,1,1-1.57,1,1,0,0,0,.14-0.88c0.08-.32.31-0.87,0.39-1.19a1.67,1.67,0,0,0-.23-1.27,6,6,0,0,1-.6-1.08c-0.21-.33.15-0.76-0.05-0.85A1.79,1.79,0,0,1,48.37,31a2.2,2.2,0,0,0-.84-0.94c-0.33-.2-0.57-0.6-0.82-0.7a3.2,3.2,0,0,1-.94-0.57,3.37,3.37,0,0,1-.74-1,0.52,0.52,0,0,0-.73,0l0,0a3.56,3.56,0,0,1-1.14-.37,4,4,0,0,0-1.1-.17,1.24,1.24,0,0,1-.83-0.12,4,4,0,0,0-1-.44,2.85,2.85,0,0,0,.28,1,1.36,1.36,0,0,1-.15,1,5.11,5.11,0,0,1-.86,1.46c-0.36.44-.66,1.13-0.35,1.09s0.15,0.48.12,0.7-0.5.2-.24,0.43-0.09.49-.2,0.74a11.26,11.26,0,0,0-1,1.5,16.13,16.13,0,0,0-.64,1.5,9.54,9.54,0,0,1-1.22,2.19c-0.27.36-.33,0.63,0,0.39s0.18,0.55,0,1a2.17,2.17,0,0,1-.58.81c-0.21.21-.33,0.51-0.15,0.64s0.09,0.33-.18.57a1,1,0,0,0-.22.79c-0.06.27-.68,0.07-0.76,0.27a2.37,2.37,0,0,0-.1,1.2,4,4,0,0,1-.28,1.35,3.85,3.85,0,0,1-1,1.88c-0.36.14-.31,0.46,0,0.7s-0.07.44-.38,0.61-0.71,2.23-.77,2.79a6.76,6.76,0,0,1-.2.8H41.9Z" fill="#21252b"/><path d="M48.8,46.88a0.89,0.89,0,0,0,.07.68,0.34,0.34,0,0,1-.07.48h0a1,1,0,0,0-.46.81,11.55,11.55,0,0,1-1,1.81c-0.24.41-.6,0.92-1,1.51H57.08a3.67,3.67,0,0,1,.32-1.23,1.58,1.58,0,0,1,.29-0.82,1.9,1.9,0,0,0,.26-1.3c-0.14-.36.46-0.39,0.38-0.61a2.56,2.56,0,0,1,.36-0.85A7,7,0,0,1,59,46a1.7,1.7,0,0,0,.35-1c0-.36.48-0.56,0.52-1.08s0.67-.89.43-1.29,0.43-.88.37-1.14,0.27-.77.18-1,0.78-.73.76-1.09a4.32,4.32,0,0,1,.19-1.15,2.42,2.42,0,0,0-.42-1.36c-0.24-.4.08-1-0.11-1.4a3.56,3.56,0,0,1-.59-1,1.84,1.84,0,0,0-.64-1c-0.37-.39-0.59-0.84-1-1.3a8.34,8.34,0,0,0-1.81-1,5.58,5.58,0,0,0-1-.52,7.55,7.55,0,0,0-1.41-.42,2.48,2.48,0,0,0-1.15.34,0.71,0.71,0,0,1-.73,0,1.91,1.91,0,0,0-.93,0c-0.31,0-.22.38,0,0.61a0.89,0.89,0,0,1,.25.93c-0.1.37-.69,1.77-0.85,2.29s0,1-.14,1.71-0.73,2.28-.93,3a8.06,8.06,0,0,0-.29,1.65c0,0.51-.86,2.58-0.82,3.19S48.91,45.93,48.8,46.88Z" fill="#21252b"/><path d="M60,14.47a3.47,3.47,0,0,1,.93.45c0.31,0.25,0,1.17.06,1.67a5.13,5.13,0,0,0,.55.94c0.15,0.48.41,0.29,0.61,0.79a3.59,3.59,0,0,0,1,1.18c0.41,0.41,0,.68.2,0.91a9.83,9.83,0,0,1,1,1.32,5,5,0,0,0,.21.62,1.18,1.18,0,0,1,.58.72A9.82,9.82,0,0,1,65.71,25a1,1,0,0,0,.44.77c0.39,0.34-.15.35-0.51,0.79s-0.2.33,0,.63a1.2,1.2,0,0,1,.24.69,0.8,0.8,0,0,0,.24.69,6.64,6.64,0,0,1,.65,1.81c0.19,0.67.69,2.53,0.77,2.92a7.77,7.77,0,0,1-.13,1,3.8,3.8,0,0,0,.29,1.12,6.72,6.72,0,0,0,.46,1.78A1.32,1.32,0,0,1,68,38.55c-0.18.57-.11,1-0.29,1.52a13,13,0,0,0,0,2.17C67.7,42.8,68,43.34,68,43.93a21.24,21.24,0,0,1-.64,3,30.4,30.4,0,0,1-.62,3.27c-0.21.5-.5,1.28-0.79,2H69.8c0-.11.08-0.22,0.1-0.33a7.86,7.86,0,0,1,.56-1.18c0.21-.5.36-1.26,0.57-1.76s0.83-2.54,1.2-3.72v0.43a9.22,9.22,0,0,0,.82,2c0.17,0.43.64,1.42,0.93,2a8.15,8.15,0,0,0,1.57,1.73c0.38,0.34.68,0.47,0.51,0.66l-0.18.17H91A0.92,0.92,0,0,0,91,51.63a1.28,1.28,0,0,0-.43-1.07,0.65,0.65,0,0,1-.41-0.7A4.57,4.57,0,0,0,89,48.37,4.14,4.14,0,0,0,86.83,47a2,2,0,0,1-1.27-.54c-0.39-.34-0.62,0-1,0.1a4.44,4.44,0,0,0-1.33.85,3.63,3.63,0,0,1-3.28,0c-0.6-.25.07-0.59,0.31-0.93a13.65,13.65,0,0,0,.87-1.22,11.3,11.3,0,0,1,1.53-1.79c0.28-.24.69-0.59,1.08-0.87s1.1-1.13,1.73-1.57a25.56,25.56,0,0,0,2.31-2.11c0.17-.19,1-0.57,1.26-0.88a8.49,8.49,0,0,1,1.6-.65A22.1,22.1,0,0,0,92.56,36a3.74,3.74,0,0,0,1.32-1c0.16-.37.82-0.27,1.34-0.67a24.39,24.39,0,0,1,2.3-1.68c0.57-.29.57-0.73,1-0.9a1.32,1.32,0,0,0,.27-1.48,2,2,0,0,1,.11-1.1,1.7,1.7,0,0,1,1-.1c0.38,0.16.53-.22,0.27-0.42A3.64,3.64,0,0,1,99.71,27a1.25,1.25,0,0,0-1-1.11c-0.44,0-.48-0.12-0.55-0.59a1.28,1.28,0,0,0-.84-1.15c-0.44,0-.27-0.2-0.69-0.47a0.9,0.9,0,0,0-1.24,0l-0.69.59a5.67,5.67,0,0,1-1.59.83,4.81,4.81,0,0,1-1.75.58,4,4,0,0,0-1.59.83c-0.6.37-2.61,1.37-3.07,1.61s-1.73,1-2.46,1.43-2.76,1.92-3.36,2.29a15.6,15.6,0,0,0-2.46,2c-0.51.58-2.54,2.46-2.81,2.87S74.79,38,74.43,38.61a3.32,3.32,0,0,1-.93.9V39.37c0.12-.83.22-1.5,0.35-2.21a14.92,14.92,0,0,1,.58-2,6.1,6.1,0,0,0,0-1.94,8.31,8.31,0,0,0,.09-1.73,0.41,0.41,0,0,1,0-.68c0.36-.14.1-0.66,0.25-1.13a1.32,1.32,0,0,0-.15-0.77,1.66,1.66,0,0,0,0-1c-0.18-.55-0.23-1.39-0.35-1.68a1.66,1.66,0,0,1-.17-0.84A12.48,12.48,0,0,0,74,23.4a18.1,18.1,0,0,0-.87-3.08,5.88,5.88,0,0,1-.57-1.3c0-.31-0.33-0.61-0.4-1a11.6,11.6,0,0,1-.73-1.9,0.32,0.32,0,0,0-.32-0.49,3.37,3.37,0,0,1-1.22-.46,1.71,1.71,0,0,0-.93,0,1.11,1.11,0,0,1-.85-0.77,1.13,1.13,0,0,0-1.21-.63,8.37,8.37,0,0,1-1-.18A0.92,0.92,0,0,1,65,13.16a1.59,1.59,0,0,0-1.39-.06,6.81,6.81,0,0,0-1.5.48c-0.52.25-1,.23-1.48,0.43S59.68,14.36,60,14.47Z" fill="#21252b"/><path d="M196.06,37.67a8.36,8.36,0,0,0-2,2.71,5.14,5.14,0,0,0-.51,2.26,19.65,19.65,0,0,0,.89,3.12,1.54,1.54,0,0,0,.84,1.15c0.49,0.3.89,0.82,1.42,1.22a2.31,2.31,0,0,0,1.32.65,7.41,7.41,0,0,1,2.06.35c0.93,0.31,0,0-.42.35a13.31,13.31,0,0,0-1.55,1.37,9.69,9.69,0,0,1-1.39,1.33H209a7.58,7.58,0,0,1,.71-0.74,7.67,7.67,0,0,1,2.14-1.3,2.57,2.57,0,0,0,1.34-1.29,5.61,5.61,0,0,0,.52-2.25c0.17-.81-0.77-1.3-1-2.12A2.53,2.53,0,0,0,211.52,43a7.19,7.19,0,0,0-2-1,1.43,1.43,0,0,0-1.36.49,9.22,9.22,0,0,1-2.59.49,11.19,11.19,0,0,1-2.37,0c-1.13,0,.25-0.6.79-0.81a8.09,8.09,0,0,0,1.48-1.41,4,4,0,0,1,1.28-.52,13.36,13.36,0,0,0,1.66-.8,4,4,0,0,1,1.27-.7c0.39-.1.79-0.81,1.43-1.07a12.07,12.07,0,0,1,2.37-.59c0.36,0,.51-0.58.75-0.3s0.68-.15,1.35-0.49,0.72,0.39,1.46.09a9,9,0,0,1,2.2-.39c0.47-.07,1.15-0.22,1.55-0.32s1.36-.49,1.78-0.66,0.44-1,.74-1.54a6.49,6.49,0,0,0,.46-1.93,0.86,0.86,0,0,0-.42-0.89c-0.3-.13.18-0.63,0-1.06s-0.59-1.93-.91-2.86a5.16,5.16,0,0,0-1-1.58,2.71,2.71,0,0,0-1-.88c-0.3-.13-0.36.22-0.7,1-0.16.37-.66,0.52-1.74,0.76a66.58,66.58,0,0,0-7.88,2.75c-2.09,1-5.41,2.74-6.46,3.36s-1.38,1.18-1.92,1.4a7,7,0,0,0-1.93,1.21,19.47,19.47,0,0,1-2,1.7A6.73,6.73,0,0,0,196.06,37.67Z" fill="#21252b"/><path d="M131.55,52.18l0-.07c0.1-.37.41-0.83,0.49-1.15a1.46,1.46,0,0,1,.51-0.79,9.64,9.64,0,0,0,.74-1.46c0.44-.76,1-1.83,1.13-2.11a4.63,4.63,0,0,0,.13-0.71,1.76,1.76,0,0,0,.56-0.35,9.11,9.11,0,0,0,.79-1.31,5,5,0,0,1,.28-0.44l0.15,0.39a6.06,6.06,0,0,0,1.24,1.53,11.9,11.9,0,0,0,1,.84,4.42,4.42,0,0,0,1.33.62,5.53,5.53,0,0,0,1.58,0,12.74,12.74,0,0,0,1.32-.21l1.3-.27c-0.13.35-.25,0.66-0.32,0.87-0.21.62-.09,0.49-0.29,1.11a7.07,7.07,0,0,1-.59,1.32h0c-0.22.38-.6,0.57-0.86,1a10.81,10.81,0,0,0-.49,1.18h3.63a8.28,8.28,0,0,0,.6-1.62,7.12,7.12,0,0,0,.34-1.62c0-.63.14-1.3,0.13-1.83V46a2.63,2.63,0,0,0,.62-0.26,2.25,2.25,0,0,1,1.07-.31,2.09,2.09,0,0,0,.71-0.25c0.24-.1.51-0.15,1-0.37-0.32.8-.6,1.5-0.71,1.74-0.25.6-.8,0.63-0.84,1.15a3.13,3.13,0,0,1-.45,1.49,7.14,7.14,0,0,1-.85,1,6.61,6.61,0,0,0-1,2h8.83c0.53-.77,1.06-1.59,1.22-1.84a19,19,0,0,1,1.92-2c0.75-.74,1.68-2.29,2.09-2.65a26.72,26.72,0,0,0,2.08-2.83,8.71,8.71,0,0,0,.86-1.4,3,3,0,0,1,1-.83A7.52,7.52,0,0,0,165,38.95a12.51,12.51,0,0,1,1.24-1.68c0.4-.54,1.08-1.31,1.6-1.89a13.84,13.84,0,0,1,1.93-1.83,9.78,9.78,0,0,0,1.39-1.62,6.93,6.93,0,0,1,1.63-1.34c0.56-.29-0.16,1-0.43,1.85a19.56,19.56,0,0,1-1.14,2.26,6.72,6.72,0,0,1-1.47,2.21c-1,1-.35.82,0,1s0,0-.18.63a12.06,12.06,0,0,1-.85,1.58,16.7,16.7,0,0,1-1.58,2.69,1.18,1.18,0,0,0-.55,1.09c-0.06.77-.46,0.87-1,2s-1.34,1.91-1.66,2.66-0.8.63-.63,1.06-0.49,1.56-.77,2.23c-0.06.1-.09,0.22-0.15,0.33h7.79L172,50a22.24,22.24,0,0,0,1.86-1.68c0.71-.85,1.21-1.61,1.69-2.11s1.46-1.77,2.11-2.46,1.73-2,2.15-2.36a7,7,0,0,0,1-1.08,5.74,5.74,0,0,1,1-1.45,22.56,22.56,0,0,0,1.63-2c0.42-.39.7-1,1.22-1.43s1-.54.91-0.06a12.16,12.16,0,0,1-.62,1.68,11.63,11.63,0,0,1-1.39,2.16,16.73,16.73,0,0,0-1.7,3.17c-0.48,1.12-1.36,1.54-2,2.79a13,13,0,0,0-1.08,3.17c-0.17.81-.92,0.49-1.28,1.14A16.93,16.93,0,0,0,176,52.09l0,0.09h8c0.16-.28.32-0.56,0.49-0.83a5.29,5.29,0,0,0,.76-1.18c0.33-.57,0-0.73,0-0.73a7.83,7.83,0,0,0,.7-1,17.82,17.82,0,0,1,1.51-3.16,11.54,11.54,0,0,0,1.12-1.38c0.23-.34.74-1.54,1.18-2.15s0.73-1.1,1.11-1.56,0.37-1.08.64-1.41,0.66-.83,1-1.23a5.2,5.2,0,0,0,1.13-1.37,7.21,7.21,0,0,1,.82-1.11,1,1,0,0,1,.44-0.61,2.66,2.66,0,0,0,.45-1,11.76,11.76,0,0,1,.85-1.27c0.28-.45.25-0.91,0.44-1.14s0.33-.57.6-1a8.72,8.72,0,0,0,.57-1.75,1.58,1.58,0,0,0-.06-1.22c-0.2-.35,0-0.82-0.2-1.19s-0.39-.43-0.55-0.28a0.86,0.86,0,0,1-.9-0.47,3.75,3.75,0,0,0-.88-0.73,1.93,1.93,0,0,0-1.12-.17,3,3,0,0,0-1.64.23c-0.57.29-.38,0.68-1.12,1.38a1.64,1.64,0,0,0-.67,1.26,2,2,0,0,1-.87.91,2.53,2.53,0,0,0-1,1.14,2.14,2.14,0,0,1-.94,1,6.17,6.17,0,0,0-1.09,1.44,2.66,2.66,0,0,1-.43.7,11.77,11.77,0,0,0-1,1c-0.53.62-1.19,1-1.53,1.43a7,7,0,0,0-.68.77,22,22,0,0,1-1.83,1.68c-0.43.39-1.07,1.18-1.32,1.34a6.44,6.44,0,0,0-.53.53,3.36,3.36,0,0,0-.7.41,2.56,2.56,0,0,0-.54.75,4.67,4.67,0,0,1-.87.91,4.29,4.29,0,0,1-.62.62,2.13,2.13,0,0,1-.5.45,1,1,0,0,0-.54.74,1.26,1.26,0,0,1-.67.73c-0.42.35-.77,0.56-0.69,0.37a17.45,17.45,0,0,1,1-1.7c0.35-.51.43-0.7,0.76-1.18s0.81-1.29,1.14-1.86A12.88,12.88,0,0,0,178,37.7c0.24-.56.7-1.25,1-1.79a10.16,10.16,0,0,1,.6-1.21,1.39,1.39,0,0,0,.16-0.9,4.45,4.45,0,0,1,.52-1.55,1.89,1.89,0,0,0,.28-0.76,3,3,0,0,1,.63-1.13A1.23,1.23,0,0,0,181,29c-0.16-.31-0.09-0.33-0.26-0.64a2.33,2.33,0,0,0-.83-0.82c-0.62-.5-0.88-0.85-1.39-1.3a2.9,2.9,0,0,0-.79-0.63,1.88,1.88,0,0,1-.71-0.13,2.3,2.3,0,0,0-1.09.07,1.55,1.55,0,0,0-.87.1c-0.43.17-.23-0.16-0.62-0.2s-0.63,0-.49.32a1,1,0,0,1,.07,1.09,2,2,0,0,1-1.26.76,0.81,0.81,0,0,0-.67.6,2.06,2.06,0,0,1-1,.64c-0.45.22-.08,0.61-0.48,0.86s-0.74.92-1.12,1.11a7.94,7.94,0,0,0-.92,1.2c-0.52.54-.81,1.07-1.11,1.36s-0.76.68-1.36,1.25-2.3,2.5-2.62,2.84A11.53,11.53,0,0,0,162.26,39a5.49,5.49,0,0,1-1,1.11,25.72,25.72,0,0,0-1.69,2.17c-0.54.71-2.31,2.67-2.58,3a3.79,3.79,0,0,0-.63.79,1.88,1.88,0,0,1-.74.63,2.86,2.86,0,0,0-.4.66,5.38,5.38,0,0,1-.41.83c-0.25.31-.45,0.22-0.37-0.1a3.36,3.36,0,0,0,.08-1,1.37,1.37,0,0,1,.64-0.26,5.86,5.86,0,0,0,.46-1.22,1.74,1.74,0,0,1,.69-1.06c0.28-.12.32-0.75,0.62-0.91a2.76,2.76,0,0,0,.75-1.21c0.19-.45.5-0.61,0.67-1s0.63-.79,1-1.42,0.64-1.08,1-1.71,0.72-1.28,1.12-1.94a9.65,9.65,0,0,0,.88-1.93,8.55,8.55,0,0,1,.59-1.11,18.34,18.34,0,0,1,.91-1.73,1.61,1.61,0,0,0,.2-1,4.71,4.71,0,0,0,.28-0.65,11.26,11.26,0,0,0,0-1.24,1.46,1.46,0,0,0-.5-1,1.76,1.76,0,0,0-.56-0.35,16.51,16.51,0,0,0-1.8-1.18,7.24,7.24,0,0,0-1.62-.34c-0.39,0-1.08-.1-1.42-0.13s-0.56-.35-0.78-0.1-0.14.25,0,.63a1.78,1.78,0,0,1-.23,1.52c-0.29.67-.63,0.44-0.79,0.81s-0.08.41-.43,1.23-0.93.93-1.11,1.56a0.58,0.58,0,0,0,.12.76c0.12,0.25-.7.41-0.54,0.65a1.36,1.36,0,0,1-.28,1.29c-0.36.64-.59,1-1,1.7a2.46,2.46,0,0,0-.38.9,1.56,1.56,0,0,1-.1,1.28,6.54,6.54,0,0,0-.7,1.65,1.48,1.48,0,0,1-.09.33,8.39,8.39,0,0,1-.77.6c-0.49.32-.41,0-0.58,0.4a5.38,5.38,0,0,1-1.41,1.52c-0.62.5-1.33,0.91-1.72,1.27a1.68,1.68,0,0,1-1,.29l0.15-.43a7.32,7.32,0,0,0,.43-2.53V38.89c0-.52.38-0.9,0.38-1.31a13.3,13.3,0,0,0,0-1.53,1,1,0,0,0-.59-0.84,8.08,8.08,0,0,1-.71-0.83c-0.29-.3-0.89-0.26-1.08-0.52a3.71,3.71,0,0,0-.66-0.81,4.73,4.73,0,0,1-.39-0.36l0.14-.16a3.59,3.59,0,0,0,.9-1.56,7.54,7.54,0,0,1,.2-1.45c0.14-.88,0-0.73-0.36-1.51a3.47,3.47,0,0,0-1-1.44c-0.68-.76-0.64-1-0.93-1.28a6.28,6.28,0,0,0-1.63-.46c-0.26.07-.53,0.13-0.47-0.14s-0.54-.38-0.71,0-0.5.2-.91,0.62-1.63,1.49-2.29,2.21-1.64,1.78-1.81,2.06-0.3.58-.67,1.31a8.16,8.16,0,0,1-.63,1.5c-0.47.68-.75,0.92-1,1.35a6.42,6.42,0,0,1-.57,1.35c-0.47.69-1.35,1.66-1.66,2.24a9.61,9.61,0,0,1-.82,1.24c-0.47.69-.6,1.28-1,1.86a6.23,6.23,0,0,0-.84,1.29,16.65,16.65,0,0,1-1.46,2.74,2.15,2.15,0,0,0-.51,1.2,8.21,8.21,0,0,1-.63,1.62,29.41,29.41,0,0,0-1.85,4c-0.09.31-.15,0.62-0.22,0.93h8.11Zm6.82-11.06a3.46,3.46,0,0,0,.08-0.52,6.17,6.17,0,0,0,.57-1.27c0.18-.57.69-0.65,1.13-1.29A3.33,3.33,0,0,1,141,37a1.07,1.07,0,0,0,.51-0.79,5.68,5.68,0,0,1,.92-1.46,5.72,5.72,0,0,1,.91.47,3.12,3.12,0,0,1,.9.79,10,10,0,0,1,.5,1c0.24,0.4.55,0.23,0.67,0.64a11.79,11.79,0,0,0,.13,1.23,4.19,4.19,0,0,1-.11,1.66,14.08,14.08,0,0,1-.43,2,11.07,11.07,0,0,0-.22,1.91v0.2l-0.51.22a2.91,2.91,0,0,1-.83.3,17.22,17.22,0,0,1-1.73.33,1.78,1.78,0,0,1-1.3-.26,5.19,5.19,0,0,1-1.22-1,3.38,3.38,0,0,1-.78-1.51A3.44,3.44,0,0,1,138.37,41.12Z" fill="#21252b"/></svg>