<svg role="img" viewBox="0 0 40 40" xmlns="http://www.w3.org/2000/svg">
  <title>Knoword logo</title>
  <path d="M40,0 L40,40 L0,40 L0,0 L40,0 Z M31.5,8.5 L28.5,8.5 L28.5,27.5 L28.4932723,27.6166211 C28.4355072,28.1139598 28.0128358,28.5 27.5,28.5 C26.9477153,28.5 26.5,28.0522847 26.5,27.5 L26.5,27.5 L26.5,12.5 L26.4951047,12.3003597 C26.3910789,10.1839685 24.6421954,8.5 22.5,8.5 C20.290861,8.5 18.5,10.290861 18.5,12.5 L18.5,12.5 L18.5,27.5 L18.4932723,27.6166211 C18.4355072,28.1139598 18.0128358,28.5 17.5,28.5 C16.9477153,28.5 16.5,28.0522847 16.5,27.5 L16.5,27.5 L16.5,22.5 L16.4951047,22.3003597 C16.3910789,20.1839685 14.6421954,18.5 12.5,18.5 C10.290861,18.5 8.5,20.290861 8.5,22.5 L8.5,22.5 L8.5,31.5 L11.5,31.5 L11.5,22.5 L11.5067277,22.3833789 C11.5644928,21.8860402 11.9871642,21.5 12.5,21.5 C13.0522847,21.5 13.5,21.9477153 13.5,22.5 L13.5,22.5 L13.5,27.5 L13.5048953,27.6996403 C13.6089211,29.8160315 15.3578046,31.5 17.5,31.5 C19.709139,31.5 21.5,29.709139 21.5,27.5 L21.5,27.5 L21.5,12.5 L21.5067277,12.3833789 C21.5644928,11.8860402 21.9871642,11.5 22.5,11.5 C23.0522847,11.5 23.5,11.9477153 23.5,12.5 L23.5,12.5 L23.5,27.5 L23.5048953,27.6996403 C23.6089211,29.8160315 25.3578046,31.5 27.5,31.5 C29.709139,31.5 31.5,29.709139 31.5,27.5 L31.5,27.5 L31.5,8.5 Z M15.625,7.87867966 L11.5,12.003 L11.5,8.5 L8.5,8.5 L8.5,15.625 L11.0606602,16.6856602 L17.7463203,10 L15.625,7.87867966 Z" />
</svg>