<svg viewBox="0 0 800 800" xmlns="http://www.w3.org/2000/svg">
  <path d="M400,0 C620.9139,0 800,179.0861 800,400 C800,620.9139 620.9139,800 400,800 C179.0861,800 0,620.9139 0,400 C0,179.0861 179.0861,0 400,0 Z M451.961723,144.559416 C435.766728,141.471754 419.250743,140.386308 402.786538,141.328896 L402.786538,141.328896 L400.866901,141.443966 C384.732174,142.484851 368.785329,145.506017 353.386888,150.440566 L353.386888,150.440566 L352.914413,150.591974 L351.584193,151.023569 C336.52786,155.968967 322.137315,162.74847 308.738558,171.210075 L308.738558,171.210075 L308.319296,171.474848 L307.129646,172.232361 C294.076191,180.612781 282.104568,190.567755 271.486225,201.873479 L271.486225,201.873479 L271.146979,202.234686 L270.20529,203.244872 C259.889501,214.394216 250.987888,226.771927 243.702985,240.098858 L243.702985,240.098858 L242.802167,241.757995 C235.778274,254.846119 230.395183,268.750142 226.77589,283.156273 L226.77589,283.156273 L226.328369,284.959146 C222.896032,299.081342 221.219918,313.573925 221.339256,328.109075 L221.339256,328.109075 L221.359405,329.936492 C221.58586,344.149468 223.567205,358.281978 227.259734,372.013691 L227.259734,372.013691 L227.742316,373.787702 C231.454549,387.166812 236.804996,400.039475 243.673593,412.113907 L243.673593,412.113907 L244.572118,413.682863 C251.37555,425.42415 259.604208,436.284009 269.072498,446.015762 L269.072498,446.015762 L269.417474,446.370338 L270.315828,447.286363 C279.635365,456.713844 290.085536,464.957939 301.429959,471.830866 L301.429959,471.830866 L301.8531,472.087222 L302.961796,472.752704 C314.074699,479.361122 325.962898,484.576316 338.357425,488.279126 L338.357425,488.279126 L340.082217,488.788621 C352.186664,492.293059 364.679262,494.29429 377.277324,494.745863 L377.277324,494.745863 L377.771561,494.763579 L379.042179,494.803718 C391.324806,495.139484 403.603699,493.960486 415.600233,491.292259 L415.600233,491.292259 L417.290639,490.910886 C428.954377,488.212318 440.241312,484.084943 450.894478,478.621379 L450.894478,478.621379 L451.333912,478.396012 L452.404592,477.841128 C462.730184,472.433913 472.347972,465.771417 481.038111,458.00436 L481.038111,458.00436 L482.307258,456.862833 C490.684731,449.241018 498.087191,440.612475 504.344953,431.172977 L504.344953,431.172977 L504.617243,430.762242 L505.264799,429.775986 C511.267009,420.545529 516.101914,410.606688 519.657891,400.186058 L519.657891,400.186058 L519.816867,399.720186 L520.195077,398.594968 C523.551922,388.453895 525.637911,377.934964 526.404179,367.278476 L526.404179,367.278476 L526.439448,366.787987 L526.516803,365.638235 C527.165259,355.288811 526.524909,344.897532 524.609376,334.702846 L524.609376,334.702846 L524.307164,333.122353 C522.358558,323.254041 519.188554,313.664621 514.869214,304.575133 L514.869214,304.575133 L514.658495,304.131703 L514.171407,303.119225 C509.90859,294.365953 504.571409,286.175026 498.282075,278.735659 L498.282075,278.735659 L497.258909,277.533485 C491.102952,270.391954 484.07881,264.043578 476.348401,258.635856 L476.348401,258.635856 L475.946765,258.354896 L475.047894,257.732756 C467.532625,252.586428 459.402783,248.395697 450.846343,245.258471 L450.846343,245.258471 L450.386674,245.089932 L449.35307,244.717045 C441.070101,241.777422 432.450643,239.881846 423.694665,239.075299 L423.694665,239.075299 L423.207894,239.03046 L422.151028,238.938663 C413.693703,238.248488 405.181659,238.619079 396.813901,240.042817 L396.813901,240.042817 L396.332992,240.124642 L395.283429,240.309115 C387.245946,241.767019 379.42198,244.227192 371.995519,247.632982 L371.995519,247.632982 L371.553271,247.835798 L370.622585,248.268801 C363.506831,251.626967 356.842101,255.868694 350.786887,260.894517 L350.786887,260.894517 L350.413709,261.204255 L349.657242,261.839197 C343.885589,266.738132 338.757967,272.349239 334.397997,278.538996 L334.397997,278.538996 L334.119772,278.933986 L333.554126,279.746984 C329.441406,285.731803 326.107658,292.216667 323.634419,299.04553 L323.634419,299.04553 L323.470611,299.497822 L323.15206,300.393673 C320.85483,306.975566 319.411988,313.825973 318.859932,320.777303 C318.411103,326.428826 318.186425,332.095868 318.186425,337.765132 L318.186425,337.765132 L318.186425,356.091361 L318.189908,356.521319 C318.419509,370.682413 329.970615,382.091361 344.186425,382.091361 C358.545828,382.091361 370.186425,370.450765 370.186425,356.091361 L370.186425,356.091361 L370.186425,337.765132 L370.194404,336.154456 C370.231636,332.39649 370.399163,328.640772 370.696719,324.894044 C370.905222,322.268632 371.465525,319.68274 372.362786,317.205313 L372.362786,317.205313 L372.526594,316.753021 L372.766665,316.110808 C373.752985,313.552604 375.05094,311.123709 376.632077,308.879 L376.632077,308.879 L376.910302,308.48401 L377.324201,307.908058 C379.140859,305.42992 381.256608,303.182642 383.624498,301.217296 L383.624498,301.217296 L383.997676,300.907558 L384.563226,300.446474 C387.220647,298.318459 390.131195,296.523388 393.22981,295.102357 L393.22981,295.102357 L393.672057,294.899542 L394.399513,294.573584 C397.806675,293.082477 401.385127,292.012362 405.055219,291.387911 L405.055219,291.387911 L405.536129,291.306086 L406.335875,291.176708 C410.338833,290.562557 414.403213,290.43957 418.438162,290.811245 L418.438162,290.811245 L418.924933,290.856083 L419.792966,290.943154 C424.128418,291.413622 428.391073,292.410301 432.486111,293.91175 L432.486111,293.91175 L432.945781,294.080288 L433.768848,294.389204 C438.144824,296.069771 442.299411,298.277606 446.139911,300.964185 L446.139911,300.964185 L446.541547,301.245145 L447.305014,301.787918 C451.353721,304.712904 455.030885,308.119492 458.25475,311.932856 L458.25475,311.932856 L458.571475,312.307496 L459.172489,313.028845 C462.548045,317.139897 465.409109,321.646893 467.691737,326.450386 L467.691737,326.450386 L467.902455,326.893815 L468.300514,327.746366 C470.653574,332.876697 472.370655,338.275249 473.412955,343.822486 L473.412955,343.822486 L473.503685,344.305362 L473.680353,345.28207 C474.700376,351.148194 475.000547,357.117633 474.573362,363.058494 L474.573362,363.058494 L474.538093,363.548983 L474.460547,364.538367 C473.929206,370.800031 472.63423,376.975042 470.603372,382.926379 L470.603372,382.926379 L470.444396,383.39225 L470.118048,384.329792 C467.904564,390.565606 464.935572,396.509822 461.276102,402.029934 L461.276102,402.029934 L460.450139,403.265377 C456.541456,409.01475 451.941955,414.267042 446.753262,418.904583 L446.753262,418.904583 L446.385425,419.233348 L445.640595,419.891643 C440.152555,424.687966 434.095509,428.797022 427.604065,432.126212 L427.604065,432.126212 L426.238491,432.820081 C419.428858,436.21748 412.226959,438.771859 404.79293,440.42531 L404.79293,440.42531 L404.310451,440.532621 L403.297553,440.752265 C395.52434,442.394675 387.577463,443.081673 379.634286,442.796952 L379.634286,442.796952 L379.140049,442.779236 L378.06313,442.734911 C369.809969,442.351328 361.633517,440.961869 353.716169,438.596596 L353.716169,438.596596 L352.214646,438.142315 C344.008632,435.599492 336.144338,432.06354 328.797674,427.612623 L328.797674,427.612623 L328.374533,427.356267 L327.461947,426.797258 C319.881143,422.102404 312.904364,416.498017 306.688069,410.10875 L306.688069,410.10875 L306.343093,409.754174 L305.57473,408.956655 C299.205327,402.280425 293.678031,394.850574 289.116849,386.83239 L289.116849,386.83239 L288.331756,385.441744 C283.687359,377.095033 280.084436,368.211061 277.604307,358.988002 L277.604307,358.988002 L277.475855,358.510315 L277.185428,357.409602 C274.713783,347.859695 273.422564,338.042475 273.341565,328.17688 L273.341565,328.17688 L273.337503,327.682156 L273.333354,326.549281 C273.34238,316.354712 274.60298,306.198117 277.088042,296.306646 L277.088042,296.306646 L277.208637,295.826634 L277.49849,294.694703 C280.153098,284.520597 284.046708,274.707505 289.09346,265.475028 L289.09346,265.475028 L289.330984,265.040503 L289.893223,264.022575 C295.181741,254.546154 301.615237,245.750755 309.050735,237.833918 L309.050735,237.833918 L309.389981,237.472711 L310.213829,236.603191 C317.937601,228.522371 326.625876,221.415132 336.08513,215.441409 L336.08513,215.441409 L336.504392,215.176636 L337.549614,214.52293 C347.330414,208.465115 357.819631,203.624841 368.783308,200.111446 L368.783308,200.111446 L370.464604,199.578475 C381.760975,196.06696 393.44747,193.948714 405.263203,193.272254 L405.263203,193.272254 L405.75871,193.243886 L407.015605,193.177246 C419.166691,192.584395 431.346379,193.480023 443.282006,195.845203 L443.282006,195.845203 L443.768912,195.941689 L445.034735,196.19808 C457.258883,198.727777 469.127829,202.742945 480.375808,208.154807 L480.375808,208.154807 L480.823052,208.369994 L481.975364,208.930223 C493.474032,214.578781 504.236508,221.613632 514.021234,229.878092 L514.021234,229.878092 L514.400304,230.198265 L515.399468,231.049204 C525.354968,239.598226 534.223999,249.3336 541.80737,260.038196 L541.80737,260.038196 L542.094112,260.442957 L542.842246,261.507929 C550.528364,272.541777 556.830213,284.475869 561.605696,297.043346 L561.605696,297.043346 L561.781849,297.506923 L562.249947,298.753653 C567.035295,311.654004 570.218215,325.092667 571.726345,338.769057 L571.726345,338.769057 L571.924646,340.616581 C573.356465,354.618582 573.06326,368.744686 571.05034,382.678799 L571.05034,382.678799 L570.781132,384.506052 C568.611426,398.751207 564.69858,412.678835 559.129004,425.976459 L559.129004,425.976459 L558.398745,427.70626 C552.602273,441.252782 545.161936,454.040543 536.243212,465.782327 L536.243212,465.782327 L535.109779,467.266091 C525.90106,479.2041 515.257432,489.970502 503.416747,499.32267 L503.416747,499.32267 L503.027008,499.630499 L501.924517,500.494646 C489.76311,509.954133 476.482555,517.889427 462.38012,524.121235 L462.38012,524.121235 L461.925626,524.322074 L460.614843,524.895494 C446.174419,531.148852 431.017661,535.610673 415.484218,538.179512 L415.484218,538.179512 L413.59338,538.487025 C397.714272,540.995519 381.584696,541.548456 365.567001,540.132104 L365.567001,540.132104 L358.490194,539.506343 L357.40627,539.405384 C345.851594,538.274606 334.530366,535.420369 323.821171,530.93641 L323.821171,530.93641 L308.047225,524.33183 L307.163075,523.952272 C305.401876,523.177409 303.683695,522.308269 302.016055,521.348585 L302.016055,521.348585 L268.525932,502.07589 L268.071972,501.819516 C253.050774,493.496062 234.065405,498.712717 225.440611,513.64548 L225.440611,513.64548 L225.156982,514.147067 C222.647064,518.681882 221.292793,523.76561 221.214635,528.948651 L221.214635,528.948651 L221.000093,608.092687 L221.000093,608.522653 C221.194053,622.684311 232.714527,634.124191 246.930285,634.162309 L246.930285,634.162309 L247.360251,634.162309 C261.521909,633.968349 272.961789,622.447875 272.999907,608.232117 L272.999907,608.232117 L273.116,564.713 L276.079504,566.418479 L277.233798,567.073122 C280.708706,569.015104 284.291182,570.759253 287.964079,572.297102 L287.964079,572.297102 L303.738025,578.901681 L304.854683,579.36452 C309.234519,581.161487 313.683543,582.770839 318.189505,584.189551 L318.189505,584.189551 L318.189318,652.334624 L318.192801,652.764582 C318.422401,666.925676 329.973508,678.334624 344.189318,678.334624 C358.548721,678.334624 370.189318,666.694028 370.189318,652.334624 L370.189318,652.334624 L370.189393,592.571997 C387.999992,593.483005 405.866181,592.476365 423.47807,589.563804 L423.47807,589.563804 L425.419211,589.238306 C445.234053,585.838945 464.555024,580.010973 482.943559,571.885154 L482.943559,571.885154 L484.720199,571.095304 C502.763538,562.99195 519.737956,552.695158 535.257552,540.437263 L535.257552,540.437263 L536.788829,539.22208 C551.970461,527.078314 565.594845,513.109289 577.351957,497.630678 L577.351957,497.630678 L577.652193,497.235408 L578.515853,496.091053 C589.983043,480.799004 599.517043,464.150606 606.900254,446.522841 L606.900254,446.522841 L607.645718,444.731167 C614.789463,427.367218 619.760654,409.187688 622.445195,390.604383 L622.445195,390.604383 L622.719581,388.67188 C625.237341,370.404459 625.488964,351.894835 623.467391,333.562323 L623.467391,333.562323 L623.413039,333.069434 L623.247235,331.610566 C621.142498,313.626569 616.824859,295.968435 610.390799,279.036135 L610.390799,279.036135 L610.214646,278.572559 L609.697768,277.225861 C603.26818,260.639559 594.814005,244.906525 584.525611,230.383551 L584.525611,230.383551 L583.415977,228.82538 C573.220553,214.635269 561.310244,201.753401 547.953976,190.472315 L547.953976,190.472315 L546.480123,189.23386 C533.306365,178.260582 518.826838,168.949305 503.368505,161.51167 L503.368505,161.51167 L501.620021,160.676028 C486.415067,153.491558 470.379978,148.203839 453.876757,144.933538 L453.876757,144.933538 Z"></path>
</svg>