<svg viewBox="0 0 64 64" xmlns="http://www.w3.org/2000/svg">
  <path d="M1.05788062,23.599174 L40.2918948,62.7149265 C37.5839642,63.4825276 34.9004111,63.9007587 32.0319954,63.9007587 C23.186021,63.9007587 14.9784317,60.1949066 9.41325842,54.6465083 L0.0314875653,64 C0.0314875653,64 0,36.374465 0,31.9653162 C-3.55551722e-15,29.1055467 0.287958863,26.2989422 1.05788062,23.599174 Z M4.31074926,15.745441 C7.18322779,10.978821 11.008967,7.16461364 15.4416036,4.64813804 L59.3007348,48.3750663 C56.776651,52.7943417 52.9509118,56.6085491 48.1698805,59.4723692 L4.31074926,15.745441 Z M31.9309305,0 C49.6218635,-3.54479995e-15 64,14.2608723 64,31.8984802 C64,34.7582497 63.671412,37.4737142 62.9014903,40.1734824 L23.6674761,1.05772989 C26.3754067,0.290128878 29.0625149,-3.54479995e-15 31.9309305,0 Z"></path>
</svg>
