<svg xmlns="http://www.w3.org/2000/svg" viewBox="0 0 596.89 47"><title>rad</title><path d="M36.62,0l-0.71.21C35.2,0.4,34.55.4,34.33,0.52a3.91,3.91,0,0,1-1.18.41C32.59,1,32,1.22,32.09,1A1.71,1.71,0,0,1,32.5.23,2.1,2.1,0,0,1,32.66,0H18.58c-0.17.25-.31,0.44-0.39,0.53-0.33.39,0,.48,0,0.48a11.73,11.73,0,0,0-.76,1.62,4.42,4.42,0,0,1-.57,1.58,27.26,27.26,0,0,0-1.47,3c-0.35.74-.64,1-1,1.72A27.36,27.36,0,0,1,13,11.48a7,7,0,0,0-1,1.89c-0.25.78-1.5,2.91-2.33,4.85s-1.48,3.69-2,4.78S6.41,25.47,6,26.58a38.17,38.17,0,0,1-1.74,4.09,7.15,7.15,0,0,1-.73,1.4,1.78,1.78,0,0,0-.28.71,9.71,9.71,0,0,0-1.1,1.61A27.58,27.58,0,0,1,1,37.26,4.57,4.57,0,0,0,.24,39.4a1.78,1.78,0,0,1-.07,1.11A0.63,0.63,0,0,0,0,41.1c0,0.17.24,0.29,0.31,0.16a1.73,1.73,0,0,1-.11-0.48c0.1-.2.41-0.27,0.36,0a4.75,4.75,0,0,0,.15.56,3.07,3.07,0,0,1-.47.3,0.73,0.73,0,0,0,.12.64,1,1,0,0,1,.41.47,0.75,0.75,0,0,0,.37.67,1,1,0,0,0,.57-0.12,0.43,0.43,0,0,1,.45.2,0.69,0.69,0,0,0,.74.33,0.7,0.7,0,0,1,.65-0.25,1.6,1.6,0,0,0,.74.12c0-.08-0.15-0.39,0-0.4a3.13,3.13,0,0,0,.67,0,1.13,1.13,0,0,1,.73,0c0.33,0.11.55,0.09,0.52,0S6,43.08,6.18,43a0.19,0.19,0,0,1,.33.11c0,0.16,0,.4.16,0.31l0.21-.09A1.42,1.42,0,0,1,7.47,43,0.79,0.79,0,0,0,8,42.63c0.11-.16.07-0.39,0.29-0.34s0.42,0.1.4-.17a1,1,0,0,1,.16-0.64,0.78,0.78,0,0,0,0-.48,0.47,0.47,0,0,1,.35-0.32,0.33,0.33,0,0,0,.13-0.45h0a1.68,1.68,0,0,1,.19-0.76,5.25,5.25,0,0,1,.19-1.19,6,6,0,0,0,.52-0.71c0.07-.23-0.11,0-0.26,0s-0.36.25-.39,0.11a0.52,0.52,0,0,1,.2-0.45,0.64,0.64,0,0,0,.24-0.5A0.85,0.85,0,0,1,10.34,36a0.56,0.56,0,0,0,.47-0.36,0.59,0.59,0,0,1,.36-0.4,0.81,0.81,0,0,0,.46-0.67,1.36,1.36,0,0,1,0-.71c0.14-.25.51-0.57,0.29-0.52a2.38,2.38,0,0,0-.53.12L11,33.65c-0.12.08-.15-0.12,0-0.22a0.42,0.42,0,0,0,.31-0.34c0.07-.23.06-0.37-0.08-0.36s-0.34-.07-0.22-0.26,0.55-.28.48-0.11,0,0.52,0,.34a1.2,1.2,0,0,1,.24-0.32,2.46,2.46,0,0,1,.33-0.79,0.85,0.85,0,0,0,.49-0.42C12.5,31,12.49,31,12.33,31.09s-0.23.15-.14-0.1a2.82,2.82,0,0,1,.32-0.37,1.9,1.9,0,0,1,0-.52,3.45,3.45,0,0,1,.5-1,12.78,12.78,0,0,0,.76-1.25c0.16-.24.44-0.55,0.66-0.9a6.11,6.11,0,0,1,.72-0.87A17.1,17.1,0,0,0,16,24.39a2.86,2.86,0,0,1,.63-0.71c0.21-.2.37-0.49,0.62-0.74a0.52,0.52,0,0,0,.15-0.55,1.87,1.87,0,0,1,.43-0.75A1.36,1.36,0,0,0,18,20.82a0.45,0.45,0,0,1,.1-0.42,0.34,0.34,0,0,0,.14-0.4,1.23,1.23,0,0,0,0-.32c-0.08-.14.12-0.26,0.37-0.33a1,1,0,0,0,.53-0.67,4.22,4.22,0,0,0,.34-0.52,0.94,0.94,0,0,1,.16-0.62,1.88,1.88,0,0,0,.3-0.65,0.55,0.55,0,0,1,.35-0.43c0.22-.11,0-0.6.28-0.7A0.64,0.64,0,0,0,21,15.25a0.79,0.79,0,0,1,.48-0.62A1.27,1.27,0,0,0,22.36,14c0.3-.37.5-0.71,0.82-1.13a1.58,1.58,0,0,1,.68-0.67c0.22-.07.24,0.05,0.49,0.41s0.93,1.29,1.44,2,0.85,1.06,1.13,1.5a4.79,4.79,0,0,0,.71.87,5,5,0,0,1,.57.82,1.5,1.5,0,0,0,.54.74c0.1-.09.24-0.28,0.35-0.12a1,1,0,0,0,.25.41,0.26,0.26,0,0,1,.31.2h0a0.83,0.83,0,0,0,.39.57,3.28,3.28,0,0,1,.59.45,0.51,0.51,0,0,1,.25.47c0,0.25.06,0.46,0.19,0.4s0.18-.19.36,0,0.18,0.44.33,0.59a1,1,0,0,1,.6.41,3.32,3.32,0,0,0,.22.61c0.06,0.18.43,0.8,0.46,1a1.71,1.71,0,0,0,.63.51c0.26,0.21.61,0.33,0.72,0.44a1.26,1.26,0,0,0,.31.69,1.8,1.8,0,0,1,.67.46c0.21,0.19.85,0.51,1.08,0.69a10.11,10.11,0,0,1,.91.84,18.47,18.47,0,0,0,1.5,1.51q0.32,0.29.61,0.61a11.17,11.17,0,0,1,1,.76,5,5,0,0,0,1.2.89,4.51,4.51,0,0,0,1,.4c0.19,0,.48.43,0.79,0.55s0.72,0,1,.09,0.54,0.69.79,0.77a2.82,2.82,0,0,1,.81.12,4.84,4.84,0,0,0,1.72.4,10.25,10.25,0,0,0,1.38,0,7.24,7.24,0,0,1,1.11-.15,1.8,1.8,0,0,0,1-.29c0.25-.14.66-0.33,0.51-0.46s-0.84-.53-0.92-0.65a1.27,1.27,0,0,0-.64-0.6,2.89,2.89,0,0,1-.84-0.58,5.87,5.87,0,0,0-.7-0.65,12.51,12.51,0,0,1-1.46-.73,14.62,14.62,0,0,1-1.4-1,13,13,0,0,1-1.2-1A9.53,9.53,0,0,0,43.69,26,1.77,1.77,0,0,1,43,25.17,0.33,0.33,0,0,0,42.61,25h0a1.15,1.15,0,0,1-.33-0.5c-0.1-.13,0-0.63-0.2-0.49s-0.37.38-.45,0.19a1.17,1.17,0,0,1-.21-0.58c0-.28-0.17-0.35-0.27-0.26s-0.17,0-.24-0.27A3.25,3.25,0,0,0,40.25,22a3.13,3.13,0,0,1-1-.89C39,20.59,38.68,20,38.49,19.6a5.38,5.38,0,0,0-.63-1l-0.7-.83a2.09,2.09,0,0,1-.41-1c0-.31-0.44-0.48-0.68-1s-1.25-2.47-1.53-2.93a2.92,2.92,0,0,1-.66-1,4,4,0,0,0-.73-1.42,2,2,0,0,1-.4-0.77,1.77,1.77,0,0,0-.49-0.74c-0.16-.15-0.39-0.4-0.12-0.57a2.26,2.26,0,0,1,.66-0.4,2.25,2.25,0,0,0,.77-0.13,1.89,1.89,0,0,1,.87-0.2,8.43,8.43,0,0,0,.91.14,10.15,10.15,0,0,1,1-.36c0.21,0,.5.22,0.63,0a1.56,1.56,0,0,1,.72-0.17,4.43,4.43,0,0,1,1.21-.46A9.41,9.41,0,0,0,40,6.69a3.56,3.56,0,0,1,.89-0.42,7.35,7.35,0,0,1,1,.11,1.31,1.31,0,0,0,.74-0.21c0.18-.08.5,0.22,0.88,0.22A5.13,5.13,0,0,0,44.85,6a3.13,3.13,0,0,1,1.42-.22,2,2,0,0,0,1.09,0c0.26-.11.58-0.31,1-0.46s1.38-.57,1.95-0.78a7.37,7.37,0,0,1,1.31-.33,5.5,5.5,0,0,0,1.12-.34c0.24-.12.53-0.34,0.63-0.36s0.4,0,.38.15,0.1,0.3.33,0.06a0.84,0.84,0,0,1,.59-0.27l1-.69c0.11-.17,0-0.12-0.13,0a4.25,4.25,0,0,1-.66.35c-0.19,0-.33,0-0.24-0.27A0.63,0.63,0,0,1,55,2.3a3.75,3.75,0,0,0,.72-0.37C56,1.74,56.19,1.46,56,1.47s-0.27,0,.11-0.22a2.86,2.86,0,0,0,1-.59A5.27,5.27,0,0,1,57.65.15L57.79,0H36.62Z" fill="#21252b"/><path d="M217.14,26.8a1.2,1.2,0,0,1,.1-1.08,2.6,2.6,0,0,0,0-1.24c0-.43-0.22-0.74-0.35-1.39s0-1.12-.25-1.22a1.56,1.56,0,0,1-.39-1.17c0-.48-0.36-0.68-0.3-1a9,9,0,0,0,.21-1.33,6.67,6.67,0,0,1,.28-1.35,11.39,11.39,0,0,0,.14-1.71,11.06,11.06,0,0,1,0-2.14,15.72,15.72,0,0,0,.08-2.27,15.38,15.38,0,0,1,0-2c0.13-.59-0.33-0.61-0.18-1a2,2,0,0,0,.1-1.2,6.43,6.43,0,0,1-.2-2,6.22,6.22,0,0,0,.13-2.12,3.85,3.85,0,0,1,0-.95,13.65,13.65,0,0,1,0-1.58V0h-8a0.47,0.47,0,0,0,.1.16,0.72,0.72,0,0,1,.11.67,2.84,2.84,0,0,0-.08.81,1.09,1.09,0,0,1-.17.72,3.31,3.31,0,0,0-.33,1.5,3.15,3.15,0,0,1,.07,1.09c0,0.49-.08.5,0.07,0.56s0.26-.2.37-0.46,0.19,0.39.27,0.6a2.5,2.5,0,0,1,0,.91,4,4,0,0,1-.3,1.11,1.26,1.26,0,0,0,.12.76,2.29,2.29,0,0,1-.21.8,2.1,2.1,0,0,0,.39,1,3.93,3.93,0,0,0,0,1,2.47,2.47,0,0,1,.11,1.2,1.87,1.87,0,0,1,0,.45c-0.08.19-.22,0.21,0,0.42a1.28,1.28,0,0,1,0,1,0.7,0.7,0,0,0-.07.68,6.78,6.78,0,0,1,.08,1,0.87,0.87,0,0,1-.14.65c-0.1.22-.26,0.29-0.09,0.53a0.45,0.45,0,0,1,0,.45c-1-.08-2.84.12-3.64,0s-3.62.41-4.72,0.3a22.24,22.24,0,0,0-3.57.08,5.57,5.57,0,0,0-.88,0,5.44,5.44,0,0,1-1.22-.25l-0.76.06a1.27,1.27,0,0,0,0-.86,0.41,0.41,0,0,1,0-.58l0.11-.08a1,1,0,0,0,.43-0.46s-0.12-.7.13-0.71,0.27,0.06.31,0.37,0.46-.1.42-0.29a2.18,2.18,0,0,1,.17-0.81A0.78,0.78,0,0,1,196,14a1,1,0,0,0,.51-0.79c0.07-.44.13-0.3,0.5-0.61a4.08,4.08,0,0,0,.82-1c0.06-.15.21,0.21,0.47-0.27a13.49,13.49,0,0,1,1-2,2.87,2.87,0,0,0,.8-0.49c0.13-.3.37-0.73,0.47-1a1.64,1.64,0,0,1,.59-0.28c0.28-.24.65-0.84,0.86-1s-0.27-.47,0-0.61a9.47,9.47,0,0,0,.93-0.67A0.84,0.84,0,0,0,203.41,5l0.13-.3a0.69,0.69,0,0,1,0-.51c0.13,0,.26.23,0.51-0.08a8.93,8.93,0,0,0,1.14-1.58,1.37,1.37,0,0,1,.62-0.91A7.47,7.47,0,0,0,206.63.8a7.2,7.2,0,0,0,.73-0.8h-10.5l-0.15.15a2.29,2.29,0,0,0-.87.6c-0.2.27,0.15,0.21,0,.63a7.43,7.43,0,0,1-.78,1.14,1.36,1.36,0,0,1-.4,1c-0.34.09,0,.48-0.38,0.61a1.32,1.32,0,0,0-.78.73,2.69,2.69,0,0,1-.44,1,1.37,1.37,0,0,0-.33.63c-0.24.43-.5,0.61-0.62,0.91a2.15,2.15,0,0,1-.38.61c-0.11.13,0.23,0.16,0,.48a6.07,6.07,0,0,0-.59,1,0.53,0.53,0,0,1-.24.43c-0.23.14-.08,0.73-0.34,0.8a1.48,1.48,0,0,0-.78.73,1.1,1.1,0,0,1-.6.57c-0.21.09-.14,0.88-0.39,0.78a0.51,0.51,0,0,0-.5.61,0.54,0.54,0,0,1,0,.68,16.3,16.3,0,0,0-.76,1.51,1.61,1.61,0,0,1-.59,1c-0.36.14-.43,0.46-0.72,0.58s-0.23.14-.3,0.58a2,2,0,0,1-.22.5,15.15,15.15,0,0,0-2.81-.08c-1.27.08-2.44,0.12-2.44,0.12a2.51,2.51,0,0,1-1.07-.81c-0.27-.2-0.44,0-0.44.61a1.75,1.75,0,0,1-.15,1.18,1.08,1.08,0,0,0,.28,1c0.13,0.32-.29.67,0.22,1.15a2.09,2.09,0,0,1,.64,1.42c0.11,0.58.13,0.94,0.67,0.72a0.86,0.86,0,0,1,1.13,0,1,1,0,0,0,.81.46,4.21,4.21,0,0,1-.63,1.18,2.4,2.4,0,0,1-.37.61c-0.31.17-.44,0.34-0.33,0.51s0.11,0.16-.15.64a8.08,8.08,0,0,0-.66,1.43,3.81,3.81,0,0,1-.37,1c-0.16.23-.25,0.72-0.4,1s-0.14.47-.36,0.44-0.39.36-.35,0.68a2.16,2.16,0,0,1,.28,1,0.55,0.55,0,0,1-.49.32c-0.24,0-.4-0.17-0.4.24a0.4,0.4,0,0,0,.31.47h0.13c0.19,0-.06.27,0,0.48a1,1,0,0,0,.24.69c0.22,0,.54.11,0.56-0.06a1.35,1.35,0,0,1,.07-0.44c0.1-.37.31-0.46,0.37-0.73s0.06-.15.21,0.21,0.08,0.51.19,0.79-0.23,1,0,.83,0.73-.46.73-0.46,0.28,0.59.46,0.43a2.06,2.06,0,0,0,.32-0.75,1.74,1.74,0,0,1,.45-0.22c0.18-.16.59-0.28,0.46,0a2.14,2.14,0,0,0-.22,1.2c0.15,0.06.26-.07,0.37-0.31a1.66,1.66,0,0,0,.47-0.69c-0.09-.21-0.27-0.47,0-0.66s0.63,0,.58-0.4a3.89,3.89,0,0,1,.12-1.13,2.56,2.56,0,0,1,.55-0.59,1.3,1.3,0,0,0,.12-0.83,1,1,0,0,1,.63-0.38c0.16-.11-0.15-0.06-0.1-0.45a1.22,1.22,0,0,1,.47-0.69,0.23,0.23,0,0,1,.4.17,3,3,0,0,0-.38.9c0,0.31,0,.12.41-0.12a0.87,0.87,0,0,0,.58-0.52c0-.22.18-0.69,0.19-0.86a7.87,7.87,0,0,1,.59-0.69,2.7,2.7,0,0,0,.13-0.71,2.76,2.76,0,0,1,.5-0.49c0.16-.23.71-0.29,0.67-0.6a0.9,0.9,0,0,1,0-.76,1.27,1.27,0,0,0,.46-0.39,5.29,5.29,0,0,0,.15-0.64l0.4-.24a3.29,3.29,0,0,0,.47-0.69,7.49,7.49,0,0,1,.73-1c0.85,0,3.1-.17,3.87-0.18a12.79,12.79,0,0,0,1.8-.29c0.65-.08,1,0,2-0.05a13.08,13.08,0,0,0,2.6-.31,1.62,1.62,0,0,1,1-.28,13.56,13.56,0,0,1,2.07-.09c0.81,0.17,1.14-.4,2.18-0.14a7.36,7.36,0,0,0,2,.59,4.87,4.87,0,0,1,1,0v0.21a0.78,0.78,0,0,1-.21.49,1.42,1.42,0,0,0,.21.75,1,1,0,0,1,.17.43,0.93,0.93,0,0,0,0,.69,3.37,3.37,0,0,0,.19.79,4.37,4.37,0,0,0,.38,1,2.62,2.62,0,0,1,.61.5c0.16,0.31-.35.26-0.35,0.26v1a0.89,0.89,0,0,0,.12.82c0.23,0.16.34,0.44,0,.48s0,0.53.31,1.07a12.72,12.72,0,0,1,.64,1.27,4.39,4.39,0,0,0,.84,1.36c0.28,0.18,0,.53-0.09.9s0.6,0.25,1.06.15a1.36,1.36,0,0,0,.65-0.84,1.65,1.65,0,0,1,1-.64,1.49,1.49,0,0,0,.73-0.75,5.08,5.08,0,0,0,.62-0.62,0.73,0.73,0,0,1,.65-0.55c0.39,0,.38-0.19.4-0.54a3.19,3.19,0,0,0-.16-1,3.15,3.15,0,0,1,.17-1.1A3.5,3.5,0,0,0,217.14,26.8Z" fill="#21252b"/><path d="M526.09,0.37c0.14-.16.24-0.27,0.34-0.37H513l-0.26.57c-0.24.22-.68,0.62-1.29,1.21a24.54,24.54,0,0,0-3.16,3.52c-0.64,1-3.06,3-3.67,3.91s-1.73,1.41-2.4,2.2-3.34,3.69-4,4.23a23.68,23.68,0,0,1-2.07,2c-0.38.11,0-1.56,0.44-2.86a37.7,37.7,0,0,1,1.71-4.57,13.66,13.66,0,0,1,1.45-2.46c0.75-1,.46-1.45,1-2.18s0.06-1,.12-1.47S502,4,502.5,3.58s-0.42-.4-0.36-0.85S503,2,503.49,1.4c0.25-.45.46-0.92,0.66-1.4H492.43a14.59,14.59,0,0,1-1,1.12,29.87,29.87,0,0,1-3.46,2.3l-0.2.14A10.88,10.88,0,0,0,487.53,2c0-.68,0-1.35,0-2h-3.42a21.58,21.58,0,0,0-.38,2.61V5.67c-0.55,0-1.1.06-1.43,0a4.7,4.7,0,0,1-1.72-.51,8.15,8.15,0,0,1-1.93-1.74A4,4,0,0,1,477.91,2l0.26-.49c0.27-.46.79-1,1.17-1.54H468.28a5.17,5.17,0,0,1-.39.65,11.84,11.84,0,0,0-.64,1.59,8.72,8.72,0,0,0-.41,1.68,24.77,24.77,0,0,0-1.62,2.89c-0.12-.57,0-0.88-0.12-1.16a12.07,12.07,0,0,1,.11-1.3c-0.06-.43-0.43-2-0.47-2.76A5.42,5.42,0,0,0,464.42,0h-6.73c0.14,0.58.28,1.14,0.41,1.51a8.14,8.14,0,0,1,.3,3.33,2.59,2.59,0,0,0,0,1.44,19.82,19.82,0,0,1-.56,4.62,40.13,40.13,0,0,1-1.37,4.49,10.82,10.82,0,0,1-1.1,2.31,6.43,6.43,0,0,0-.79,1.38,8.79,8.79,0,0,1-1.59,1.64c-0.94.73-4.39,4-5.16,4.42s-1.19.64-1.88,1.06-2.49,1.4-3.21,1.75-0.57.71-1.11,1a8.65,8.65,0,0,1-1.8.56c-0.74.23-2.38,1-3.28,1.2s-2.62,1.29-3,1.37a3.07,3.07,0,0,0-1,.23,10.44,10.44,0,0,0-1.24.32,1.4,1.4,0,0,1-1.23.44,6.88,6.88,0,0,0-2,.41c-0.47.16-1,.35-1.47,0.46s-2.31.36-2.5,0.4a10.7,10.7,0,0,1-1.67.38h-0.25a2,2,0,0,1,.55-0.49c0.16-.11.26,0.51,0.55,0.22a5.6,5.6,0,0,0,.88-1.17c0.1-.25.51,0.32,0.85-0.07s0.79-.21,1.13-1.07,1.38-3.6.87-2.75a13.19,13.19,0,0,1-1.21,2.15c-0.3.17-.59-0.12-0.2-1a28.24,28.24,0,0,1,1.43-2.7,5.49,5.49,0,0,0,.67-1.08,7.67,7.67,0,0,1,.42-1.06c0.37-.79.51-0.85,0.4-1.3a1.94,1.94,0,0,0-.18-0.54,0.43,0.43,0,0,0,.23-0.31,1.33,1.33,0,0,1,.39-0.84,1.36,1.36,0,0,0,.25-0.78c0.14-.35.64-0.56,0.85-1s0.13-.77.34-1.15a4.14,4.14,0,0,1,.58-1.29,1.84,1.84,0,0,0,.7-0.89c0.22-.55.31-0.63,0.62-1.27A14.75,14.75,0,0,1,433,15a7.58,7.58,0,0,1,.54-1.07,1.85,1.85,0,0,0,.63-1,1.7,1.7,0,0,1,.55-1.53c0.6-.34.21-0.38,0.43-0.94a4.33,4.33,0,0,0,.6-1.22,1.14,1.14,0,0,1,0-.93,4.91,4.91,0,0,1,.74-0.69,6,6,0,0,0,.58-1.29,2.5,2.5,0,0,1,.51-1.14c0.41-.59.56-1.12,0.85-1.53a2.75,2.75,0,0,0,.52-1,6,6,0,0,1,.41-0.89,4,4,0,0,1,.37-1.08A4.51,4.51,0,0,0,440.39,0h-9.17c-0.81,1.68-1.9,4.26-2.09,4.73a1.22,1.22,0,0,0,.18,1A3.21,3.21,0,0,1,428.69,7c-0.16.4,1-.18,0.77,0.42a11.59,11.59,0,0,1-1.77,2.68c-0.58.58-1.15,0.83-1.07,1.21a3.17,3.17,0,0,1-.1,1.71,3.58,3.58,0,0,1-1,2.08c-0.36.32,0.22,0.32,0,1.07a12.18,12.18,0,0,1-1,3.24c-0.44.52-.58,0-0.22-0.91s0.2-1.67-.4-0.16a2.31,2.31,0,0,0-.22,2,5.1,5.1,0,0,1-.28,1.87c-0.2.5-.27,0.83,0.15,0.35s0.29,0,0,.6,0,0.88-.28,1-0.06.15-.23,0.73a12.73,12.73,0,0,1-.59,1.34c-0.2.5,0.22,0.91-.2,1.09a1.63,1.63,0,0,0-.77.75c-0.06.15-.09,0.37,0.2,0.37s0.24,0.27,0,.56-0.67.79-.23,0.73,0.44,0.35.14,0.52-0.64-.14-0.71.89A2.34,2.34,0,0,0,421,32.7a1.67,1.67,0,0,1,.2,1.3,1,1,0,0,0,0,1c-0.11,0-.09.11,0.12,0.15,0.24,0.2.67,0.29,0.67,0l0.45-.06c0.43-.06.46,0,0.48,0.25s0.45,0.18.55-.07a0.85,0.85,0,0,1,.68-0.37,6.25,6.25,0,0,1,1.38.2,0.54,0.54,0,0,0,.56-0.24,8.65,8.65,0,0,1,1.44,0,18.73,18.73,0,0,0,2.1-.27c0.45-.11.51-0.26,1-0.4s1.63,0,1.81-.15a2.07,2.07,0,0,1,1-.23c0.29,0,0,.53,0,0.53a8,8,0,0,0,1.32-.23,16,16,0,0,0,2.89-1,7.47,7.47,0,0,1,2.22-.57,4,4,0,0,0,1.08-.5c0.32-.22.47-0.16,0.49,0.08s0.77-.45,1.46-0.58a4.45,4.45,0,0,0,1.28-.72,6.71,6.71,0,0,0,1.81-.74A21.24,21.24,0,0,1,448.18,29a20.9,20.9,0,0,1,2-1.26c0.55-.26,1.24-0.91,1.57-1a3.78,3.78,0,0,0,1-.7c0.34-.27.93-0.56,1.57-1s1.54-1.08,2.06-1.51A5.91,5.91,0,0,0,458,22.29a20.59,20.59,0,0,1,1.51-2c0.25-.19.5-0.68,0.78-0.92a8.36,8.36,0,0,0,.91-1.37c0.17-.28.6-0.63,0.8-1a15.36,15.36,0,0,0,.82-1.31c0.12-.29.31-0.77,0.56-1.31a1.73,1.73,0,0,0,0,.4c0.18,0.86-.51,1.28,0,1.93a7,7,0,0,1,.91,2.55,5.33,5.33,0,0,0,.8,1.72c0.42,0.7.44,1.75,1.3,3.32a7.92,7.92,0,0,0,1.72,2.27,2.69,2.69,0,0,0,1.34.8c0.41,0.08.68,0.71,1.62,0.56a18.77,18.77,0,0,1,2.08,0,10,10,0,0,0,3.31-1c0.8-.47,1.5-0.45,2.16-0.8a16,16,0,0,0,2.57-2.48,9.32,9.32,0,0,0,1.87-2.49c0.41-.8,1.21-1.27,1.48-2.39s0.44-1.31.63-2a1.65,1.65,0,0,0,0-1.24,6.33,6.33,0,0,1,.51-1.72,13.15,13.15,0,0,0,.67-1.66,12.73,12.73,0,0,1,.7-2.61,8.47,8.47,0,0,0,.3-1.73,15.15,15.15,0,0,0,1.7-.88,5.74,5.74,0,0,0,1-.66s0.83-.54,1.21-0.83a11,11,0,0,1,.83-0.75c-0.49,1.49-1,3-1.24,3.82-0.17.52-1,2.52-1.27,3.46a13.28,13.28,0,0,0-.6,3.26c0.06,0.73-.06.44-0.44,1.11s0.22,0.91.42,1.57a0.55,0.55,0,0,1-.28.73l-0.14,0s0.1,0.62.14,1.11a5.8,5.8,0,0,0,.79,1.83,1.7,1.7,0,0,1,.48,1.13,1.17,1.17,0,0,0,1.15.93c0.64,0.14,1.27.62,1.91,0.77a4.51,4.51,0,0,0,4.17-.79,4.55,4.55,0,0,0,1.67-1.55,12.35,12.35,0,0,1,1.61-2.28,21.22,21.22,0,0,0,3-4A40.51,40.51,0,0,1,507,11.11c0.67-.79.79-1.67,1.45-2.46a27.73,27.73,0,0,1,2-2.26,3.34,3.34,0,0,1,.36-0.27c-0.08.26-.14,0.43-0.14,0.47,0,0.22-.61,1.68-0.81,2.6s-1.3,3.1-1.38,3.6-0.78,2.08-.93,2.61-0.61,1.51-.84,2.24-0.71.89-.52,1a1.83,1.83,0,0,1-.28,1.29c-0.22.55-.37,0.2-0.37,0.2a2.39,2.39,0,0,1-.26,1,0.87,0.87,0,0,1-.82.43,2.21,2.21,0,0,0,.2.66c0.14,0.23-.12.3-0.66,0.49s0.29,0.58.36,0.85,0.12,0.28.64,0.43a2.94,2.94,0,0,1,1,.64,4,4,0,0,0,.8.2,1.31,1.31,0,0,0,.88.29,1.16,1.16,0,0,1,.75-0.11,1.86,1.86,0,0,0,.45.47c0.06-.15.36-0.32,0.61-0.63a1.23,1.23,0,0,1,.6-0.63,1.64,1.64,0,0,0,.79-0.8c0.19-.33-0.14-0.52.06-1a7.06,7.06,0,0,1,.86-1.7,13.51,13.51,0,0,0,1-1.45,11.88,11.88,0,0,1,1.32-1.69c0.6-.63.79-1.38,1.35-1.91s0.79-1.38,1.2-1.68a5.81,5.81,0,0,0,1.13-1.65,13.73,13.73,0,0,1,1-1.76c0.31-.34.14-0.94,0.44-1.4s0.76-1.45,1.08-2a3.71,3.71,0,0,1,1.06-1,4.77,4.77,0,0,0,.94-1.32,3.34,3.34,0,0,1,.74-1.28A4.13,4.13,0,0,0,524.4,2.3a2.72,2.72,0,0,1,.8-1A4.13,4.13,0,0,0,526.09.37Zm-100,26a0.82,0.82,0,0,0,.3-0.46,1.19,1.19,0,0,1,.28-0.7,1.89,1.89,0,0,0,.23-1,1.26,1.26,0,0,1,.33-1,2.75,2.75,0,0,0,.68-0.66c0-.27.27-1.12,0.4-0.72a1.09,1.09,0,0,1-.14.94,3.22,3.22,0,0,1-.31.93c-0.18.16-.48,0-0.52,0.43s-0.31.64,0,.39a4.93,4.93,0,0,1,.45-0.4,0.79,0.79,0,0,1,.34-0.12v0.07l-0.52,1.31c-0.16.4-.43,0.35-0.35,0.15s-0.24-.21-0.38.16,0.09,0.8-.27.83S425.91,26.67,426.09,26.39Zm56.83-14.52a11.06,11.06,0,0,1-2.1,3.87h0c-0.48.33-.21,1.4-1,2.57A26.82,26.82,0,0,1,477,21.86c-0.48.33-1.37,1.46-2.27,1.72a4.78,4.78,0,0,1-2.37.45c-0.71-.2-0.67-0.53-0.59-1.81s-0.26-1.33-.72-2.13a2.74,2.74,0,0,1-.12-2.33c0.23-.79.82-1.16,1.15-2s0.21-1.4.59-1.69a9.14,9.14,0,0,0,1.22-2.4,4.44,4.44,0,0,0,.29-1.81c0-.62.53-0.66,0.83-1.42a25.19,25.19,0,0,1,1-2.67l0.19-.37a13.15,13.15,0,0,0,2.14,2,6.61,6.61,0,0,0,2,.82,9.14,9.14,0,0,0,1.81.29c0.35,0,.85.06,1.47,0A32.77,32.77,0,0,1,482.92,11.87Z" fill="#21252b"/><path d="M596.84,4.76c-0.32-.74,0-1.5-0.23-2.72a16.19,16.19,0,0,1-.21-2H583.88a16.7,16.7,0,0,0-1.7,1.82A6.33,6.33,0,0,1,580,3.57c-0.88.44-1.15,1.56-2.09,2.58s-1.84,1.54-2.34,2.13L575,8.92a7.38,7.38,0,0,0-.45-0.77c-0.17-.27-0.8,0-1.12.6a2.91,2.91,0,0,0-.36.91l-0.15.82a3,3,0,0,1-.07.66c-1.23,1.1-2.6,1.82-3,2.23s-1.69,1.16-2.24,1.65a17.27,17.27,0,0,1-2,1.32c0.48-.77,1.54-3,2-3.67s1.22-2.4,1.65-3a9.8,9.8,0,0,1,1-1.69,19.39,19.39,0,0,0,2-3.13,13.49,13.49,0,0,1,.79-1.53,8.64,8.64,0,0,0,.69-2.61A1,1,0,0,0,573.72,0h-7.94a9.25,9.25,0,0,0-.37.87c-0.06.23-.79,1.09-1.1,1.66a9.15,9.15,0,0,0-1,1.72c-0.11.48-1.44,2.93-1.87,3.81s-1.83,3-2,3.6-1.48,1.51-2.19,2.19-3.57,3.22-4.62,4.11a2.58,2.58,0,0,1-2,.79,7.46,7.46,0,0,0-2,.94c-0.88.44-.57-0.32-0.56-1a5.47,5.47,0,0,1,.18-1.77,29.5,29.5,0,0,1,.7-3c0.27-.68.94-1.9,1.39-3a9.63,9.63,0,0,1,1-2.16,1.85,1.85,0,0,0,.27-1.56c-0.14-.32.48-0.77,0.79-1.09a21.36,21.36,0,0,0,.88-2.19c0.5-1,1.46-3.23,1.91-3.87h-8.62a2.41,2.41,0,0,0,.05,1.35c0.11,0.39-.63.27-0.71,0.68s-0.48,1.21-1,2.6a42.86,42.86,0,0,0-1.69,4.23,2,2,0,0,1-.12.49c-0.4.42-.78,0.84-1,1.1-0.64.73-2.45,2.76-3.39,3.67s-3.07,2.86-3.83,3.43a2.73,2.73,0,0,1-1.61.82c-0.68.08,0.12-.3,0.15-0.82s0.14-1.23-.15-0.94-0.16-.18-0.1-0.62a9.74,9.74,0,0,1,.71-2.23,22.35,22.35,0,0,0,.8-2.14,13.76,13.76,0,0,1,1.19-2.1c0.36-.61.93-2,1.37-2.84s1.1-2.31,1.53-3.24,0.77-1.62.87-1.87,0.79-.5.87-0.71A4.35,4.35,0,0,1,540.74,0h-8.42a1.64,1.64,0,0,1-.5.5,2.89,2.89,0,0,0-.65.91A17.44,17.44,0,0,1,530.25,3c-0.63,1,.32.07,0.67-0.37s0.51-.26.31,0.24a6.54,6.54,0,0,1-1,1.59c-0.31.34-.57-0.17-0.72,0.06a10.22,10.22,0,0,0-.39,1.13,19.59,19.59,0,0,1-1,2,17.81,17.81,0,0,1-.94,1.9,1.81,1.81,0,0,0-.3,1c-0.09.37-.56,1.41-0.89,2.22s-0.75,1.28-1,1.88a0.66,0.66,0,0,0,0,.83,6.53,6.53,0,0,0,0,1,1.34,1.34,0,0,1-.15,1.11c-0.18.45,0.33,0.48,0.3,0.7a7.19,7.19,0,0,0-.22.85,2.51,2.51,0,0,0,0,1.27,2.21,2.21,0,0,1,.54.39,1.26,1.26,0,0,1,.17.89,1.34,1.34,0,0,0,.85.81c0.43,0.23.32,0.07,0.44,0.35a8.16,8.16,0,0,0,1.4.73,2.92,2.92,0,0,0,1.63.3,3.33,3.33,0,0,0,1.49-.22c0.61-.22.83,0,1.13-0.19s1-.4,1.36-0.62a4,4,0,0,1,1.41-.6c0.64-.15.35-0.44,0.48-0.62a4.72,4.72,0,0,0,1.06-.75,15.5,15.5,0,0,1,1.4-1.31,8.85,8.85,0,0,0,.94-1.9c0.31-.64,1.13-1.65,1.47-2.22S541.62,14,542,13.41a25,25,0,0,0-.18,2.58c0.09,0.58,0,2,.14,2.51s-0.24,1.92.06,1.6,0.33,0.48.48,1a1.55,1.55,0,0,0,.85,1,1.35,1.35,0,0,1,.45,1.06c0.11,0.39.53,0.21,0.77,0.48a5.72,5.72,0,0,0,1.56,1.15,4.7,4.7,0,0,0,1.42.39,14.34,14.34,0,0,0,1.6.38,1.18,1.18,0,0,1,.86-0.18,2.06,2.06,0,0,0,1.33.18,1.5,1.5,0,0,0,1-.81c0.36-.47.56-0.3,1.19-0.57a1.92,1.92,0,0,0,.91-1,2.31,2.31,0,0,1-.32,1,21.88,21.88,0,0,1-.83,2.3c-0.48.77-.09,0.67-0.47,1.39s-1.28,3-1.5,3.52a5.94,5.94,0,0,1-1.16,1.81c-0.63.71-.53,1.1-1.1,1.66s-0.35.65-.54,1.36-0.33.39-1,1.07-1.59,2-2.09,2.58-1,.48-1.45,1-1.12.17-1.83,0a3.58,3.58,0,0,1-1.45-1.19c-0.51-.47-0.85-0.08-1.54-0.09s-0.75-.74-1.45-0.76-1,.74-0.58,1,0.6,0.68,1.15,1.07a7.79,7.79,0,0,1,1,1.27A4.75,4.75,0,0,1,540,44a2.69,2.69,0,0,0,1.24,1.28,3.42,3.42,0,0,0,1.57.89,4.35,4.35,0,0,1,1.39.47,1.65,1.65,0,0,0,1.77.18,3.11,3.11,0,0,1,1.39-.41,3.36,3.36,0,0,0,1.4-.66,22,22,0,0,1,1.71-1.42c0.71-.6,2.78-3,3.11-3.4s0.86-1.5,1.35-2.27,2.33-3.19,2.51-3.64a10.34,10.34,0,0,1,1.19-2.33,6.86,6.86,0,0,0,.77-2.15,7.21,7.21,0,0,1,1-1.72,16.47,16.47,0,0,0,1.48-3.26c0.51-1.28,1.19-2.77,1.59-3.75A13.62,13.62,0,0,0,564,20c0.41-.28.79-0.56,1.12-0.82,0.79-.65,1.18-0.32,1.71-0.54a5.87,5.87,0,0,0,1.75-.88c0.65-.53,1.84-1.54,2.49-2.07a10.36,10.36,0,0,1,1.55-1c-0.06.31-.12,0.59-0.14,0.77a7.17,7.17,0,0,0,.41,2.27A15.44,15.44,0,0,0,573.5,20,23.57,23.57,0,0,0,575,23.3a1.74,1.74,0,0,1,.32,1.18L576,24.9a3.75,3.75,0,0,1,1,1.53,2.7,2.7,0,0,0,1,1.12,3,3,0,0,1,1.13.89,4,4,0,0,0,1.81.73,7.79,7.79,0,0,0,2.57,1,8.88,8.88,0,0,0,3.17-.48,5,5,0,0,0,1.48-.64,6,6,0,0,0,1.57-.86c0.36-.47.74-0.76,1.13-1.3s1.75-2.63,2.27-3.47a38.61,38.61,0,0,0,1.9-3.88c0.36-.91.45-2.45,0.83-3.61a41.53,41.53,0,0,0,.66-5.16c0.14-1,.2-2.9.29-3.56s-0.33-.48-0.29-0.82A2.17,2.17,0,0,0,596.84,4.76Zm-7.28.46c-0.24.17,0.2,1,.21,1.66a1.75,1.75,0,0,1-.23,1.22,2.46,2.46,0,0,0-.11,1.36,10.94,10.94,0,0,1-.23,2.1,19.9,19.9,0,0,1-.85,2.12,3.08,3.08,0,0,0-.23,1.66,7.84,7.84,0,0,1-.72,1.81,1.32,1.32,0,0,0,0,1.21c0.09,0.36-.53.38-0.68,0.75v0a3.35,3.35,0,0,1-1,1.69c-0.88.88-.38,0.73-0.5,1A5,5,0,0,1,584,23c-0.54.48-1,0-1.91,0.38s-0.92-.11-1.33-0.18a4,4,0,0,1-1.59-.63,5.43,5.43,0,0,0-1-.94c-0.26,0-.71-0.2-0.51-0.47s-0.29-.82-0.42-1.57-1.06-2.18-1-2.4A4.29,4.29,0,0,0,576,15.6a11.78,11.78,0,0,1-.08-2.22,7.94,7.94,0,0,1,.1-1.47c0.79-.65,1.89-1.38,2.23-1.72s2.25-1.9,3.17-2.67a19.33,19.33,0,0,0,1.83-1.72c0.17-.2,1-0.74,1.54-1.22a4.47,4.47,0,0,0,1-1.07A7.56,7.56,0,0,1,587.42,2,15.74,15.74,0,0,0,589.11.4l0.22-.27c0,0.14.12,0.3,0.2,0.52a1.79,1.79,0,0,1,0,1.57,4.27,4.27,0,0,1,.09,1.09,3.2,3.2,0,0,0,.45,1.5C590.36,5.63,589.8,5,589.56,5.22Z" fill="#21252b"/><path d="M309.86,9.92A18.31,18.31,0,0,1,309.67,8a10.13,10.13,0,0,0-.38-1.46,2.29,2.29,0,0,0,0-1.1,11.74,11.74,0,0,0-.37-2c-0.29-.71-0.51-2-0.82-2.65a5.4,5.4,0,0,1-.28-0.8h-8.51c0.05,0.33.14,0.77,0.17,1.31a3.49,3.49,0,0,0-.57,1,6.73,6.73,0,0,1-1.15,2.08,9.43,9.43,0,0,1-2,1.88,10.28,10.28,0,0,1-.71.85c-0.31.31-.22,0.52-0.48,0.5s-0.28.24-.33,0.57-0.64.26-.84,0.53a18.38,18.38,0,0,0-1.84,2c-0.52.81-1.7,1.43-3,2.54a8.78,8.78,0,0,1-.12-1.7,5.43,5.43,0,0,1,.51-1.9,3.58,3.58,0,0,0,.32-1.87,3.13,3.13,0,0,1,.39-1.6,7.67,7.67,0,0,1,.77-1.26A2.84,2.84,0,0,0,291,3.68a2.63,2.63,0,0,1,.51-1.2,4,4,0,0,0-.08-1.33A5.61,5.61,0,0,0,291.2,0h-2.8a5.17,5.17,0,0,1-.57.91,13,13,0,0,0-1,2.1,17.76,17.76,0,0,0-.68,2c-0.33.92-.8,2.43-1.09,3.13a7.19,7.19,0,0,0-.5,2.44,11.13,11.13,0,0,0-.33,2.45,24.37,24.37,0,0,1,0,2.55,2.52,2.52,0,0,0,.09,1,1.61,1.61,0,0,1,.07.61c-0.68.46-1.35,0.68-2,1.2-0.91.68-2.82,1.63-4.21,2.63a35.64,35.64,0,0,1-6.13,2.79,21,21,0,0,0-2.14.68,18.54,18.54,0,0,1-3.81.86c-1.12.14-.34-0.23,0.21-0.71a3.71,3.71,0,0,0,1.33-1.47,1.38,1.38,0,0,1,.86-0.78,8.7,8.7,0,0,1,1.74-.77l0.89-.42,0.34-.38a11.83,11.83,0,0,1,1.86-1.06,6.14,6.14,0,0,0,1.8-1.53c0.13-.3.73,0,1-0.36a1.53,1.53,0,0,1,.62-0.62,2,2,0,0,0,1-.57,1,1,0,0,0,.24-0.78,4.69,4.69,0,0,0,.91-0.68,1.39,1.39,0,0,0,.35-1.44c-0.11-.58.32-0.75,0.21-1.33a1.28,1.28,0,0,0-.43-1.07,0.65,0.65,0,0,1-.41-0.7,4.57,4.57,0,0,0-1.22-1.49,4.14,4.14,0,0,0-2.16-1.36,2,2,0,0,1-1.27-.54c-0.39-.34-0.62,0-1,0.1a4.44,4.44,0,0,0-1.33.85,3.63,3.63,0,0,1-3.28,0c-0.6-.25.07-0.59,0.31-0.93a13.65,13.65,0,0,0,.87-1.22A11.3,11.3,0,0,1,271,4.3c0.28-.24.69-0.59,1.08-0.87s1.1-1.13,1.73-1.57A25.55,25.55,0,0,0,275.88,0H262.28a3.32,3.32,0,0,1-.42.33V0.19l0-.19h-5.6a4,4,0,0,1-.16.89,13,13,0,0,0,0,2.17c-0.06.56,0.24,1.1,0.23,1.69a21.24,21.24,0,0,1-.64,3,30.4,30.4,0,0,1-.62,3.27c-0.34.8-.87,2.34-1.31,3.1a21.83,21.83,0,0,0-1.08,3,6.91,6.91,0,0,1-1,2.18c-0.54.71-1.13,1.7-1.61,2.26A7,7,0,0,1,248.46,23c-0.75.51-1.64,1.78-2.17,2.2a2,2,0,0,1-1.26.47c-0.43,0-.14-0.36-0.36-0.68a3.34,3.34,0,0,1,.12-1.54V21.8a6.29,6.29,0,0,0-.23-1.27c-0.05-.43.06-1,0-1.24a6.33,6.33,0,0,1,.34-1.21A3.58,3.58,0,0,1,245,17a2.06,2.06,0,0,0,.14-1.3c-0.1-.46.41-0.83,0.28-2.06a3.67,3.67,0,0,1,.32-1.87,1.58,1.58,0,0,1,.29-0.82,1.9,1.9,0,0,0,.26-1.3c-0.14-.36.46-0.39,0.38-0.61a2.56,2.56,0,0,1,.36-0.85,7,7,0,0,1,.33-1.33,1.7,1.7,0,0,0,.35-1c0-.36.48-0.56,0.52-1.08s0.67-.89.43-1.29,0.43-.88.37-1.14,0.27-.77.18-1S250,0.62,250,.26c0-.09,0-0.17,0-0.26h-11.3a8.05,8.05,0,0,0-.29,1.64c0,0.51-.86,2.58-0.82,3.19s-0.34,1.92-.45,2.87a0.89,0.89,0,0,0,.07.68,0.34,0.34,0,0,1-.07.48h0a1,1,0,0,0-.46.81,11.55,11.55,0,0,1-1,1.81c-0.42.71-1.18,1.68-1.83,2.93s-1.26,2.41-1.47,2.91-0.64.67-.87,1.22a21.32,21.32,0,0,1-1.77,2.78,37.23,37.23,0,0,1-2.55,3.1c-0.46.39-.38,0.07-0.31-0.25a5.18,5.18,0,0,0-.17-1.13,4.54,4.54,0,0,1,.32-1.58,11.22,11.22,0,0,1,.67-1,3.11,3.11,0,0,0,.35-1c0.06-.27.26-0.48,0-0.71s0.17-.4.37-0.73a1.74,1.74,0,0,0,.13-1,1.37,1.37,0,0,1,.32-0.75,1.41,1.41,0,0,0,.51-0.79,1.5,1.5,0,0,1,.42-1,3.85,3.85,0,0,0,.5-1.73,6.71,6.71,0,0,1,.75-1.92c0.21-.5.25-1,0.43-1.29s-0.09-.34-0.13-0.53a4.17,4.17,0,0,1,.72-0.58,5.92,5.92,0,0,0,.67-1c0.19-.45.27-1.18,0.41-1.65a6.75,6.75,0,0,1,1.25-1.71,2.55,2.55,0,0,0,.52-1c0.15-.35.3-1.4,0.43-1.7a1.45,1.45,0,0,1,.56-0.76A2.57,2.57,0,0,0,236.43,0h-12a3.21,3.21,0,0,1-.17.59,2.17,2.17,0,0,1-.58.81c-0.21.21-.33,0.51-0.15,0.64s0.09,0.33-.18.57a1,1,0,0,0-.22.79c-0.06.27-.68,0.07-0.76,0.27a2.37,2.37,0,0,0-.1,1.2A4,4,0,0,1,222,6.22a3.85,3.85,0,0,1-1,1.88c-0.36.14-.31,0.46,0,0.7s-0.07.44-.38,0.61-0.71,2.23-.77,2.79a6.75,6.75,0,0,1-.42,1.41,5.59,5.59,0,0,0-.26,1.6,2.26,2.26,0,0,1,.07.8,1.16,1.16,0,0,0-.35.68,1.82,1.82,0,0,1-.11,1,3.26,3.26,0,0,0-.14,1.71c0.1,0.87.55,0.65,0.54,0.94a1.2,1.2,0,0,1-.34.8c-0.21.21-.07,0.86,0.21,0.62s0.22,0.45.12,0.7a1.75,1.75,0,0,0-.08,1,3.21,3.21,0,0,0,.35,1.27,22.93,22.93,0,0,0,1.7,2,10,10,0,0,0,2.18,1.39c0.42,0.12,1.63.46,2.15,0.62a2.55,2.55,0,0,0,1.47.15,4.58,4.58,0,0,0,1.22-.37,15.86,15.86,0,0,0,2.06-1.66,2.79,2.79,0,0,1,1.08-.6,11,11,0,0,0,.84-1,11.21,11.21,0,0,0,1.14-1.58,9.4,9.4,0,0,1,1-1.45,3.63,3.63,0,0,0,.46-1.22,7.09,7.09,0,0,1,.59-1.4,3.21,3.21,0,0,0,.82-1.24c0.15-.64.34-1.09,0.36-0.85a2.41,2.41,0,0,1,.17.72,1,1,0,0,1,0,.83,0.63,0.63,0,0,0-.14.88h0a4.9,4.9,0,0,1,.28,1,17.41,17.41,0,0,0,0,1.92,2.47,2.47,0,0,0,.41,1.12,2.45,2.45,0,0,0,.57,1c0.45,0.6.09,0.63,0.38,1a5,5,0,0,0,1.09,1.17c0.41,0.29,1.86,1.44,2.17,1.69a6.22,6.22,0,0,0,1.83.83,2.73,2.73,0,0,0,1.58,0,12.33,12.33,0,0,1,1.64-.54,7.86,7.86,0,0,0,.92-0.5l0.36-.44a3.08,3.08,0,0,1,1.27-.76,4.21,4.21,0,0,0,1.27-1c0.34-.38,1.5-1.72,1.67-2a4.87,4.87,0,0,1,.93-1.08,5,5,0,0,0,.91-1.44c0.28-.53,1-2,1.24-2.36a4.84,4.84,0,0,1,.74-1.34,7.12,7.12,0,0,0,1-2c0.21-.5.68-1.6,0.94-2.08a6.26,6.26,0,0,0,.54-1.42,7.86,7.86,0,0,1,.56-1.18c0.21-.5.36-1.26,0.57-1.76s0.83-2.54,1.2-3.72V6.44a9.22,9.22,0,0,0,.82,2c0.17,0.43.64,1.42,0.93,2a8.15,8.15,0,0,0,1.57,1.73c0.38,0.34.68,0.47,0.51,0.66a13.75,13.75,0,0,0-1.54,1.56,7.52,7.52,0,0,0-1.24,1.68,3.09,3.09,0,0,1-1,1.08l-1.35,1.11a1.86,1.86,0,0,0-.42,1.41,8,8,0,0,0,0,2,12.84,12.84,0,0,1-.06,2,2.61,2.61,0,0,0,.54,1.64,1.59,1.59,0,0,0,.72,1,4.13,4.13,0,0,0,.7.65,4.08,4.08,0,0,0,.81.79c0.52,0.22.61,0.44,1.06,0.63a4,4,0,0,0,1.46.09h1.78a3.26,3.26,0,0,1,1.22-.37,2.56,2.56,0,0,0,1.49-.6,4.32,4.32,0,0,1,1.22-.37A19.39,19.39,0,0,1,272,26.7a36.31,36.31,0,0,0,3.37-1.49,3.2,3.2,0,0,0,1-.54,4,4,0,0,1,1.15-.84,3,3,0,0,0,1.29-1c0.19-.45.82-0.27,1.3-0.77a11.45,11.45,0,0,1,1.55-.93,11.34,11.34,0,0,1,1.91-1c0.32-.16.78-0.39,1.24-0.66L285,20.24c0.15,0.48-.11.54,0.2,0.79a2.07,2.07,0,0,1,.46.72,6.79,6.79,0,0,0,1.44,1.32c0.38,0.22,1.87,1.56,2.56,2a30.52,30.52,0,0,0,2.68,1.61,3.7,3.7,0,0,0,1.68.48c0.68,0,1.1,0,1.66.11a10.65,10.65,0,0,0,1.58.44,9.1,9.1,0,0,0,1.51-.36A2.91,2.91,0,0,1,300,27a2.91,2.91,0,0,0,1.42-.58,10,10,0,0,1,1.81-.65c0.36-.14,1.1-0.24,1.84-0.46a1.94,1.94,0,0,0,1-.84,16.19,16.19,0,0,0,1.3-1.39,11.82,11.82,0,0,0,1.1-1.89,3.28,3.28,0,0,1,.8-1.19c0.31-.16.09-0.49,0.1-1.08s0.43-.25.55-0.67,0.16-.93.24-1.25a7,7,0,0,1,.15-1.06,4.79,4.79,0,0,0-.09-1.45,5.74,5.74,0,0,0,.24-1.25C310.33,12.71,310.07,11,309.86,9.92Zm-9.79,3a16.23,16.23,0,0,1-.69,3.3,20.69,20.69,0,0,1-.92,2.67,1.55,1.55,0,0,1-1,.89c-0.43.17-1.11,0.82-1.47,1a2.5,2.5,0,0,1-1.34.38,5.61,5.61,0,0,0-1.42.16,2.55,2.55,0,0,1-1.45-.32c-0.53-.28-1.34-0.86-1.72-1.08a2.17,2.17,0,0,1-1-1,6.11,6.11,0,0,1-.23-1.69,7.76,7.76,0,0,0,0-.81,9.4,9.4,0,0,0,.84-0.71c0.34-.39,1-0.83,1.48-1.41s1.57-1.19,2-1.62a20.61,20.61,0,0,1,1.51-1.48A5.21,5.21,0,0,0,296,9.74c0.5-.76,1-1.26,1.21-1.61a16.6,16.6,0,0,0,1.25-1.5,4,4,0,0,1,1-1.08,3.88,3.88,0,0,0,.39-0.39c0.13,0.74.25,1.4,0.29,1.71a28.22,28.22,0,0,1,.2,2.85C300.36,10.55,300.08,12.31,300.07,12.9Z" fill="#21252b"/><path d="M350.31,3.68a8.71,8.71,0,0,0,.86-1.4,3,3,0,0,1,1-.83A7.51,7.51,0,0,0,353.26,0H350.5a5.48,5.48,0,0,1-.88,1,25.72,25.72,0,0,0-1.69,2.17c-0.54.71-2.31,2.67-2.58,3a3.79,3.79,0,0,0-.63.79,1.88,1.88,0,0,1-.74.63,2.86,2.86,0,0,0-.4.66,5.38,5.38,0,0,1-.41.83c-0.25.31-.45,0.22-0.37-0.1a3.36,3.36,0,0,0,.08-1,1.37,1.37,0,0,1,.64-0.26A5.86,5.86,0,0,0,344,6.46a1.74,1.74,0,0,1,.69-1.06c0.28-.12.32-0.75,0.62-0.91A2.76,2.76,0,0,0,346,3.28c0.19-.45.5-0.61,0.67-1s0.63-.79,1-1.42L348.22,0h-7.5c0,0.14-.11.28-0.15,0.43a1.48,1.48,0,0,1-.09.33,8.39,8.39,0,0,1-.77.6c-0.49.32-.41,0-0.58,0.4a5.38,5.38,0,0,1-1.41,1.52c-0.62.5-1.33,0.91-1.72,1.27a1.68,1.68,0,0,1-1,.29l0.15-.43a7.32,7.32,0,0,0,.43-2.53V0h-1.71a4.18,4.18,0,0,1-.12,1.33,14.08,14.08,0,0,1-.43,2,11.07,11.07,0,0,0-.22,1.91v0.2l-0.51.22a2.91,2.91,0,0,1-.83.3,17.22,17.22,0,0,1-1.73.33,1.78,1.78,0,0,1-1.3-.26,5.19,5.19,0,0,1-1.22-1,3.38,3.38,0,0,1-.78-1.51,3.44,3.44,0,0,1,0-1.55,3.46,3.46,0,0,0,.08-0.52,6.17,6.17,0,0,0,.57-1.27A0.89,0.89,0,0,1,327.46,0H318a9.69,9.69,0,0,1-.65,1.25,6.23,6.23,0,0,0-.84,1.29A16.65,16.65,0,0,1,315,5.28a2.15,2.15,0,0,0-.51,1.2,8.21,8.21,0,0,1-.63,1.62,29.41,29.41,0,0,0-1.85,4,14,14,0,0,0-.51,2.73,2.85,2.85,0,0,1,.27,1.3,2.15,2.15,0,0,0,0,1.29,3.35,3.35,0,0,1,0,1.34,3.53,3.53,0,0,0,0,1.22,1.71,1.71,0,0,1-.2.74c0,0.39-.57-0.18-0.68-0.05a1.26,1.26,0,0,0,.07.8,16,16,0,0,0,1,1.81,6.75,6.75,0,0,0,1.22,1.29,4.69,4.69,0,0,0,.74.61c0.28,0.18.41-.12,0.5,0.21a3,3,0,0,0,1.43.79,2.82,2.82,0,0,0,1.35.28,3,3,0,0,1,1-.09,1.46,1.46,0,0,0,.55-0.47,7.23,7.23,0,0,1,.85-0.35,4.52,4.52,0,0,0,1-.59,0.71,0.71,0,0,1,.69-0.24,1.64,1.64,0,0,0,.85-0.47,4,4,0,0,1,.92-0.08,2.22,2.22,0,0,1,.66-0.31,2.39,2.39,0,0,0,1-.35,3.29,3.29,0,0,1,.82-0.12,0.74,0.74,0,0,0,.45-0.64,3.42,3.42,0,0,1,.58-0.11,6,6,0,0,0,.93-1,9.11,9.11,0,0,0,.91-1,7.27,7.27,0,0,0,.47-1A11.81,11.81,0,0,1,330,18.35a3.18,3.18,0,0,0,.6-1.28,1.3,1.3,0,0,1,.6-0.45c0.16-.11.08-0.61,0.31-0.87s0.73-.75,1-1.06,0.42-.71.78-1.14a8.29,8.29,0,0,0,.86-2.17,7.12,7.12,0,0,0,.34-1.62c0-.63.14-1.3,0.13-1.83V6.82a2.63,2.63,0,0,0,.62-0.26,2.25,2.25,0,0,1,1.07-.31A2.09,2.09,0,0,0,337,6c0.24-.1.51-0.15,1-0.37-0.32.8-.6,1.5-0.71,1.74-0.25.6-.8,0.63-0.84,1.15A3.13,3.13,0,0,1,336,10a7.14,7.14,0,0,1-.85,1,6.61,6.61,0,0,0-1,2c-0.37,1.08-1.67,4.77-1.8,5.07s-0.26,1-.54,1.89a2.64,2.64,0,0,0-.13,1.36c0,0.44-.54.65-0.54,1.27a0.57,0.57,0,0,1-.65.7c-0.36,0-.51.58-0.26,1a2.13,2.13,0,0,0,.78.86,6.2,6.2,0,0,0,1.88,1A1.06,1.06,0,0,0,334,26c0.57-.29.5,0.48,1.16,0.4s0.39-.72.89-0.86,0.47-1.31.69-1.83a5,5,0,0,1,.71-1.47,6.32,6.32,0,0,0,.59-1.6c0.19-.45,1.23-1.86,1.55-2.61a32.58,32.58,0,0,1,2.5-3.8c0.61-.8,1.84-2.67,2.1-3.08a19,19,0,0,1,1.92-2c0.75-.74,1.68-2.29,2.09-2.65A26.72,26.72,0,0,0,350.31,3.68Zm-18.15,4.7c-0.21.62-.09,0.49-0.29,1.11a7.07,7.07,0,0,1-.59,1.32h0c-0.22.38-.6,0.57-0.86,1s-0.37,1-.55,1.3a18.22,18.22,0,0,1-1.07,1.55A13,13,0,0,0,328,16a10.86,10.86,0,0,1-1.1,1.48,10.87,10.87,0,0,1-1.66,1.83,23.16,23.16,0,0,1-2.46,1.9,3.88,3.88,0,0,1-1.59.27,13.08,13.08,0,0,0-1.68.35,1.84,1.84,0,0,1-1.17,0c-0.4-.17,0-0.51,0-1a5.08,5.08,0,0,0-.24-1.1c-0.06-.26.16-0.52,0.09-0.9a1.31,1.31,0,0,1,.32-1c0.21-.21.27-0.36,0-0.58a1.09,1.09,0,0,1,.24-1.13,3,3,0,0,0,.57-0.93c0.18-.57.5-0.91,0.29-0.82s-0.23-.16,0-0.44a3.35,3.35,0,0,0,.35-1c0.1-.37.41-0.83,0.49-1.15a1.46,1.46,0,0,1,.51-0.79,9.64,9.64,0,0,0,.74-1.46c0.44-.76,1-1.83,1.13-2.11a4.63,4.63,0,0,0,.13-0.71,1.76,1.76,0,0,0,.56-0.35A9.11,9.11,0,0,0,324.28,5a5,5,0,0,1,.28-0.44L324.71,5A6.06,6.06,0,0,0,326,6.53a11.9,11.9,0,0,0,1,.84,4.42,4.42,0,0,0,1.33.62,5.53,5.53,0,0,0,1.58,0,12.74,12.74,0,0,0,1.32-.21l1.3-.27C332.35,7.86,332.23,8.17,332.16,8.38Z" fill="#21252b"/><path d="M363.87,7c0.48-.5,1.46-1.77,2.11-2.46s1.73-2,2.15-2.36a7,7,0,0,0,1-1.08,5.73,5.73,0,0,1,.72-1.1h-2.24a3.35,3.35,0,0,0-.48.28,2.56,2.56,0,0,0-.54.75,4.67,4.67,0,0,1-.87.91,4.29,4.29,0,0,1-.62.62,2.13,2.13,0,0,1-.5.45,1,1,0,0,0-.54.74,1.26,1.26,0,0,1-.67.73c-0.42.35-.77,0.56-0.69,0.37a17.45,17.45,0,0,1,1-1.7c0.35-.51.43-0.7,0.76-1.18s0.81-1.29,1.14-1.86l0-.11h-8c-0.17.32-.34,0.64-0.54,0.94a16.7,16.7,0,0,1-1.58,2.69A1.18,1.18,0,0,0,355,4.72c-0.06.77-.46,0.87-1,2s-1.34,1.91-1.66,2.66-0.8.63-.63,1.06-0.49,1.56-.77,2.23a4,4,0,0,0-.52,1.64,9.12,9.12,0,0,1-.57,2,8.87,8.87,0,0,1-1.34,1.91c-0.44.61-.61,0.8-0.37,1.08a1.58,1.58,0,0,1-.29,1.29,5.37,5.37,0,0,0-.56,1.53c0,0.44-.67,1-0.64,1.5s-0.43,1.23-.17,1.87,0.79,0.42,1.22.87a1,1,0,0,0,1.19.33c0.43-.17.61,0.44,1.22,0.25s0,0,.38.34,0.8,0,1.29-.34a4,4,0,0,1,.92-0.49c0.32-.13.33-1.19,0.47-1.74a20.47,20.47,0,0,1,.48-2.18c0.22-.52.78-2,1-2.58s0.67-1,.89-1.48a21.39,21.39,0,0,1,.91-2.35A13.78,13.78,0,0,1,358,13.7c0.54-.65,2-2.53,2.3-2.91a22.24,22.24,0,0,0,1.86-1.68C362.89,8.26,363.39,7.5,363.87,7Z" fill="#21252b"/><path d="M408.34,14.46c-0.53.22-1.93,0.6-2.75,0.87s-1,.39-2.13.86-4.2,1.58-4.87,1.91A14.25,14.25,0,0,1,396,19c-0.79.2-3.75,1.77-4.82,2.2a17.51,17.51,0,0,1-3.54,1.06c-0.83.09-1.1-.11-0.69-0.47a8.9,8.9,0,0,0,1.35-1.11,8.91,8.91,0,0,1,1.4-1.44c0.35-.21,1.15-0.84,1.61-1.09s0.82-.89,1.41-1.26a6.82,6.82,0,0,0,1-.79l0.4-.1a9.4,9.4,0,0,0,1.63-1.34c0.66-.51,1.7-1.93,2.26-2.4a7.67,7.67,0,0,1,2.14-1.3,2.57,2.57,0,0,0,1.34-1.29A5.61,5.61,0,0,0,402,7.42c0.17-.81-0.77-1.3-1-2.12a2.53,2.53,0,0,0-1.15-1.46,7.19,7.19,0,0,0-2-1,1.43,1.43,0,0,0-1.36.49,9.22,9.22,0,0,1-2.59.49,11.19,11.19,0,0,1-2.37,0c-1.13,0,.25-0.6.79-0.81a8.09,8.09,0,0,0,1.48-1.41,4,4,0,0,1,1.28-.52,13.36,13.36,0,0,0,1.66-.8A4,4,0,0,1,397.18,0h-14a8.35,8.35,0,0,0-.67,1.2A5.14,5.14,0,0,0,382,3.46a19.65,19.65,0,0,0,.89,3.12,1.54,1.54,0,0,0,.84,1.15c0.49,0.3.89,0.82,1.42,1.22a2.31,2.31,0,0,0,1.32.65,7.41,7.41,0,0,1,2.06.35c0.93,0.31,0,0-.42.35a13.31,13.31,0,0,0-1.55,1.37,9.69,9.69,0,0,1-1.62,1.52,16.85,16.85,0,0,0-2.66,2.94c-0.19.27-1.31,1.21-2,1.88a2.88,2.88,0,0,0-.59,1l-0.42.3a36.84,36.84,0,0,1-3.77,2c-0.78.38-1.07,0.43-2.09,1a7.44,7.44,0,0,1-1.82.55c-0.64.26-1.09,0.69-2.11,1.23s-0.79-.42-0.78-0.86a8.9,8.9,0,0,1,.38-1.52,11.74,11.74,0,0,1,.52-2.26c0.35-.82.92-2.17,1.26-3.18a7.07,7.07,0,0,1,.89-2.1,18.84,18.84,0,0,1,1.11-2,5.29,5.29,0,0,0,.76-1.18c0.33-.57,0-0.73,0-0.73a7.83,7.83,0,0,0,.7-1,17.82,17.82,0,0,1,1.51-3.16,11.54,11.54,0,0,0,1.12-1.38c0.23-.34.74-1.54,1.18-2.15s0.73-1.1,1.11-1.56a2.93,2.93,0,0,0,.45-1h-7.77a16.73,16.73,0,0,0-1.7,3.17c-0.48,1.12-1.36,1.54-2,2.79a13,13,0,0,0-1.08,3.17c-0.17.81-.92,0.49-1.28,1.14a16.93,16.93,0,0,0-1.47,2.64c-0.28.85-.94,1.37-1,2.21s-0.62.62-1,1.45A5.76,5.76,0,0,0,362.1,19c0,0.54-.56.91-0.92,1.55s0.24,0.9.31,1.37a4.18,4.18,0,0,0,.59,1.31c0.33,0.67,0,.69-0.39.72s-0.51,0-.14.74a2.52,2.52,0,0,0,1.22,1.49,4.67,4.67,0,0,0,2.11,1.07,16.46,16.46,0,0,0,2.11.45h1.35c0.35,0,1.49-.6,2.28-0.8s0.22-.52.64-0.88,0.37,0.16.7,0.21a10.89,10.89,0,0,0,1.28-.52A6.21,6.21,0,0,0,375,24.52a7.07,7.07,0,0,1,1.45-.71,12,12,0,0,1,1.29-.34,1.79,1.79,0,0,0,.81-0.61,3.34,3.34,0,0,1,.37.75,5.12,5.12,0,0,0,1,1.83c0.48,0.73.14,0.5,0.84,0.71s1.68,1.24,3,1.38,2.18-.14,2.91,0a2.07,2.07,0,0,0,1.79-.48,12.33,12.33,0,0,1,2.3-1.06,8.69,8.69,0,0,0,2-.74c0.74-.48,2.27-1.6,2.27-1.6a10.17,10.17,0,0,0,2.14-1.3,3.3,3.3,0,0,1,1.52-.68l0.56-.29c0.57-.29,1.36-0.49,2.38-1a23.17,23.17,0,0,1,2.93-1.5,9.49,9.49,0,0,0,1.74-.76c0.57-.29,1.06-1,1.52-1.3a5.9,5.9,0,0,0,.9-1.3,1.15,1.15,0,0,0,.13-1.28C408.66,13.71,408.87,14.24,408.34,14.46Z" fill="#21252b"/><path d="M170.35,2.18A0.78,0.78,0,0,0,170,1.71a11,11,0,0,1-.47-1A6.11,6.11,0,0,0,169.11,0h-7.29a1.6,1.6,0,0,1-.17.52,11,11,0,0,1-.6,1.31,1.86,1.86,0,0,0-.2.65,1.12,1.12,0,0,1-.27.54,2,2,0,0,0,0,.6,5.92,5.92,0,0,0-.24,1,1.93,1.93,0,0,1-.23.64,7.59,7.59,0,0,0-.31,1c0,0.27-.07.32-0.23,0.35a3.54,3.54,0,0,0-.51,1.14,1.09,1.09,0,0,0-.21.91,1.24,1.24,0,0,1-.22.93,5.79,5.79,0,0,1-.84,1.3c-0.21.3-.59,1-0.85,1.33s-0.69,1-1,1.35a6.73,6.73,0,0,0-.93,1.09,1.39,1.39,0,0,1-.56.6,9.29,9.29,0,0,0-.91,1,11,11,0,0,1-1.09,1.2c-0.33.25-1.54,1.52-2.09,2s-1.43,1.24-1.72,1.54-1.31,1-1.66,1.32-0.37.2-.45,0,0-.23.14-0.29a1.19,1.19,0,0,0,.27-0.6c0.11-.28.22-0.79,0.29-1a9.53,9.53,0,0,1,.61-1.33,3,3,0,0,0,.34-1.09,1.62,1.62,0,0,1,.17-0.81,1.47,1.47,0,0,0,.38-0.81,1.29,1.29,0,0,1,.15-0.9,1.4,1.4,0,0,0,.32-0.66,4.42,4.42,0,0,1,.35-1,2.36,2.36,0,0,0,.18-0.83,0.52,0.52,0,0,1,.38-0.43,0.93,0.93,0,0,0,.2-0.59l0.09-.23a1.45,1.45,0,0,1,.36-0.7,0.57,0.57,0,0,0,.26-0.57c0-.24,0-0.46.16-0.49a0.71,0.71,0,0,0,.39-0.46,5.55,5.55,0,0,1,.51-0.32,0.61,0.61,0,0,1,.21-0.53,1.09,1.09,0,0,0,.4-0.48,4.14,4.14,0,0,0,.25-0.78c0-.14.27-0.68,0.33-0.92a8,8,0,0,1,.28-1.14,1.78,1.78,0,0,0,.34-0.77A2.59,2.59,0,0,1,153.78,4a1.75,1.75,0,0,1,.31-0.34,0.61,0.61,0,0,0,0-.59c-0.1-.19-0.09-0.44,0-0.4a0.24,0.24,0,0,0,.28-0.33,9.11,9.11,0,0,1,0-1,2.72,2.72,0,0,0-.32-0.88C154,0.41,153.84.22,153.7,0h-8.31a8,8,0,0,0-.35.87,1,1,0,0,0-.22.66c0.15,0.06.35,0,.22,0.22s-0.46,1.26-.67,1.79-0.52,1.2-.7,1.56a2.34,2.34,0,0,0-.21,1,9.32,9.32,0,0,1-.54,1.14,3,3,0,0,0-.11.83,4.45,4.45,0,0,1-.66.79c-0.17.33-.48,1.21-0.6,1.51a7.53,7.53,0,0,1-.61,1,15.68,15.68,0,0,0-.86,1.5,2.65,2.65,0,0,1-.19.52l-0.66.73a14.1,14.1,0,0,0-1,2c-0.47.86-1.36,2-1.68,2.57a18.18,18.18,0,0,1-1.68,2.14c-0.32.36-.29,0.41-0.68,0.82A15.05,15.05,0,0,1,133.08,23a17.83,17.83,0,0,1-1.79,1.52,1.57,1.57,0,0,0-.62.67c-0.16.29-.25,0.08-0.53,0.23s-0.54.36-.92,0.55-0.53,0-.47-0.14a2,2,0,0,0,.22-0.66,5.79,5.79,0,0,1,.13-1,8.82,8.82,0,0,1,.4-0.8c0.15-.38.33-1,0.46-1.48a2.06,2.06,0,0,1,.48-0.77,2.61,2.61,0,0,0,.38-1.29,1.88,1.88,0,0,1,.43-1,5.58,5.58,0,0,0,.25-1.17,7.89,7.89,0,0,1,.15-1.25,5.91,5.91,0,0,0,.55-0.83,1.75,1.75,0,0,0,.13-0.87,1.23,1.23,0,0,1,.35-0.78,4.11,4.11,0,0,1,.49-0.46,6.38,6.38,0,0,0,.07-0.72,5,5,0,0,1,.68-0.61,13.4,13.4,0,0,0,.57-1.22A4.42,4.42,0,0,0,135,9.49a1.25,1.25,0,0,1,.39-0.76,4.52,4.52,0,0,0,.37-1.16,6.27,6.27,0,0,1,.73-0.85c0.12-.3.51-0.85,0.82-1.51a8,8,0,0,1,1-1.42,4.08,4.08,0,0,1,.68-1,6.73,6.73,0,0,0,.93-1.47A11.15,11.15,0,0,0,140.45,0h-9.83l0,0.09a4.4,4.4,0,0,0-.4.67,4.51,4.51,0,0,1-.52,1.2,4.77,4.77,0,0,0-.46,1l-0.72,1.82a5.77,5.77,0,0,0-.46,1,0.39,0.39,0,0,1-.25.3,1,1,0,0,1-.07.5,3,3,0,0,0-.41.71,1.59,1.59,0,0,1-.24.82,3.27,3.27,0,0,0-.24,1.26,0.66,0.66,0,0,1-.25.51,0.74,0.74,0,0,0,0,.73,2.07,2.07,0,0,1-.65,1.19,5,5,0,0,0-.61,1.42,2.19,2.19,0,0,1-.21.57c-0.41.52-.86,1.12-1.09,1.35s-0.39.54-.94,1.2a8.87,8.87,0,0,1-1,1.16,3.12,3.12,0,0,1-.66.5,0.74,0.74,0,0,0-.44.52,5.9,5.9,0,0,1-1.12,1.07,7.81,7.81,0,0,0-1.23,1.2,7.65,7.65,0,0,1-.82.61c-0.33.39-.76,0.75-1,1a8,8,0,0,1-.79.68,6.72,6.72,0,0,0-.9.81,1.19,1.19,0,0,1-.68.25,1.11,1.11,0,0,1-.88,0c-0.32-.07-0.15-0.64,0-0.9s0.45-.7.61-1.1a6.63,6.63,0,0,0,.3-1,1.29,1.29,0,0,1,.35-0.44,5.92,5.92,0,0,1,.39-0.84,3,3,0,0,1,.67-0.67,2.42,2.42,0,0,0,.4-1,6.39,6.39,0,0,0,.38-1,1.44,1.44,0,0,0-.12-0.57,5.63,5.63,0,0,0,.53-0.9,11.86,11.86,0,0,1,.47-1.33,3.51,3.51,0,0,0,.32-1.1,2.68,2.68,0,0,1,.57-0.71,6.9,6.9,0,0,1,.58-0.88,8.46,8.46,0,0,0,.38-1.54,6,6,0,0,0,.53-0.61,2.55,2.55,0,0,0,.43-1.23,0.8,0.8,0,0,1,.36-0.62,9.3,9.3,0,0,0,.46-0.87l0.66-1.66a0.89,0.89,0,0,1,.24-0.6,2.55,2.55,0,0,0,.52-1,3.09,3.09,0,0,0,.31-0.64,7.31,7.31,0,0,1,.73-1.69A5.9,5.9,0,0,0,124,0h-9.8a3.89,3.89,0,0,1-.2.55c-0.19.38-.39,0.84-0.68,1.42a5.06,5.06,0,0,1-.48,1.21,0.73,0.73,0,0,0-.25.78,4.86,4.86,0,0,1-.4,1.3,7.14,7.14,0,0,1-.57,1c-0.18.45-.45,1.28-0.66,1.66a1,1,0,0,0-.32.51,1.76,1.76,0,0,1-.31.93,9.61,9.61,0,0,0-.46,1.16l-0.46,1.16a4,4,0,0,1-.37.79,5.52,5.52,0,0,0-.12,1.18,4.08,4.08,0,0,0-.23,1c0,0.36-.46.28-0.6,0.64a4.73,4.73,0,0,0-.38,1.25,5.12,5.12,0,0,1-.41.37c-0.24.17-.76,0.71-1.08,1s-0.44.57-.9,1a26.44,26.44,0,0,1-2.06,1.68c-0.26.2-.9,0.83-1.1,1a2.22,2.22,0,0,0-.69.52A5.68,5.68,0,0,1,100,23a2.33,2.33,0,0,1-1.15.59c-0.28-.07.14-0.47,0.19-0.71a0.56,0.56,0,0,1,.41-0.49c0.23,0,.11-0.39.15-0.6a1.53,1.53,0,0,0,.09-0.66,5.53,5.53,0,0,1,.52-1.32,2,2,0,0,1,.5-0.37,2.16,2.16,0,0,0,.34-1.09,2.07,2.07,0,0,0,0-.68,0.81,0.81,0,0,1,.53-0.58,3.16,3.16,0,0,0,.51-1.29,1.21,1.21,0,0,1,.38-0.42,0.9,0.9,0,0,0,.1-0.57,0.58,0.58,0,0,1,.29-0.5,1.15,1.15,0,0,0,.29-0.85,2.27,2.27,0,0,1,.42-0.84,2.24,2.24,0,0,1,.65-0.62,1.81,1.81,0,0,0,.39-0.84,2.06,2.06,0,0,0,.35-0.44,3.25,3.25,0,0,1,.38-1,2.81,2.81,0,0,0,.5-1.55,2.38,2.38,0,0,1,.37-1.37,3,3,0,0,0-.1-1.67,3.24,3.24,0,0,0-.82-1.32c-0.24-.27-0.68-0.5-0.92-0.77s-0.42-.42-0.66-0.71a7.07,7.07,0,0,0,.26-0.7,1.45,1.45,0,0,0,.13-0.87A0.78,0.78,0,0,1,104.34,0H87.15L87,0.19c-0.37.52-1.54,2.45-1.86,3s-0.81,1-1.4,2A27.29,27.29,0,0,0,82.2,7.9c-0.48,1-1.2,2.37-1.37,2.91a0.87,0.87,0,0,1-.35.65,7.13,7.13,0,0,1-.23.7A7.92,7.92,0,0,0,80,13c-0.23.35-.22,0.66-0.43,1a2.18,2.18,0,0,0-.19,1A8.28,8.28,0,0,1,79,16.28c-0.11.48-.29,0.72-0.39,1.2s-0.43,1.75-.63,2.37a3,3,0,0,0-.08.33,3.63,3.63,0,0,1-.7.33,8.26,8.26,0,0,0-1,.42c-0.63.26-1.08,0.4-2.31,1A18.25,18.25,0,0,1,71.4,23a2.63,2.63,0,0,0-1,.56c-0.29.19-.61,0.11-0.87,0.31a24.8,24.8,0,0,1-2.43,1c-1.27.55-2.67,1-3.72,1.55a16.46,16.46,0,0,1-3,1.06c-0.39.11-.66,0-0.62-0.2a0.84,0.84,0,0,1,.56-0.52A3.77,3.77,0,0,0,61.07,26a8.26,8.26,0,0,0,1.06-1A2,2,0,0,1,63,24.17a2,2,0,0,0,.84-0.68,7.63,7.63,0,0,1,1-.76,8.54,8.54,0,0,0,1-.91,2.35,2.35,0,0,1,.62-0.67,5.75,5.75,0,0,0,1-.63,8.26,8.26,0,0,0,1.4-1.33,3.14,3.14,0,0,1,.61-0.76c0.19-.14.6-0.51,1-0.83a5.81,5.81,0,0,0,.81-1A1.74,1.74,0,0,1,72,16.27a7.63,7.63,0,0,0,1.33-.92,3.18,3.18,0,0,0,.86-1.19c0.14-.25.48-0.21,0.27-0.46s0.13-.87-0.07-1.25A7.86,7.86,0,0,0,74,11.39c-0.23-.31-0.45-0.75-0.85-1.39a2.09,2.09,0,0,0-.94-0.94c-0.33-.17-0.6-0.37-0.89-0.53a11,11,0,0,0-1.5-.64,1.86,1.86,0,0,0-1.35.43,6.38,6.38,0,0,1-2,.61A7.4,7.4,0,0,1,64,8.82c-0.72-.07-0.59-0.28-0.52-0.47A3.6,3.6,0,0,1,64.4,8a4.29,4.29,0,0,0,1-.91,3.24,3.24,0,0,1,.87-0.53c0.36-.25.46-0.17,0.91-0.43s1.41-.8,1.65-1a2,2,0,0,1,.82-0.42,2.86,2.86,0,0,0,1-.65,7.33,7.33,0,0,1,2.19-.88,3,3,0,0,0,1.44-.65,1.71,1.71,0,0,1,.81-0.16,4.69,4.69,0,0,0,1.26-.42c0.31-.23.39,0,0.76,0.08a2.21,2.21,0,0,0,1-.2,7.52,7.52,0,0,1,.94-0.28,1.2,1.2,0,0,0,.73-0.06,0.42,0.42,0,0,1,.58.12l0,0.08c0.17,0.24.51-.19,0.94-0.37A13.19,13.19,0,0,0,82.73.65c0.35-.21,0-0.39.14-0.47A1.07,1.07,0,0,0,83.1,0H61.17a4.17,4.17,0,0,0-.48.34,4.48,4.48,0,0,0-.82.81,2.4,2.4,0,0,0-.69.63,1.6,1.6,0,0,1-.64.51,1.89,1.89,0,0,0-.68.46C57.77,3,57.2,3,57,3.23a3.27,3.27,0,0,1-.88.67,9.08,9.08,0,0,0-.59,1,7.62,7.62,0,0,0-1,2.4,5,5,0,0,1-.32,1.1,3.19,3.19,0,0,0,.26,1.27c0.12,0.43.53,1.61,0.7,2.06a4.8,4.8,0,0,0,.44,1,0.75,0.75,0,0,0,.64.46c0.22,0,.15.15,0.21,0.29a2.33,2.33,0,0,0,.46.39,2.84,2.84,0,0,0,.55.39,1.28,1.28,0,0,1,.39.42,2.23,2.23,0,0,0,.36.12A1.28,1.28,0,0,0,59,15a1.24,1.24,0,0,1,.7-0.07,2.67,2.67,0,0,1,.86.25c0.19,0.1-.11.28-0.23,0.49s-0.29.15-.4,0.34a5.16,5.16,0,0,0-.48.33c-0.08.2-.34,0.42-0.52,0.73a5.28,5.28,0,0,1-.76.6c-0.22.26-.47,0.52-0.9,1s-0.94,1.06-1.35,1.48a11.13,11.13,0,0,0-1,1.11,3.23,3.23,0,0,1-.4.63,0.53,0.53,0,0,0-.25.4,0.87,0.87,0,0,1-.53.31,3.32,3.32,0,0,0-.49.5,2.4,2.4,0,0,0-.35.82,1.67,1.67,0,0,0-.45.55,0.46,0.46,0,0,1-.18.38s-0.43.09-.37,0.38a0.49,0.49,0,0,1-.43.53,0.45,0.45,0,0,0-.34.52v1.2a10.07,10.07,0,0,0,.44,1.75,3.37,3.37,0,0,0,.88,1.09,4.83,4.83,0,0,0,.83,1.33,9.36,9.36,0,0,0,1.57.89,4.29,4.29,0,0,0,1.19.43h1.28c0.49,0,.91-0.08,1.25-0.07a7.53,7.53,0,0,0,1,0,3.4,3.4,0,0,0,1-.29c0.38-.2,1.45-0.78,1.94-1A5.91,5.91,0,0,1,64,31.16a5.34,5.34,0,0,0,.78-0.52A10.94,10.94,0,0,0,66.29,30l2-1c0.33-.18.56-0.65,0.86-0.84a5,5,0,0,0,1-.74,2.19,2.19,0,0,1,1.14-.56,4.6,4.6,0,0,0,1.1-.57A2.32,2.32,0,0,0,73,25.81a2.84,2.84,0,0,1,.8-0.25c0.21-.09.53-0.36,0.75-0.45a3.25,3.25,0,0,0,.78-0.43,8.78,8.78,0,0,1,.9-0.61c0.29-.19.91-0.43,1.21-0.62l0.17-.15a8.22,8.22,0,0,0,1.29,2.87,15.84,15.84,0,0,0,2,2.06,3.75,3.75,0,0,0,1.57.58c0.29,0,.54.08,0.92,0.1A4.66,4.66,0,0,0,85,28.65c0.69-.21,1.07-0.27,1.32-0.35a1.69,1.69,0,0,0,.82-0.42A2.62,2.62,0,0,1,88,27.26a4.92,4.92,0,0,0,1-.65,5.75,5.75,0,0,0,.53-0.89,9.92,9.92,0,0,1,1-.67c0.19-.14.42-0.4,0.73-0.63a10.45,10.45,0,0,1,.89-0.7,1.92,1.92,0,0,0,.35-0.27,4.88,4.88,0,0,0,.76,2.11,6.3,6.3,0,0,0,2,1.58,10.73,10.73,0,0,0,1.8.76,4.46,4.46,0,0,0,1.44.13,7.75,7.75,0,0,0,1-.42,5.2,5.2,0,0,0,.72-0.15,0.82,0.82,0,0,0,.35-0.43,1,1,0,0,1,.71-0.24,2.06,2.06,0,0,0,.76-0.27,0.89,0.89,0,0,0,.57-0.21c0.06-.21.26-0.11,0.58-0.25a4.82,4.82,0,0,0,.65-0.66,1.47,1.47,0,0,0,.74-0.54,0.77,0.77,0,0,1,.5-0.37c0.24-.17.4-0.45,0.64-0.62s0.49-.68.68-0.83a4.19,4.19,0,0,0,.6-0.86,0.72,0.72,0,0,1,.32-0.27,3.91,3.91,0,0,0,0,.58c0.1,0.62.08,0.67-.12,0.89s-0.3.17,0.17,0.59c0,0,.94,1.31,1.17,1.75a3.73,3.73,0,0,0,1,.91,4,4,0,0,0,1.72.51,6.85,6.85,0,0,0,2,0c0.43-.06.85-0.07,1.28-0.14a11.18,11.18,0,0,0,1.64-.46A6.71,6.71,0,0,0,118,25.11c0.08-.2.66-0.5,0.72-0.65a7.45,7.45,0,0,1,.78-0.51,3.11,3.11,0,0,0,.31-0.64,4.2,4.2,0,0,0,.8-0.56,2.17,2.17,0,0,1,.71-0.77,2.73,2.73,0,0,0,.52-1,6.16,6.16,0,0,0,.77-0.63,5.1,5.1,0,0,1,.53-0.66,8.67,8.67,0,0,0-.18.87,6,6,0,0,1-.1.79,3.93,3.93,0,0,1-.65,1.32c-0.15.29-.37,0.16-0.26,0.33a7.22,7.22,0,0,1,.1.74,5.85,5.85,0,0,0,.2,1,7.53,7.53,0,0,1,.26.89,2.67,2.67,0,0,0,.4.86,6.2,6.2,0,0,0,.52.9c0.28,0.29.72,0.94,1,1.23a2.88,2.88,0,0,0,1.32.65,3.14,3.14,0,0,0,1.07.16,4.8,4.8,0,0,1,1.12.27,1.65,1.65,0,0,0,.9,0c0.39-.11.72-0.15,1-0.25A5.5,5.5,0,0,0,131,29a4.06,4.06,0,0,1,1.17-.63c0.27,0,.2-0.4.2-0.4a0.59,0.59,0,0,1,.33-0.39,4.49,4.49,0,0,0,.92-0.55,6.33,6.33,0,0,0,.83-0.55,1,1,0,0,0,.22-0.66c0-.22-0.07-0.38.27-0.46s0.18-.45.41-0.49a0.84,0.84,0,0,0,.46-0.61,4.21,4.21,0,0,1,.7-0.77c0.25-.3,0-0.18,0-0.41a2.33,2.33,0,0,1,.5-0.81c0.19-.36.43-0.53,0.52-0.76a1.4,1.4,0,0,0,.11-0.83,4.13,4.13,0,0,1,.54-0.7,4.62,4.62,0,0,0,.53-0.79l0.5-.73c0,0.21-.07.45-0.09,0.68a5.27,5.27,0,0,1-.22,1,2.88,2.88,0,0,1-.28.94,1.49,1.49,0,0,0-.12.74,2.52,2.52,0,0,0,.16.81,5.22,5.22,0,0,1-.45.92,1.41,1.41,0,0,0,0,.91,6.7,6.7,0,0,0,.13.88c0.15,0.28.34,0.57,0.47,0.8s0.7,0.54.8,0.75a3.41,3.41,0,0,0,1.13.8c0.26,0.1.58,0.41,0.75,0.43a7.58,7.58,0,0,1,.94.5,1.23,1.23,0,0,0,1,.08,8.08,8.08,0,0,1,.83.11,3.47,3.47,0,0,1,1,.19,0.65,0.65,0,0,0,.59-0.16,0.94,0.94,0,0,1,.6-0.07,1.43,1.43,0,0,0,.84-0.37,3.4,3.4,0,0,1,.63-0.58,2.09,2.09,0,0,0,.72-0.5,0.72,0.72,0,0,1,.44-0.35,3.75,3.75,0,0,0,.81-0.82,3.91,3.91,0,0,1,.83-0.77,0.81,0.81,0,0,0,.45-0.7,2.54,2.54,0,0,1,.69-0.64,8.26,8.26,0,0,1,.67-0.92,4.29,4.29,0,0,0,.65-1.32,3.12,3.12,0,0,1,.67-1.13,1.33,1.33,0,0,0,.41-0.58,1.12,1.12,0,0,1,.53-0.45c0.16-.07.4-0.67,0.59-0.82s0.12,0.14.1,0.3a6.66,6.66,0,0,1-.49,1.12c-0.19.36-.63,1.59-0.78,2s-0.25.73-.4,1.11-0.34,1-.5,1.38-0.34,1.31-.4,1.46l-0.55,1.4c-0.18.45-1,2-1.1,2.32a1.53,1.53,0,0,1-.52.54c-0.15.16,0,.39-0.22,0.79s-0.72,1.38-.8,1.57a5.54,5.54,0,0,1-.6,1.07,5.42,5.42,0,0,0-.61.77,1,1,0,0,1-.32.7,2.87,2.87,0,0,0-.56,1c-0.24.39-.43,0.53-0.72,0.94a8.39,8.39,0,0,1-1.19,1.45,3.46,3.46,0,0,0-.73.63,1,1,0,0,1-.69.3,1,1,0,0,0-.22.66c-0.16.29-.25,0.08-0.49,0.24a11,11,0,0,1-.93.59,8,8,0,0,1-1.53.66,1.68,1.68,0,0,1-.7-0.1c-0.27,0-.46,0-0.5.15a1.4,1.4,0,0,0,.69.36c0.2,0.17-.06.37-0.11,0.61s-0.13.43,0.12,0.48a6,6,0,0,1,.79.31,1.49,1.49,0,0,0,.75,0,0.62,0.62,0,0,1,.52.12,1.8,1.8,0,0,0,.76.08,2,2,0,0,0,.76-0.14,5,5,0,0,0,.75,0,2.93,2.93,0,0,1,.91-0.21,3.38,3.38,0,0,0,1.1-.35c0.28-.15.54-0.14,0.71-0.24a4.83,4.83,0,0,0,.72-0.59,5.24,5.24,0,0,1,.8-0.69,3,3,0,0,0,.84-0.8,1.73,1.73,0,0,1,.5-0.59,3,3,0,0,1,.82-0.42A5.45,5.45,0,0,0,152,39a2,2,0,0,0,.56-0.65A1.78,1.78,0,0,0,153,38c0.09-.23.18-0.45,0.38-0.42a1.47,1.47,0,0,0,.47-0.73,4.09,4.09,0,0,1,.78-0.74,2.13,2.13,0,0,0,.49-0.9,4.74,4.74,0,0,1,.77-0.43,1.46,1.46,0,0,0,.36-0.76,1.12,1.12,0,0,1,.47-0.37,3.37,3.37,0,0,0,.33-0.69c0.12-.16.29-0.73,0.43-0.88a1.63,1.63,0,0,0,.36-0.76,1.45,1.45,0,0,1,.45-0.84,1.11,1.11,0,0,0,.29-1c-0.09-.3.22-0.32,0.32-0.51a2,2,0,0,0,.14-0.79,1,1,0,0,1,.44-0.38c0.07-.12.34-0.8,0.48-1.06a2.6,2.6,0,0,1,.45-0.84A1.62,1.62,0,0,0,161,25a0.53,0.53,0,0,1,.23-0.58,1.38,1.38,0,0,0,.45-0.76,0.81,0.81,0,0,1,.21-0.53,1.42,1.42,0,0,0,.38-0.81c0-.18.27-0.39,0.27-0.59A8.24,8.24,0,0,1,163,20a2,2,0,0,1,.51-0.91,1.06,1.06,0,0,0,.43-0.71,8,8,0,0,1,.44-1c0.08-.2.7-1,0.87-1.32a7,7,0,0,1,.61-1.1,2.89,2.89,0,0,0,.15-0.9c0.06-.15.34-0.42,0.49-0.65a1.44,1.44,0,0,0,.27-0.74,2,2,0,0,1,.43-0.56c0.15-.23.41-0.74,0.54-0.92a0.72,0.72,0,0,0-.09-0.59,3.67,3.67,0,0,1,.41-0.51,3.66,3.66,0,0,1,.56-0.83,2.76,2.76,0,0,0,.23-1,2.07,2.07,0,0,1,.43-0.94,5.85,5.85,0,0,0,.31-0.87,3.89,3.89,0,0,0,.28-1.08c0-.28,0-0.45.14-0.5a0.59,0.59,0,0,0,.32-0.51,1,1,0,0,1,.08-0.58,0.61,0.61,0,0,0,0-.69A1.46,1.46,0,0,1,170.35,2.18ZM95.17,10.82a1.42,1.42,0,0,1-.23.91,5.27,5.27,0,0,0-.55,1c-0.13.34,0.07,0.38-.06,1a12.26,12.26,0,0,1-.56,1.53,2.7,2.7,0,0,0-.3.76,8.85,8.85,0,0,1-.3,1.19c0,0.33-.2.82-0.38,1.53l-0.49.32c-0.62.37-.94,0.94-1.61,1.42a24,24,0,0,1-2.31,1.84,3.79,3.79,0,0,0-.9.83c-0.35.21-.56,0.3-1.13,0.65s-1.42.93-1.61,1,0.23-.92.48-1.43a4.31,4.31,0,0,0,.19-1.15,13,13,0,0,0,.43-1.75,1.75,1.75,0,0,1,.78-1.23,1.46,1.46,0,0,0,.4-0.86,7.63,7.63,0,0,1,.57-1,2.18,2.18,0,0,1,.22-0.52,3.91,3.91,0,0,0,.51-0.33c0.2-.18.07-0.41,0.35-0.78a6,6,0,0,1,.94-0.8,2.45,2.45,0,0,0,.78-0.74,2.92,2.92,0,0,1,.53-0.45,0.94,0.94,0,0,1,.44-0.66,9.53,9.53,0,0,0,1-.6,9.2,9.2,0,0,0,1.22-.87,3.13,3.13,0,0,1,.84-0.58c0.17-.07.4-0.21,0.75-0.37v0.09Zm1.65-7.14a2.82,2.82,0,0,1-.64,1.41c-0.26.33-1.06,1-1.39,1.42a22.07,22.07,0,0,0-1.5,2.56,5.63,5.63,0,0,1-1.11,1.36,8.69,8.69,0,0,1-1.42,1.14,9.33,9.33,0,0,0,.41-0.88,1,1,0,0,1,.34-0.75l0,0a3.29,3.29,0,0,0,.65-1.41,2.12,2.12,0,0,0,.4-0.67A1,1,0,0,1,92.94,7a12.41,12.41,0,0,0,1-1.62c0.31-.45.65-0.75,1-1.2a3.35,3.35,0,0,1,.82-1.08,3.66,3.66,0,0,0,.79-1.88c0-.26.17-0.33,0.27,0A15.38,15.38,0,0,1,96.82,3.68Z" fill="#21252b"/></svg>