<svg viewBox="0 0 282 102" xmlns="http://www.w3.org/2000/svg">
  <g stroke="currentcolor">
    <path d="M13 15H113" />
    <path d="M63 101.603L113 15" />
    <path d="M13 15H113" />
    <path d="M182 61H189V68" fill="none" />
    <path d="M182 1H282" stroke-width="2" />
    <path d="M47 25C47 37.7025 36.7025 48 24 48C11.2975 48 1 37.7025 1 25C1 12.2975 11.2975 2 24 2C36.7025 2 47 12.2975 47 25Z" fill="none" stroke-width="2" />
    <g stroke-dasharray="2 2">
      <path d="M13 35H113" />
      <path d="M63 101.603L13 15" />
      <path d="M13 35H113" />
      <path d="M63 101.603L13 15" />
      <g stroke-width="2">
        <path d="M182 68H282" />
        <path d="M182 1L239.735 101"  />
        <path d="M182 68V1" />
      </g>
    </g>
  </g>
  <path d="M58.5596 10H57.6514V3.97949L55.8301 4.64844V3.82812L58.418 2.85645H58.5596V10ZM65.6641 6.96777C65.6641 8.02572 65.4834 8.81185 65.1221 9.32617C64.7607 9.84049 64.196 10.0977 63.4277 10.0977C62.6693 10.0977 62.1077 9.84701 61.7432 9.3457C61.3786 8.84115 61.1898 8.08919 61.1768 7.08984V5.88379C61.1768 4.83887 61.3574 4.0625 61.7188 3.55469C62.0801 3.04688 62.6465 2.79297 63.418 2.79297C64.1829 2.79297 64.7461 3.03874 65.1074 3.53027C65.4688 4.01855 65.6543 4.77376 65.6641 5.7959V6.96777ZM64.7607 5.73242C64.7607 4.96745 64.6533 4.41081 64.4385 4.0625C64.2236 3.71094 63.8835 3.53516 63.418 3.53516C62.9557 3.53516 62.6188 3.70931 62.4072 4.05762C62.1956 4.40592 62.0866 4.94141 62.0801 5.66406V7.10938C62.0801 7.8776 62.1908 8.44564 62.4121 8.81348C62.6367 9.17806 62.9753 9.36035 63.4277 9.36035C63.8737 9.36035 64.2041 9.18783 64.4189 8.84277C64.637 8.49772 64.751 7.9541 64.7607 7.21191V5.73242ZM71.2793 6.96777C71.2793 8.02572 71.0986 8.81185 70.7373 9.32617C70.376 9.84049 69.8112 10.0977 69.043 10.0977C68.2845 10.0977 67.723 9.84701 67.3584 9.3457C66.9938 8.84115 66.805 8.08919 66.792 7.08984V5.88379C66.792 4.83887 66.9727 4.0625 67.334 3.55469C67.6953 3.04688 68.2617 2.79297 69.0332 2.79297C69.7982 2.79297 70.3613 3.03874 70.7227 3.53027C71.084 4.01855 71.2695 4.77376 71.2793 5.7959V6.96777ZM70.376 5.73242C70.376 4.96745 70.2686 4.41081 70.0537 4.0625C69.8389 3.71094 69.4987 3.53516 69.0332 3.53516C68.571 3.53516 68.234 3.70931 68.0225 4.05762C67.8109 4.40592 67.7018 4.94141 67.6953 5.66406V7.10938C67.6953 7.8776 67.806 8.44564 68.0273 8.81348C68.252 9.17806 68.5905 9.36035 69.043 9.36035C69.4889 9.36035 69.8193 9.18783 70.0342 8.84277C70.2523 8.49772 70.3662 7.9541 70.376 7.21191V5.73242Z" fill="black"/>
  <path d="M95.5596 64H94.6514V57.9795L92.8301 58.6484V57.8281L95.418 56.8564H95.5596V64ZM102.664 60.9678C102.664 62.0257 102.483 62.8118 102.122 63.3262C101.761 63.8405 101.196 64.0977 100.428 64.0977C99.6693 64.0977 99.1077 63.847 98.7432 63.3457C98.3786 62.8411 98.1898 62.0892 98.1768 61.0898V59.8838C98.1768 58.8389 98.3574 58.0625 98.7188 57.5547C99.0801 57.0469 99.6465 56.793 100.418 56.793C101.183 56.793 101.746 57.0387 102.107 57.5303C102.469 58.0186 102.654 58.7738 102.664 59.7959V60.9678ZM101.761 59.7324C101.761 58.9674 101.653 58.4108 101.438 58.0625C101.224 57.7109 100.883 57.5352 100.418 57.5352C99.9557 57.5352 99.6188 57.7093 99.4072 58.0576C99.1956 58.4059 99.0866 58.9414 99.0801 59.6641V61.1094C99.0801 61.8776 99.1908 62.4456 99.4121 62.8135C99.6367 63.1781 99.9753 63.3604 100.428 63.3604C100.874 63.3604 101.204 63.1878 101.419 62.8428C101.637 62.4977 101.751 61.9541 101.761 61.2119V59.7324ZM108.279 60.9678C108.279 62.0257 108.099 62.8118 107.737 63.3262C107.376 63.8405 106.811 64.0977 106.043 64.0977C105.285 64.0977 104.723 63.847 104.358 63.3457C103.994 62.8411 103.805 62.0892 103.792 61.0898V59.8838C103.792 58.8389 103.973 58.0625 104.334 57.5547C104.695 57.0469 105.262 56.793 106.033 56.793C106.798 56.793 107.361 57.0387 107.723 57.5303C108.084 58.0186 108.27 58.7738 108.279 59.7959V60.9678ZM107.376 59.7324C107.376 58.9674 107.269 58.4108 107.054 58.0625C106.839 57.7109 106.499 57.5352 106.033 57.5352C105.571 57.5352 105.234 57.7093 105.022 58.0576C104.811 58.4059 104.702 58.9414 104.695 59.6641V61.1094C104.695 61.8776 104.806 62.4456 105.027 62.8135C105.252 63.1781 105.59 63.3604 106.043 63.3604C106.489 63.3604 106.819 63.1878 107.034 62.8428C107.252 62.4977 107.366 61.9541 107.376 61.2119V59.7324Z" fill="black"/>
  <path d="M32.5947 73V65.8906H34.9189C35.6904 65.8906 36.2699 66.0501 36.6572 66.3691C37.0479 66.6882 37.2432 67.1602 37.2432 67.7852C37.2432 68.1172 37.1488 68.4118 36.96 68.6689C36.7712 68.9229 36.514 69.1198 36.1885 69.2598C36.5726 69.3672 36.8753 69.5723 37.0967 69.875C37.3213 70.1745 37.4336 70.5326 37.4336 70.9492C37.4336 71.5872 37.2269 72.0885 36.8135 72.4531C36.4001 72.8177 35.8158 73 35.0605 73H32.5947ZM33.5322 69.6748V72.2334H35.0801C35.5163 72.2334 35.8597 72.1211 36.1104 71.8965C36.3643 71.6686 36.4912 71.3561 36.4912 70.959C36.4912 70.1029 36.0257 69.6748 35.0947 69.6748H33.5322ZM33.5322 68.9229H34.9482C35.3584 68.9229 35.6855 68.8203 35.9297 68.6152C36.1771 68.4102 36.3008 68.1318 36.3008 67.7803C36.3008 67.3896 36.1868 67.1064 35.959 66.9307C35.7311 66.7516 35.3844 66.6621 34.9189 66.6621H33.5322V68.9229Z" fill="black"/>
  <path d="M29.2275 26.1445H26.249L25.5801 28H24.6133L27.3281 20.8906H28.1484L30.8682 28H29.9062L29.2275 26.1445ZM26.5322 25.373H28.9492L27.7383 22.0479L26.5322 25.373Z" fill="black"/>
  <path d="M213.228 35.1445H210.249L209.58 37H208.613L211.328 29.8906H212.148L214.868 37H213.906L213.228 35.1445ZM210.532 34.373H212.949L211.738 31.0479L210.532 34.373Z" fill="black"/>
  <path d="M169.249 37H164.591V36.3506L167.052 33.6162C167.416 33.2028 167.667 32.8675 167.804 32.6104C167.944 32.3499 168.014 32.0814 168.014 31.8047C168.014 31.4336 167.901 31.1292 167.677 30.8916C167.452 30.654 167.153 30.5352 166.778 30.5352C166.329 30.5352 165.979 30.6637 165.729 30.9209C165.481 31.1748 165.357 31.5296 165.357 31.9854H164.454C164.454 31.3311 164.664 30.8021 165.084 30.3984C165.507 29.9948 166.072 29.793 166.778 29.793C167.439 29.793 167.962 29.9671 168.346 30.3154C168.73 30.6605 168.922 31.1211 168.922 31.6973C168.922 32.3971 168.476 33.2305 167.584 34.1973L165.68 36.2627H169.249V37ZM174.664 33.9678C174.664 35.0257 174.483 35.8118 174.122 36.3262C173.761 36.8405 173.196 37.0977 172.428 37.0977C171.669 37.0977 171.108 36.847 170.743 36.3457C170.379 35.8411 170.19 35.0892 170.177 34.0898V32.8838C170.177 31.8389 170.357 31.0625 170.719 30.5547C171.08 30.0469 171.646 29.793 172.418 29.793C173.183 29.793 173.746 30.0387 174.107 30.5303C174.469 31.0186 174.654 31.7738 174.664 32.7959V33.9678ZM173.761 32.7324C173.761 31.9674 173.653 31.4108 173.438 31.0625C173.224 30.7109 172.883 30.5352 172.418 30.5352C171.956 30.5352 171.619 30.7093 171.407 31.0576C171.196 31.4059 171.087 31.9414 171.08 32.6641V34.1094C171.08 34.8776 171.191 35.4456 171.412 35.8135C171.637 36.1781 171.975 36.3604 172.428 36.3604C172.874 36.3604 173.204 36.1878 173.419 35.8428C173.637 35.4977 173.751 34.9541 173.761 34.2119V32.7324Z" fill="black"/>
  <path d="M197.165 54.8857V55.6523H196.999C196.296 55.6654 195.736 55.8737 195.319 56.2773C194.903 56.681 194.662 57.249 194.597 57.9814C194.971 57.5518 195.482 57.3369 196.13 57.3369C196.748 57.3369 197.242 57.555 197.609 57.9912C197.98 58.4274 198.166 58.9906 198.166 59.6807C198.166 60.4131 197.966 60.999 197.565 61.4385C197.168 61.8779 196.634 62.0977 195.964 62.0977C195.284 62.0977 194.732 61.8372 194.309 61.3164C193.885 60.7923 193.674 60.1185 193.674 59.2949V58.9482C193.674 57.6396 193.952 56.6403 194.509 55.9502C195.069 55.2568 195.9 54.902 197.004 54.8857H197.165ZM195.979 58.0889C195.669 58.0889 195.384 58.1816 195.124 58.3672C194.864 58.5527 194.683 58.7855 194.582 59.0654V59.3975C194.582 59.9834 194.714 60.4554 194.978 60.8135C195.241 61.1715 195.57 61.3506 195.964 61.3506C196.371 61.3506 196.69 61.2008 196.921 60.9014C197.155 60.6019 197.272 60.2096 197.272 59.7246C197.272 59.2363 197.154 58.8424 196.916 58.543C196.682 58.2402 196.369 58.0889 195.979 58.0889ZM203.693 58.9678C203.693 60.0257 203.513 60.8118 203.151 61.3262C202.79 61.8405 202.225 62.0977 201.457 62.0977C200.699 62.0977 200.137 61.847 199.772 61.3457C199.408 60.8411 199.219 60.0892 199.206 59.0898V57.8838C199.206 56.8389 199.387 56.0625 199.748 55.5547C200.109 55.0469 200.676 54.793 201.447 54.793C202.212 54.793 202.775 55.0387 203.137 55.5303C203.498 56.0186 203.684 56.7738 203.693 57.7959V58.9678ZM202.79 57.7324C202.79 56.9674 202.683 56.4108 202.468 56.0625C202.253 55.7109 201.913 55.5352 201.447 55.5352C200.985 55.5352 200.648 55.7093 200.437 56.0576C200.225 56.4059 200.116 56.9414 200.109 57.6641V59.1094C200.109 59.8776 200.22 60.4456 200.441 60.8135C200.666 61.1781 201.005 61.3604 201.457 61.3604C201.903 61.3604 202.233 61.1878 202.448 60.8428C202.666 60.4977 202.78 59.9541 202.79 59.2119V57.7324ZM204.895 56.0625C204.895 55.724 205.015 55.4277 205.256 55.1738C205.5 54.9199 205.795 54.793 206.14 54.793C206.478 54.793 206.766 54.9199 207.004 55.1738C207.245 55.4245 207.365 55.7207 207.365 56.0625C207.365 56.4076 207.245 56.7021 207.004 56.9463C206.766 57.1904 206.478 57.3125 206.14 57.3125C205.798 57.3125 205.505 57.1904 205.261 56.9463C205.017 56.7021 204.895 56.4076 204.895 56.0625ZM206.14 56.6875C206.315 56.6875 206.464 56.6305 206.584 56.5166C206.704 56.3994 206.765 56.248 206.765 56.0625C206.765 55.8737 206.704 55.7191 206.584 55.5986C206.464 55.4749 206.315 55.4131 206.14 55.4131C205.961 55.4131 205.809 55.4782 205.686 55.6084C205.565 55.7354 205.505 55.8867 205.505 56.0625C205.505 56.2383 205.565 56.3864 205.686 56.5068C205.809 56.6273 205.961 56.6875 206.14 56.6875Z" fill="black"/>
  <path d="M152.707 25.7071C153.098 25.3166 153.098 24.6834 152.707 24.2929L146.343 17.9289C145.953 17.5384 145.319 17.5384 144.929 17.9289C144.538 18.3195 144.538 18.9526 144.929 19.3431L150.586 25L144.929 30.6569C144.538 31.0474 144.538 31.6805 144.929 32.0711C145.319 32.4616 145.953 32.4616 146.343 32.0711L152.707 25.7071ZM48 26L152 26V24L48 24V26Z" fill="black"/>
</svg>
