<svg viewBox="0 0 101 101" xmlns="http://www.w3.org/2000/svg">
  <g stroke="currentcolor">
    <path d="M0 14H100" />
    <path d="M0 34H100"  stroke-dasharray="2 2" />
    <path d="M50 100.603L100 14" />
    <path d="M50 100.603L10 31.3205" />
  </g>
  <path d="M44.5596 9H43.6514V2.97949L41.8301 3.64844V2.82812L44.418 1.85645H44.5596V9ZM51.6641 5.96777C51.6641 7.02572 51.4834 7.81185 51.1221 8.32617C50.7607 8.84049 50.196 9.09766 49.4277 9.09766C48.6693 9.09766 48.1077 8.84701 47.7432 8.3457C47.3786 7.84115 47.1898 7.08919 47.1768 6.08984V4.88379C47.1768 3.83887 47.3574 3.0625 47.7188 2.55469C48.0801 2.04688 48.6465 1.79297 49.418 1.79297C50.1829 1.79297 50.7461 2.03874 51.1074 2.53027C51.4688 3.01855 51.6543 3.77376 51.6641 4.7959V5.96777ZM50.7607 4.73242C50.7607 3.96745 50.6533 3.41081 50.4385 3.0625C50.2236 2.71094 49.8835 2.53516 49.418 2.53516C48.9557 2.53516 48.6188 2.70931 48.4072 3.05762C48.1956 3.40592 48.0866 3.94141 48.0801 4.66406V6.10938C48.0801 6.8776 48.1908 7.44564 48.4121 7.81348C48.6367 8.17806 48.9753 8.36035 49.4277 8.36035C49.8737 8.36035 50.2041 8.18783 50.4189 7.84277C50.637 7.49772 50.751 6.9541 50.7607 6.21191V4.73242ZM57.2793 5.96777C57.2793 7.02572 57.0986 7.81185 56.7373 8.32617C56.376 8.84049 55.8112 9.09766 55.043 9.09766C54.2845 9.09766 53.723 8.84701 53.3584 8.3457C52.9938 7.84115 52.805 7.08919 52.792 6.08984V4.88379C52.792 3.83887 52.9727 3.0625 53.334 2.55469C53.6953 2.04688 54.2617 1.79297 55.0332 1.79297C55.7982 1.79297 56.3613 2.03874 56.7227 2.53027C57.084 3.01855 57.2695 3.77376 57.2793 4.7959V5.96777ZM56.376 4.73242C56.376 3.96745 56.2686 3.41081 56.0537 3.0625C55.8389 2.71094 55.4987 2.53516 55.0332 2.53516C54.571 2.53516 54.234 2.70931 54.0225 3.05762C53.8109 3.40592 53.7018 3.94141 53.6953 4.66406V6.10938C53.6953 6.8776 53.806 7.44564 54.0273 7.81348C54.252 8.17806 54.5905 8.36035 55.043 8.36035C55.4889 8.36035 55.8193 8.18783 56.0342 7.84277C56.2523 7.49772 56.3662 6.9541 56.376 6.21191V4.73242Z" />
  <path d="M82.5596 63H81.6514V56.9795L79.8301 57.6484V56.8281L82.418 55.8564H82.5596V63ZM89.6641 59.9678C89.6641 61.0257 89.4834 61.8118 89.1221 62.3262C88.7607 62.8405 88.196 63.0977 87.4277 63.0977C86.6693 63.0977 86.1077 62.847 85.7432 62.3457C85.3786 61.8411 85.1898 61.0892 85.1768 60.0898V58.8838C85.1768 57.8389 85.3574 57.0625 85.7188 56.5547C86.0801 56.0469 86.6465 55.793 87.418 55.793C88.1829 55.793 88.7461 56.0387 89.1074 56.5303C89.4688 57.0186 89.6543 57.7738 89.6641 58.7959V59.9678ZM88.7607 58.7324C88.7607 57.9674 88.6533 57.4108 88.4385 57.0625C88.2236 56.7109 87.8835 56.5352 87.418 56.5352C86.9557 56.5352 86.6188 56.7093 86.4072 57.0576C86.1956 57.4059 86.0866 57.9414 86.0801 58.6641V60.1094C86.0801 60.8776 86.1908 61.4456 86.4121 61.8135C86.6367 62.1781 86.9753 62.3604 87.4277 62.3604C87.8737 62.3604 88.2041 62.1878 88.4189 61.8428C88.637 61.4977 88.751 60.9541 88.7607 60.2119V58.7324ZM95.2793 59.9678C95.2793 61.0257 95.0986 61.8118 94.7373 62.3262C94.376 62.8405 93.8112 63.0977 93.043 63.0977C92.2845 63.0977 91.723 62.847 91.3584 62.3457C90.9938 61.8411 90.805 61.0892 90.792 60.0898V58.8838C90.792 57.8389 90.9727 57.0625 91.334 56.5547C91.6953 56.0469 92.2617 55.793 93.0332 55.793C93.7982 55.793 94.3613 56.0387 94.7227 56.5303C95.084 57.0186 95.2695 57.7738 95.2793 58.7959V59.9678ZM94.376 58.7324C94.376 57.9674 94.2686 57.4108 94.0537 57.0625C93.8389 56.7109 93.4987 56.5352 93.0332 56.5352C92.571 56.5352 92.234 56.7093 92.0225 57.0576C91.8109 57.4059 91.7018 57.9414 91.6953 58.6641V60.1094C91.6953 60.8776 91.806 61.4456 92.0273 61.8135C92.252 62.1781 92.5905 62.3604 93.043 62.3604C93.4889 62.3604 93.8193 62.1878 94.0342 61.8428C94.2523 61.4977 94.3662 60.9541 94.376 60.2119V58.7324Z" />
  <path d="M18.6719 66.7461C18.6719 67.1009 18.5775 67.4167 18.3887 67.6934C18.2031 67.9701 17.9508 68.1865 17.6318 68.3428C18.0029 68.5023 18.2959 68.735 18.5107 69.041C18.7288 69.347 18.8379 69.6937 18.8379 70.0811C18.8379 70.6963 18.6296 71.1862 18.2129 71.5508C17.7995 71.9154 17.2542 72.0977 16.5771 72.0977C15.8936 72.0977 15.3451 71.9154 14.9316 71.5508C14.5215 71.1829 14.3164 70.693 14.3164 70.0811C14.3164 69.6969 14.4206 69.3503 14.6289 69.041C14.8405 68.7318 15.1318 68.4974 15.5029 68.3379C15.1872 68.1816 14.9382 67.9652 14.7559 67.6885C14.5736 67.4118 14.4824 67.0977 14.4824 66.7461C14.4824 66.1471 14.6745 65.6719 15.0586 65.3203C15.4427 64.9688 15.9489 64.793 16.5771 64.793C17.2021 64.793 17.7067 64.9688 18.0908 65.3203C18.4782 65.6719 18.6719 66.1471 18.6719 66.7461ZM17.9346 70.0615C17.9346 69.6644 17.8076 69.3405 17.5537 69.0898C17.3031 68.8392 16.9743 68.7139 16.5674 68.7139C16.1605 68.7139 15.8333 68.8376 15.5859 69.085C15.3418 69.3324 15.2197 69.6579 15.2197 70.0615C15.2197 70.4652 15.3385 70.7826 15.5762 71.0137C15.8171 71.2448 16.1507 71.3604 16.5771 71.3604C17.0003 71.3604 17.3324 71.2448 17.5732 71.0137C17.8141 70.7793 17.9346 70.4619 17.9346 70.0615ZM16.5771 65.5352C16.2223 65.5352 15.9342 65.6458 15.7129 65.8672C15.4948 66.0853 15.3857 66.3831 15.3857 66.7607C15.3857 67.1221 15.4932 67.415 15.708 67.6396C15.9261 67.861 16.2158 67.9717 16.5771 67.9717C16.9385 67.9717 17.2266 67.861 17.4414 67.6396C17.6595 67.415 17.7686 67.1221 17.7686 66.7607C17.7686 66.3994 17.6562 66.1048 17.4316 65.877C17.207 65.6491 16.9222 65.5352 16.5771 65.5352ZM24.4336 68.9678C24.4336 70.0257 24.2529 70.8118 23.8916 71.3262C23.5303 71.8405 22.9655 72.0977 22.1973 72.0977C21.4388 72.0977 20.8773 71.847 20.5127 71.3457C20.1481 70.8411 19.9593 70.0892 19.9463 69.0898V67.8838C19.9463 66.8389 20.127 66.0625 20.4883 65.5547C20.8496 65.0469 21.416 64.793 22.1875 64.793C22.9525 64.793 23.5156 65.0387 23.877 65.5303C24.2383 66.0186 24.4238 66.7738 24.4336 67.7959V68.9678ZM23.5303 67.7324C23.5303 66.9674 23.4229 66.4108 23.208 66.0625C22.9932 65.7109 22.653 65.5352 22.1875 65.5352C21.7253 65.5352 21.3883 65.7093 21.1768 66.0576C20.9652 66.4059 20.8561 66.9414 20.8496 67.6641V69.1094C20.8496 69.8776 20.9603 70.4456 21.1816 70.8135C21.4062 71.1781 21.7448 71.3604 22.1973 71.3604C22.6432 71.3604 22.9736 71.1878 23.1885 70.8428C23.4066 70.4977 23.5205 69.9541 23.5303 69.2119V67.7324Z" />
</svg>
