<svg viewBox="0 0 101 101" fill="currentcolor" xmlns="http://www.w3.org/2000/svg">
  <g stroke="currentcolor">
    <path d="M0 14H100" />
    <path d="M11.5 34H55.75"  stroke-dasharray="2 2"/>
    <path d="M50 100.603L100 14" />
    <path d="M50 100.603L11.5 33.9186" />
  </g>
  <path d="M43.5596 9H42.6514V2.97949L40.8301 3.64844V2.82812L43.418 1.85645H43.5596V9ZM50.6641 5.96777C50.6641 7.02572 50.4834 7.81185 50.1221 8.32617C49.7607 8.84049 49.196 9.09766 48.4277 9.09766C47.6693 9.09766 47.1077 8.84701 46.7432 8.3457C46.3786 7.84115 46.1898 7.08919 46.1768 6.08984V4.88379C46.1768 3.83887 46.3574 3.0625 46.7188 2.55469C47.0801 2.04688 47.6465 1.79297 48.418 1.79297C49.1829 1.79297 49.7461 2.03874 50.1074 2.53027C50.4688 3.01855 50.6543 3.77376 50.6641 4.7959V5.96777ZM49.7607 4.73242C49.7607 3.96745 49.6533 3.41081 49.4385 3.0625C49.2236 2.71094 48.8835 2.53516 48.418 2.53516C47.9557 2.53516 47.6188 2.70931 47.4072 3.05762C47.1956 3.40592 47.0866 3.94141 47.0801 4.66406V6.10938C47.0801 6.8776 47.1908 7.44564 47.4121 7.81348C47.6367 8.17806 47.9753 8.36035 48.4277 8.36035C48.8737 8.36035 49.2041 8.18783 49.4189 7.84277C49.637 7.49772 49.751 6.9541 49.7607 6.21191V4.73242ZM56.2793 5.96777C56.2793 7.02572 56.0986 7.81185 55.7373 8.32617C55.376 8.84049 54.8112 9.09766 54.043 9.09766C53.2845 9.09766 52.723 8.84701 52.3584 8.3457C51.9938 7.84115 51.805 7.08919 51.792 6.08984V4.88379C51.792 3.83887 51.9727 3.0625 52.334 2.55469C52.6953 2.04688 53.2617 1.79297 54.0332 1.79297C54.7982 1.79297 55.3613 2.03874 55.7227 2.53027C56.084 3.01855 56.2695 3.77376 56.2793 4.7959V5.96777ZM55.376 4.73242C55.376 3.96745 55.2686 3.41081 55.0537 3.0625C54.8389 2.71094 54.4987 2.53516 54.0332 2.53516C53.571 2.53516 53.234 2.70931 53.0225 3.05762C52.8109 3.40592 52.7018 3.94141 52.6953 4.66406V6.10938C52.6953 6.8776 52.806 7.44564 53.0273 7.81348C53.252 8.17806 53.5905 8.36035 54.043 8.36035C54.4889 8.36035 54.8193 8.18783 55.0342 7.84277C55.2523 7.49772 55.3662 6.9541 55.376 6.21191V4.73242Z" />
  <path d="M82.5596 63H81.6514V56.9795L79.8301 57.6484V56.8281L82.418 55.8564H82.5596V63ZM89.6641 59.9678C89.6641 61.0257 89.4834 61.8118 89.1221 62.3262C88.7607 62.8405 88.196 63.0977 87.4277 63.0977C86.6693 63.0977 86.1077 62.847 85.7432 62.3457C85.3786 61.8411 85.1898 61.0892 85.1768 60.0898V58.8838C85.1768 57.8389 85.3574 57.0625 85.7188 56.5547C86.0801 56.0469 86.6465 55.793 87.418 55.793C88.1829 55.793 88.7461 56.0387 89.1074 56.5303C89.4688 57.0186 89.6543 57.7738 89.6641 58.7959V59.9678ZM88.7607 58.7324C88.7607 57.9674 88.6533 57.4108 88.4385 57.0625C88.2236 56.7109 87.8835 56.5352 87.418 56.5352C86.9557 56.5352 86.6188 56.7093 86.4072 57.0576C86.1956 57.4059 86.0866 57.9414 86.0801 58.6641V60.1094C86.0801 60.8776 86.1908 61.4456 86.4121 61.8135C86.6367 62.1781 86.9753 62.3604 87.4277 62.3604C87.8737 62.3604 88.2041 62.1878 88.4189 61.8428C88.637 61.4977 88.751 60.9541 88.7607 60.2119V58.7324ZM95.2793 59.9678C95.2793 61.0257 95.0986 61.8118 94.7373 62.3262C94.376 62.8405 93.8112 63.0977 93.043 63.0977C92.2845 63.0977 91.723 62.847 91.3584 62.3457C90.9938 61.8411 90.805 61.0892 90.792 60.0898V58.8838C90.792 57.8389 90.9727 57.0625 91.334 56.5547C91.6953 56.0469 92.2617 55.793 93.0332 55.793C93.7982 55.793 94.3613 56.0387 94.7227 56.5303C95.084 57.0186 95.2695 57.7738 95.2793 58.7959V59.9678ZM94.376 58.7324C94.376 57.9674 94.2686 57.4108 94.0537 57.0625C93.8389 56.7109 93.4987 56.5352 93.0332 56.5352C92.571 56.5352 92.234 56.7093 92.0225 57.0576C91.8109 57.4059 91.7018 57.9414 91.6953 58.6641V60.1094C91.6953 60.8776 91.806 61.4456 92.0273 61.8135C92.252 62.1781 92.5905 62.3604 93.043 62.3604C93.4889 62.3604 93.8193 62.1878 94.0342 61.8428C94.2523 61.4977 94.3662 60.9541 94.376 60.2119V58.7324Z" />
  <path d="M17.29 69.998C17.2965 69.6107 17.3405 69.3047 17.4219 69.0801C17.5033 68.8555 17.6693 68.6064 17.9199 68.333L18.5596 67.6738C18.833 67.3646 18.9697 67.0326 18.9697 66.6777C18.9697 66.3359 18.8802 66.069 18.7012 65.877C18.5221 65.6816 18.2617 65.584 17.9199 65.584C17.5879 65.584 17.321 65.6719 17.1191 65.8477C16.9173 66.0234 16.8164 66.2594 16.8164 66.5557H15.9131C15.9196 66.0283 16.1068 65.6035 16.4746 65.2812C16.8457 64.9557 17.3275 64.793 17.9199 64.793C18.5352 64.793 19.0137 64.959 19.3555 65.291C19.7005 65.6198 19.873 66.0723 19.873 66.6484C19.873 67.2181 19.6094 67.7796 19.082 68.333L18.5498 68.8604C18.3122 69.124 18.1934 69.5033 18.1934 69.998H17.29ZM17.251 71.5459C17.251 71.3994 17.2949 71.2773 17.3828 71.1797C17.474 71.0788 17.6074 71.0283 17.7832 71.0283C17.959 71.0283 18.0924 71.0788 18.1836 71.1797C18.2747 71.2773 18.3203 71.3994 18.3203 71.5459C18.3203 71.6924 18.2747 71.8145 18.1836 71.9121C18.0924 72.0065 17.959 72.0537 17.7832 72.0537C17.6074 72.0537 17.474 72.0065 17.3828 71.9121C17.2949 71.8145 17.251 71.6924 17.251 71.5459ZM22.0166 69.998C22.0231 69.6107 22.0671 69.3047 22.1484 69.0801C22.2298 68.8555 22.3958 68.6064 22.6465 68.333L23.2861 67.6738C23.5596 67.3646 23.6963 67.0326 23.6963 66.6777C23.6963 66.3359 23.6068 66.069 23.4277 65.877C23.2487 65.6816 22.9883 65.584 22.6465 65.584C22.3145 65.584 22.0475 65.6719 21.8457 65.8477C21.6439 66.0234 21.543 66.2594 21.543 66.5557H20.6396C20.6462 66.0283 20.8333 65.6035 21.2012 65.2812C21.5723 64.9557 22.054 64.793 22.6465 64.793C23.2617 64.793 23.7402 64.959 24.082 65.291C24.4271 65.6198 24.5996 66.0723 24.5996 66.6484C24.5996 67.2181 24.3359 67.7796 23.8086 68.333L23.2764 68.8604C23.0387 69.124 22.9199 69.5033 22.9199 69.998H22.0166ZM21.9775 71.5459C21.9775 71.3994 22.0215 71.2773 22.1094 71.1797C22.2005 71.0788 22.334 71.0283 22.5098 71.0283C22.6855 71.0283 22.819 71.0788 22.9102 71.1797C23.0013 71.2773 23.0469 71.3994 23.0469 71.5459C23.0469 71.6924 23.0013 71.8145 22.9102 71.9121C22.819 72.0065 22.6855 72.0537 22.5098 72.0537C22.334 72.0537 22.2005 72.0065 22.1094 71.9121C22.0215 71.8145 21.9775 71.6924 21.9775 71.5459Z" />
  <path d="M17.249 27H12.5908V26.3506L15.0518 23.6162C15.4163 23.2028 15.667 22.8675 15.8037 22.6104C15.9437 22.3499 16.0137 22.0814 16.0137 21.8047C16.0137 21.4336 15.9014 21.1292 15.6768 20.8916C15.4521 20.654 15.1527 20.5352 14.7783 20.5352C14.3291 20.5352 13.9792 20.6637 13.7285 20.9209C13.4811 21.1748 13.3574 21.5296 13.3574 21.9854H12.4541C12.4541 21.3311 12.6641 20.8021 13.084 20.3984C13.5072 19.9948 14.0719 19.793 14.7783 19.793C15.4391 19.793 15.9616 19.9671 16.3457 20.3154C16.7298 20.6605 16.9219 21.1211 16.9219 21.6973C16.9219 22.3971 16.4759 23.2305 15.584 24.1973L13.6797 26.2627H17.249V27ZM22.6641 23.9678C22.6641 25.0257 22.4834 25.8118 22.1221 26.3262C21.7607 26.8405 21.196 27.0977 20.4277 27.0977C19.6693 27.0977 19.1077 26.847 18.7432 26.3457C18.3786 25.8411 18.1898 25.0892 18.1768 24.0898V22.8838C18.1768 21.8389 18.3574 21.0625 18.7188 20.5547C19.0801 20.0469 19.6465 19.793 20.418 19.793C21.1829 19.793 21.7461 20.0387 22.1074 20.5303C22.4688 21.0186 22.6543 21.7738 22.6641 22.7959V23.9678ZM21.7607 22.7324C21.7607 21.9674 21.6533 21.4108 21.4385 21.0625C21.2236 20.7109 20.8835 20.5352 20.418 20.5352C19.9557 20.5352 19.6188 20.7093 19.4072 21.0576C19.1956 21.4059 19.0866 21.9414 19.0801 22.6641V24.1094C19.0801 24.8776 19.1908 25.4456 19.4121 25.8135C19.6367 26.1781 19.9753 26.3604 20.4277 26.3604C20.8737 26.3604 21.2041 26.1878 21.4189 25.8428C21.637 25.4977 21.751 24.9541 21.7607 24.2119V22.7324Z" />
  <path d="M30.3536 14.6464C30.1583 14.4512 29.8417 14.4512 29.6464 14.6464L26.4645 17.8284C26.2692 18.0237 26.2692 18.3403 26.4645 18.5355C26.6597 18.7308 26.9763 18.7308 27.1716 18.5355L30 15.7071L32.8284 18.5355C33.0237 18.7308 33.3403 18.7308 33.5355 18.5355C33.7308 18.3403 33.7308 18.0237 33.5355 17.8284L30.3536 14.6464ZM29.6464 33.3536C29.8417 33.5488 30.1583 33.5488 30.3536 33.3536L33.5355 30.1716C33.7308 29.9763 33.7308 29.6597 33.5355 29.4645C33.3403 29.2692 33.0237 29.2692 32.8284 29.4645L30 32.2929L27.1716 29.4645C26.9763 29.2692 26.6597 29.2692 26.4645 29.4645C26.2692 29.6597 26.2692 29.9763 26.4645 30.1716L29.6464 33.3536ZM29.5 15V33H30.5V15H29.5Z" />
</svg>
