<svg viewBox="0 0 102 102" fill="currentcolor" xmlns="http://www.w3.org/2000/svg">
  <g stroke="currentcolor">
    <path d="M51 101.603L12.547 35"/>
    <path d="M66.358 35L51 61.6008"/>
    <path d="M1 15H101"/>
    <path d="M51 101.603L89.453 35L101 15"/>
    <path d="M12.5469 35H35.64H66.36"/>
    <path d="M4.17542 26.5L9.37157 23.5"/>
    <path d="M77.905 38V32"/>
    <path d="M94.3159 38V32"/>
    <path d="M96.1376 38V32"/>
    <path d="M82.9347 12.2884L77.7385 9.28842"/>
    <path d="M83.8455 10.7108L78.6494 7.71077"/>
    <path d="M38.7077 88.8901L33.5115 85.8901"/>
    <path d="M39.6185 87.3124L34.4224 84.3124"/>
    <path d="M42.6279 70.1017L47.8241 73.1017"/>
    <path d="M69.5354 23.5L74.7316 26.5"/>
    <path d="M5.86243 38V32"/>
    <path d="M7.68414 38V32"/>
    <g stroke-dasharray="2 2">
      <path d="M39.452 81.6008L33.678 91.6017"/>
      <path d="M83.679 4.99915L77.905 15"/>
      <path d="M77.905 15L66.358 35"/>
      <path d="M0.999995 15L12.547 35"/>
      <path d="M1 35H12.5466"/>
      <path d="M89.4534 35H101"/>
      <path d="M39.452 81.6025L51 61.6008"/>
      <path d="M89.45 35H66.36"/>
    </g>
  </g>
  <path d="M49.5268 9.5V9.203C49.8388 9.191 50.0458 9.095 50.1478 8.915C50.2558 8.735 50.3098 8.489 50.3098 8.177L50.2828 3.929L49.2028 4.622L49.0228 4.361L50.7778 3.056H51.0838L51.0928 8.519C51.0928 8.633 51.0898 8.744 51.0838 8.852C51.0838 8.96 51.0778 9.056 51.0658 9.14C51.1918 9.134 51.3178 9.128 51.4438 9.122C51.5698 9.116 51.6958 9.11 51.8218 9.104V9.5H49.5268Z"/>
  <path d="M83.997 65.3013C83.997 64.9833 84.045 64.7013 84.141 64.4553C84.243 64.2093 84.378 63.9843 84.546 63.7803C84.714 63.5703 84.903 63.3693 85.113 63.1773C85.329 62.9793 85.548 62.7723 85.77 62.5563C86.16 62.1843 86.442 61.8393 86.616 61.5213C86.79 61.2033 86.877 60.8973 86.877 60.6033C86.877 60.3753 86.844 60.1563 86.778 59.9463C86.718 59.7303 86.607 59.5533 86.445 59.4153C86.283 59.2773 86.058 59.2083 85.77 59.2083C85.524 59.2083 85.305 59.2713 85.113 59.3973C84.921 59.5173 84.792 59.6673 84.726 59.8473C84.786 59.9073 84.828 59.9733 84.852 60.0453C84.876 60.1113 84.888 60.1773 84.888 60.2433C84.888 60.3213 84.855 60.4143 84.789 60.5223C84.723 60.6243 84.609 60.6723 84.447 60.6663C84.315 60.6603 84.213 60.6093 84.141 60.5133C84.069 60.4173 84.033 60.3033 84.033 60.1713C84.033 59.9973 84.102 59.8083 84.24 59.6043C84.384 59.4003 84.594 59.2263 84.87 59.0823C85.152 58.9323 85.5 58.8573 85.914 58.8573C86.232 58.8573 86.535 58.9083 86.823 59.0103C87.111 59.1123 87.345 59.2833 87.525 59.5233C87.711 59.7573 87.804 60.0783 87.804 60.4863C87.804 60.7923 87.669 61.1433 87.399 61.5393C87.135 61.9293 86.682 62.3853 86.04 62.9073C85.632 63.2433 85.296 63.5613 85.032 63.8613C84.774 64.1553 84.624 64.4073 84.582 64.6173L86.175 64.6623C86.469 64.6683 86.727 64.6683 86.949 64.6623C87.177 64.6563 87.354 64.6113 87.48 64.5273C87.612 64.4373 87.678 64.2753 87.678 64.0413H87.948L87.894 65.3013H83.997Z"/>
  <path d="M22.2901 74.4453C21.8581 74.4453 21.5011 74.3823 21.2191 74.2563C20.9371 74.1243 20.7271 73.9623 20.5891 73.7703C20.4571 73.5783 20.3911 73.3953 20.3911 73.2213C20.3911 73.0833 20.4271 72.9693 20.4991 72.8793C20.5711 72.7833 20.6731 72.7323 20.8051 72.7263C20.9671 72.7143 21.0781 72.7593 21.1381 72.8613C21.1981 72.9573 21.2281 73.0473 21.2281 73.1313C21.2281 73.1913 21.2191 73.2513 21.2011 73.3113C21.1831 73.3713 21.1591 73.4313 21.1291 73.4913C21.1891 73.6953 21.3241 73.8423 21.5341 73.9323C21.7501 74.0223 21.9811 74.0673 22.2271 74.0673C22.6531 74.0673 22.9921 73.9503 23.2441 73.7163C23.5021 73.4823 23.6311 73.1433 23.6311 72.6993C23.6311 72.4353 23.5891 72.1863 23.5051 71.9523C23.4211 71.7123 23.2651 71.5173 23.0371 71.3673C22.8091 71.2173 22.4761 71.1483 22.0381 71.1603C21.9901 71.1603 21.9391 71.1633 21.8851 71.1693C21.8311 71.1693 21.7711 71.1723 21.7051 71.1783V70.7733H22.0741C22.3921 70.7733 22.6411 70.7013 22.8211 70.5573C23.0011 70.4133 23.1301 70.2423 23.2081 70.0443C23.2861 69.8463 23.3251 69.6633 23.3251 69.4953C23.3251 69.2493 23.2921 69.0303 23.2261 68.8383C23.1661 68.6403 23.0581 68.4873 22.9021 68.3793C22.7461 68.2653 22.5301 68.2083 22.2541 68.2083C21.9841 68.2083 21.7531 68.2803 21.5611 68.4243C21.3691 68.5623 21.2491 68.7063 21.2011 68.8563C21.2551 68.9163 21.2911 68.9763 21.3091 69.0363C21.3331 69.0963 21.3451 69.1593 21.3451 69.2253C21.3451 69.2973 21.3151 69.3813 21.2551 69.4773C21.1951 69.5733 21.0871 69.6183 20.9311 69.6123C20.8051 69.6123 20.7091 69.5673 20.6431 69.4773C20.5771 69.3873 20.5441 69.2793 20.5441 69.1533C20.5441 68.9853 20.6101 68.8023 20.7421 68.6043C20.8741 68.4003 21.0751 68.2263 21.3451 68.0823C21.6211 67.9323 21.9661 67.8573 22.3801 67.8573C22.7041 67.8573 23.0041 67.9083 23.2801 68.0103C23.5561 68.1123 23.7781 68.2803 23.9461 68.5143C24.1141 68.7423 24.1981 69.0453 24.1981 69.4233C24.1981 69.7053 24.0901 69.9843 23.8741 70.2603C23.6581 70.5303 23.2741 70.7523 22.7221 70.9263C23.2921 70.9863 23.7391 71.1693 24.0631 71.4753C24.3931 71.7813 24.5581 72.1683 24.5581 72.6363C24.5581 73.0443 24.4501 73.3833 24.2341 73.6533C24.0241 73.9173 23.7451 74.1153 23.3971 74.2473C23.0551 74.3793 22.6861 74.4453 22.2901 74.4453Z"/>
  <path d="M40.6775 29.019C40.6775 29.139 40.6745 29.253 40.6685 29.361C40.6685 29.469 40.6595 29.568 40.6415 29.658C40.7615 29.652 40.8785 29.649 40.9925 29.649C41.1065 29.643 41.2205 29.637 41.3345 29.631V30H39.0755V29.703H39.1385C39.4445 29.679 39.6395 29.568 39.7235 29.37C39.8135 29.166 39.8585 28.899 39.8585 28.569V28.263H37.1225V27.822L40.3805 23.556H40.6775V27.723L41.5865 27.732V28.263H40.6775V29.019ZM39.8405 24.834L37.7165 27.678L39.8585 27.705V24.834H39.8405Z"/>
  <path d="M66.1939 55.4453C65.8099 55.4453 65.4829 55.3823 65.2129 55.2563C64.9429 55.1243 64.7359 54.9623 64.5919 54.7703C64.4479 54.5783 64.3759 54.3953 64.3759 54.2213C64.3759 54.0833 64.4119 53.9693 64.4839 53.8793C64.5559 53.7833 64.6579 53.7323 64.7899 53.7263C64.9519 53.7143 65.0629 53.7593 65.1229 53.8613C65.1829 53.9573 65.2129 54.0473 65.2129 54.1313C65.2129 54.1913 65.2039 54.2513 65.1859 54.3113C65.1679 54.3713 65.1439 54.4283 65.1139 54.4823C65.1379 54.6263 65.2129 54.7463 65.3389 54.8423C65.4649 54.9323 65.6089 54.9983 65.7709 55.0403C65.9389 55.0823 66.0919 55.1003 66.2299 55.0943C66.5239 55.0823 66.7609 55.0043 66.9409 54.8603C67.1209 54.7103 67.2529 54.5213 67.3369 54.2933C67.4269 54.0653 67.4719 53.8253 67.4719 53.5733C67.4719 53.4053 67.4569 53.2193 67.4269 53.0153C67.4029 52.8113 67.3429 52.6193 67.2469 52.4393C67.1569 52.2533 67.0189 52.1003 66.8329 51.9803C66.6469 51.8603 66.3949 51.8003 66.0769 51.8003C65.9749 51.8003 65.8489 51.8123 65.6989 51.8363C65.5549 51.8603 65.4079 51.8963 65.2579 51.9443C65.1139 51.9923 64.9909 52.0493 64.8889 52.1153L64.6369 51.8813L64.6189 49.0013H66.9499C67.2919 49.0013 67.5259 48.9563 67.6519 48.8663C67.7839 48.7703 67.8499 48.6203 67.8499 48.4163H68.0929L68.0389 49.6043L65.0329 49.6673V51.6473C65.1769 51.5873 65.3629 51.5303 65.5909 51.4763C65.8249 51.4223 66.0739 51.3953 66.3379 51.3953C66.7099 51.3953 67.0249 51.4553 67.2829 51.5753C67.5469 51.6893 67.7599 51.8453 67.9219 52.0433C68.0899 52.2353 68.2129 52.4513 68.2909 52.6913C68.3689 52.9253 68.4079 53.1653 68.4079 53.4113C68.4079 53.8553 68.3029 54.2303 68.0929 54.5363C67.8889 54.8363 67.6189 55.0643 67.2829 55.2203C66.9469 55.3703 66.5839 55.4453 66.1939 55.4453Z"/>
</svg>
