<svg viewBox="0 0 101 101" fill="currentcolor" xmlns="http://www.w3.org/2000/svg">
  <g stroke="currentcolor">
    <path d="M0 14H100"/>
    <path d="M0 34H100" stroke-dasharray="2 2"/>
    <path d="M50 100.603L100 14"/>
    <path d="M50 100.603L10 31.3205"/>
  </g>
  <path d="M43.437 9V8.703C43.749 8.691 43.956 8.595 44.058 8.415C44.166 8.235 44.22 7.989 44.22 7.677L44.193 3.429L43.113 4.122L42.933 3.861L44.688 2.556H44.994L45.003 8.019C45.003 8.133 45 8.244 44.994 8.352C44.994 8.46 44.988 8.556 44.976 8.64C45.102 8.634 45.228 8.628 45.354 8.622C45.48 8.616 45.606 8.61 45.732 8.604V9H43.437ZM48.8483 9.144C48.3923 9.144 48.0143 9.048 47.7143 8.856C47.4143 8.658 47.1803 8.4 47.0123 8.082C46.8443 7.758 46.7243 7.404 46.6523 7.02C46.5863 6.636 46.5533 6.255 46.5533 5.877C46.5533 5.499 46.5953 5.115 46.6793 4.725C46.7693 4.335 46.9073 3.978 47.0933 3.654C47.2793 3.324 47.5193 3.06 47.8133 2.862C48.1073 2.658 48.4643 2.556 48.8843 2.556C49.3223 2.556 49.6853 2.655 49.9733 2.853C50.2673 3.051 50.4983 3.312 50.6663 3.636C50.8403 3.954 50.9633 4.305 51.0353 4.689C51.1073 5.073 51.1433 5.454 51.1433 5.832C51.1433 6.204 51.1013 6.585 51.0173 6.975C50.9333 7.365 50.8013 7.725 50.6213 8.055C50.4413 8.379 50.2043 8.643 49.9103 8.847C49.6223 9.045 49.2683 9.144 48.8483 9.144ZM48.9023 8.793C49.1603 8.793 49.3733 8.712 49.5413 8.55C49.7093 8.388 49.8413 8.172 49.9373 7.902C50.0393 7.632 50.1113 7.335 50.1533 7.011C50.1953 6.681 50.2163 6.351 50.2163 6.021C50.2163 5.655 50.1953 5.289 50.1533 4.923C50.1113 4.557 50.0393 4.221 49.9373 3.915C49.8353 3.609 49.6973 3.363 49.5233 3.177C49.3493 2.991 49.1303 2.898 48.8663 2.898C48.6083 2.898 48.3893 2.979 48.2093 3.141C48.0353 3.303 47.8943 3.519 47.7863 3.789C47.6783 4.059 47.6003 4.359 47.5523 4.689C47.5043 5.019 47.4803 5.352 47.4803 5.688C47.4803 5.94 47.4923 6.207 47.5163 6.489C47.5403 6.771 47.5823 7.05 47.6423 7.326C47.7083 7.596 47.7953 7.842 47.9033 8.064C48.0113 8.286 48.1463 8.463 48.3083 8.595C48.4703 8.727 48.6683 8.793 48.9023 8.793ZM54.4382 9.144C53.9822 9.144 53.6042 9.048 53.3042 8.856C53.0042 8.658 52.7702 8.4 52.6022 8.082C52.4342 7.758 52.3142 7.404 52.2422 7.02C52.1762 6.636 52.1432 6.255 52.1432 5.877C52.1432 5.499 52.1852 5.115 52.2692 4.725C52.3592 4.335 52.4972 3.978 52.6832 3.654C52.8692 3.324 53.1092 3.06 53.4032 2.862C53.6972 2.658 54.0542 2.556 54.4742 2.556C54.9122 2.556 55.2752 2.655 55.5632 2.853C55.8572 3.051 56.0882 3.312 56.2562 3.636C56.4302 3.954 56.5532 4.305 56.6252 4.689C56.6972 5.073 56.7332 5.454 56.7332 5.832C56.7332 6.204 56.6912 6.585 56.6072 6.975C56.5232 7.365 56.3912 7.725 56.2112 8.055C56.0312 8.379 55.7942 8.643 55.5002 8.847C55.2122 9.045 54.8582 9.144 54.4382 9.144ZM54.4922 8.793C54.7502 8.793 54.9632 8.712 55.1312 8.55C55.2992 8.388 55.4312 8.172 55.5272 7.902C55.6292 7.632 55.7012 7.335 55.7432 7.011C55.7852 6.681 55.8062 6.351 55.8062 6.021C55.8062 5.655 55.7852 5.289 55.7432 4.923C55.7012 4.557 55.6292 4.221 55.5272 3.915C55.4252 3.609 55.2872 3.363 55.1132 3.177C54.9392 2.991 54.7202 2.898 54.4562 2.898C54.1982 2.898 53.9792 2.979 53.7992 3.141C53.6252 3.303 53.4842 3.519 53.3762 3.789C53.2682 4.059 53.1902 4.359 53.1422 4.689C53.0942 5.019 53.0702 5.352 53.0702 5.688C53.0702 5.94 53.0822 6.207 53.1062 6.489C53.1302 6.771 53.1722 7.05 53.2322 7.326C53.2982 7.596 53.3852 7.842 53.4932 8.064C53.6012 8.286 53.7362 8.463 53.8982 8.595C54.0602 8.727 54.2582 8.793 54.4922 8.793Z"/>
  <path d="M79.937 63V62.703C80.249 62.691 80.456 62.595 80.558 62.415C80.666 62.235 80.72 61.989 80.72 61.677L80.693 57.429L79.613 58.122L79.433 57.861L81.188 56.556H81.494L81.503 62.019C81.503 62.133 81.5 62.244 81.494 62.352C81.494 62.46 81.488 62.556 81.476 62.64C81.602 62.634 81.728 62.628 81.854 62.622C81.98 62.616 82.106 62.61 82.232 62.604V63H79.937ZM85.3483 63.144C84.8923 63.144 84.5143 63.048 84.2143 62.856C83.9143 62.658 83.6803 62.4 83.5123 62.082C83.3443 61.758 83.2243 61.404 83.1523 61.02C83.0863 60.636 83.0533 60.255 83.0533 59.877C83.0533 59.499 83.0953 59.115 83.1793 58.725C83.2693 58.335 83.4073 57.978 83.5933 57.654C83.7793 57.324 84.0193 57.06 84.3133 56.862C84.6073 56.658 84.9643 56.556 85.3843 56.556C85.8223 56.556 86.1853 56.655 86.4733 56.853C86.7673 57.051 86.9983 57.312 87.1663 57.636C87.3403 57.954 87.4633 58.305 87.5353 58.689C87.6073 59.073 87.6433 59.454 87.6433 59.832C87.6433 60.204 87.6013 60.585 87.5173 60.975C87.4333 61.365 87.3013 61.725 87.1213 62.055C86.9413 62.379 86.7043 62.643 86.4103 62.847C86.1223 63.045 85.7683 63.144 85.3483 63.144ZM85.4023 62.793C85.6603 62.793 85.8733 62.712 86.0413 62.55C86.2093 62.388 86.3413 62.172 86.4373 61.902C86.5393 61.632 86.6113 61.335 86.6533 61.011C86.6953 60.681 86.7163 60.351 86.7163 60.021C86.7163 59.655 86.6953 59.289 86.6533 58.923C86.6113 58.557 86.5393 58.221 86.4373 57.915C86.3353 57.609 86.1973 57.363 86.0233 57.177C85.8493 56.991 85.6303 56.898 85.3663 56.898C85.1083 56.898 84.8893 56.979 84.7093 57.141C84.5353 57.303 84.3943 57.519 84.2863 57.789C84.1783 58.059 84.1003 58.359 84.0523 58.689C84.0043 59.019 83.9803 59.352 83.9803 59.688C83.9803 59.94 83.9923 60.207 84.0163 60.489C84.0403 60.771 84.0823 61.05 84.1423 61.326C84.2083 61.596 84.2953 61.842 84.4033 62.064C84.5113 62.286 84.6463 62.463 84.8083 62.595C84.9703 62.727 85.1683 62.793 85.4023 62.793ZM90.9382 63.144C90.4822 63.144 90.1042 63.048 89.8042 62.856C89.5042 62.658 89.2702 62.4 89.1022 62.082C88.9342 61.758 88.8142 61.404 88.7422 61.02C88.6762 60.636 88.6432 60.255 88.6432 59.877C88.6432 59.499 88.6852 59.115 88.7692 58.725C88.8592 58.335 88.9972 57.978 89.1832 57.654C89.3692 57.324 89.6092 57.06 89.9032 56.862C90.1972 56.658 90.5542 56.556 90.9742 56.556C91.4122 56.556 91.7752 56.655 92.0632 56.853C92.3572 57.051 92.5882 57.312 92.7562 57.636C92.9302 57.954 93.0532 58.305 93.1252 58.689C93.1972 59.073 93.2332 59.454 93.2332 59.832C93.2332 60.204 93.1912 60.585 93.1072 60.975C93.0232 61.365 92.8912 61.725 92.7112 62.055C92.5312 62.379 92.2942 62.643 92.0002 62.847C91.7122 63.045 91.3582 63.144 90.9382 63.144ZM90.9922 62.793C91.2502 62.793 91.4632 62.712 91.6312 62.55C91.7992 62.388 91.9312 62.172 92.0272 61.902C92.1292 61.632 92.2012 61.335 92.2432 61.011C92.2852 60.681 92.3062 60.351 92.3062 60.021C92.3062 59.655 92.2852 59.289 92.2432 58.923C92.2012 58.557 92.1292 58.221 92.0272 57.915C91.9252 57.609 91.7872 57.363 91.6132 57.177C91.4392 56.991 91.2202 56.898 90.9562 56.898C90.6982 56.898 90.4792 56.979 90.2992 57.141C90.1252 57.303 89.9842 57.519 89.8762 57.789C89.7682 58.059 89.6902 58.359 89.6422 58.689C89.5942 59.019 89.5702 59.352 89.5702 59.688C89.5702 59.94 89.5822 60.207 89.6062 60.489C89.6302 60.771 89.6722 61.05 89.7322 61.326C89.7982 61.596 89.8852 61.842 89.9932 62.064C90.1012 62.286 90.2362 62.463 90.3982 62.595C90.5602 62.727 90.7582 62.793 90.9922 62.793Z"/>
  <path d="M16.6622 72.144C16.4522 72.144 16.2332 72.117 16.0052 72.063C15.7772 72.015 15.5642 71.934 15.3662 71.82C15.1742 71.706 15.0152 71.553 14.8892 71.361C14.7692 71.169 14.7092 70.932 14.7092 70.65C14.7092 70.38 14.7752 70.134 14.9072 69.912C15.0392 69.684 15.2072 69.48 15.4112 69.3C15.6212 69.114 15.8432 68.949 16.0772 68.805C15.6212 68.529 15.3002 68.256 15.1142 67.986C14.9282 67.71 14.8352 67.443 14.8352 67.185C14.8352 66.807 14.9312 66.498 15.1232 66.258C15.3152 66.018 15.5582 65.841 15.8522 65.727C16.1462 65.613 16.4432 65.556 16.7432 65.556C17.0492 65.556 17.3342 65.613 17.5982 65.727C17.8682 65.835 18.0842 65.997 18.2462 66.213C18.4142 66.429 18.4982 66.693 18.4982 67.005C18.4982 67.359 18.3782 67.668 18.1382 67.932C17.9042 68.196 17.6192 68.412 17.2832 68.58C17.5532 68.736 17.8022 68.916 18.0302 69.12C18.2582 69.318 18.4412 69.534 18.5792 69.768C18.7172 70.002 18.7862 70.248 18.7862 70.506C18.7862 70.884 18.6872 71.196 18.4892 71.442C18.2912 71.682 18.0302 71.859 17.7062 71.973C17.3822 72.087 17.0342 72.144 16.6622 72.144ZM16.9682 68.4C17.2322 68.22 17.4332 68.016 17.5712 67.788C17.7152 67.56 17.7902 67.335 17.7962 67.113C17.8082 66.723 17.7182 66.426 17.5262 66.222C17.3342 66.018 17.0792 65.913 16.7612 65.907C16.5272 65.901 16.3292 65.952 16.1672 66.06C16.0052 66.162 15.8822 66.297 15.7982 66.465C15.7142 66.627 15.6722 66.801 15.6722 66.987C15.6722 67.317 15.7952 67.605 16.0412 67.851C16.2932 68.091 16.6022 68.274 16.9682 68.4ZM16.6802 71.784C17.0702 71.79 17.3702 71.694 17.5802 71.496C17.7962 71.298 17.9042 71.025 17.9042 70.677C17.9042 70.365 17.7932 70.062 17.5712 69.768C17.3552 69.468 16.9712 69.201 16.4192 68.967C16.0892 69.207 15.8492 69.465 15.6992 69.741C15.5552 70.017 15.4772 70.266 15.4652 70.488C15.4412 70.872 15.5402 71.184 15.7622 71.424C15.9902 71.658 16.2962 71.778 16.6802 71.784ZM22.0309 72.144C21.5749 72.144 21.1969 72.048 20.8969 71.856C20.5969 71.658 20.3629 71.4 20.1949 71.082C20.0269 70.758 19.9069 70.404 19.8349 70.02C19.7689 69.636 19.7359 69.255 19.7359 68.877C19.7359 68.499 19.7779 68.115 19.8619 67.725C19.9519 67.335 20.0899 66.978 20.2759 66.654C20.4619 66.324 20.7019 66.06 20.9959 65.862C21.2899 65.658 21.6469 65.556 22.0669 65.556C22.5049 65.556 22.8679 65.655 23.1559 65.853C23.4499 66.051 23.6809 66.312 23.8489 66.636C24.0229 66.954 24.1459 67.305 24.2179 67.689C24.2899 68.073 24.3259 68.454 24.3259 68.832C24.3259 69.204 24.2839 69.585 24.1999 69.975C24.1159 70.365 23.9839 70.725 23.8039 71.055C23.6239 71.379 23.3869 71.643 23.0929 71.847C22.8049 72.045 22.4509 72.144 22.0309 72.144ZM22.0849 71.793C22.3429 71.793 22.5559 71.712 22.7239 71.55C22.8919 71.388 23.0239 71.172 23.1199 70.902C23.2219 70.632 23.2939 70.335 23.3359 70.011C23.3779 69.681 23.3989 69.351 23.3989 69.021C23.3989 68.655 23.3779 68.289 23.3359 67.923C23.2939 67.557 23.2219 67.221 23.1199 66.915C23.0179 66.609 22.8799 66.363 22.7059 66.177C22.5319 65.991 22.3129 65.898 22.0489 65.898C21.7909 65.898 21.5719 65.979 21.3919 66.141C21.2179 66.303 21.0769 66.519 20.9689 66.789C20.8609 67.059 20.7829 67.359 20.7349 67.689C20.6869 68.019 20.6629 68.352 20.6629 68.688C20.6629 68.94 20.6749 69.207 20.6989 69.489C20.7229 69.771 20.7649 70.05 20.8249 70.326C20.8909 70.596 20.9779 70.842 21.0859 71.064C21.1939 71.286 21.3289 71.463 21.4909 71.595C21.6529 71.727 21.8509 71.793 22.0849 71.793Z"/>
</svg>
