<svg viewBox="0 0 119 101" fill="currentcolor" xmlns="http://www.w3.org/2000/svg">
  <g stroke="currentcolor">
    <path d="M30.4702 14C30.4702 18.6777 27.932 22.7626 24.1577 24.9525" fill="none"/>
    <path d="M17.7202 14H117.72"/>
    <path d="M67.7202 100.603L117.72 14"/>
    <path d="M67.7202 100.603L17.7202 14"/>
    <path d="M67.7202 21H60.7202V14" fill="none"/>
    <path d="M67.7202 14V100.603" stroke-dasharray="2 2"/>
  </g>
  <path d="M22.9072 60.3013V60.0043C23.2192 59.9923 23.4262 59.8963 23.5282 59.7163C23.6362 59.5363 23.6902 59.2903 23.6902 58.9783L23.6632 54.7303L22.5832 55.4233L22.4032 55.1623L24.1582 53.8573H24.4642L24.4732 59.3203C24.4732 59.4343 24.4702 59.5453 24.4642 59.6533C24.4642 59.7613 24.4582 59.8573 24.4462 59.9413C24.5722 59.9353 24.6982 59.9293 24.8242 59.9233C24.9502 59.9173 25.0762 59.9113 25.2022 59.9053V60.3013H22.9072ZM28.3185 60.4453C27.8625 60.4453 27.4845 60.3493 27.1845 60.1573C26.8845 59.9593 26.6505 59.7013 26.4825 59.3833C26.3145 59.0593 26.1945 58.7053 26.1225 58.3213C26.0565 57.9373 26.0235 57.5563 26.0235 57.1783C26.0235 56.8003 26.0655 56.4163 26.1495 56.0263C26.2395 55.6363 26.3775 55.2793 26.5635 54.9553C26.7495 54.6253 26.9895 54.3613 27.2835 54.1633C27.5775 53.9593 27.9345 53.8573 28.3545 53.8573C28.7925 53.8573 29.1555 53.9563 29.4435 54.1543C29.7375 54.3523 29.9685 54.6133 30.1365 54.9373C30.3105 55.2553 30.4335 55.6063 30.5055 55.9903C30.5775 56.3743 30.6135 56.7553 30.6135 57.1333C30.6135 57.5053 30.5715 57.8863 30.4875 58.2763C30.4035 58.6663 30.2715 59.0263 30.0915 59.3563C29.9115 59.6803 29.6745 59.9443 29.3805 60.1483C29.0925 60.3463 28.7385 60.4453 28.3185 60.4453ZM28.3725 60.0943C28.6305 60.0943 28.8435 60.0133 29.0115 59.8513C29.1795 59.6893 29.3115 59.4733 29.4075 59.2033C29.5095 58.9333 29.5815 58.6363 29.6235 58.3123C29.6655 57.9823 29.6865 57.6523 29.6865 57.3223C29.6865 56.9563 29.6655 56.5903 29.6235 56.2243C29.5815 55.8583 29.5095 55.5223 29.4075 55.2163C29.3055 54.9103 29.1675 54.6643 28.9935 54.4783C28.8195 54.2923 28.6005 54.1993 28.3365 54.1993C28.0785 54.1993 27.8595 54.2803 27.6795 54.4423C27.5055 54.6043 27.3645 54.8203 27.2565 55.0903C27.1485 55.3603 27.0705 55.6603 27.0225 55.9903C26.9745 56.3203 26.9505 56.6533 26.9505 56.9893C26.9505 57.2413 26.9625 57.5083 26.9865 57.7903C27.0105 58.0723 27.0525 58.3513 27.1125 58.6273C27.1785 58.8973 27.2655 59.1433 27.3735 59.3653C27.4815 59.5873 27.6165 59.7643 27.7785 59.8963C27.9405 60.0283 28.1385 60.0943 28.3725 60.0943ZM33.9084 60.4453C33.4524 60.4453 33.0744 60.3493 32.7744 60.1573C32.4744 59.9593 32.2404 59.7013 32.0724 59.3833C31.9044 59.0593 31.7844 58.7053 31.7124 58.3213C31.6464 57.9373 31.6134 57.5563 31.6134 57.1783C31.6134 56.8003 31.6554 56.4163 31.7394 56.0263C31.8294 55.6363 31.9674 55.2793 32.1534 54.9553C32.3394 54.6253 32.5794 54.3613 32.8734 54.1633C33.1674 53.9593 33.5244 53.8573 33.9444 53.8573C34.3824 53.8573 34.7454 53.9563 35.0334 54.1543C35.3274 54.3523 35.5584 54.6133 35.7264 54.9373C35.9004 55.2553 36.0234 55.6063 36.0954 55.9903C36.1674 56.3743 36.2034 56.7553 36.2034 57.1333C36.2034 57.5053 36.1614 57.8863 36.0774 58.2763C35.9934 58.6663 35.8614 59.0263 35.6814 59.3563C35.5014 59.6803 35.2644 59.9443 34.9704 60.1483C34.6824 60.3463 34.3284 60.4453 33.9084 60.4453ZM33.9624 60.0943C34.2204 60.0943 34.4334 60.0133 34.6014 59.8513C34.7694 59.6893 34.9014 59.4733 34.9974 59.2033C35.0994 58.9333 35.1714 58.6363 35.2134 58.3123C35.2554 57.9823 35.2764 57.6523 35.2764 57.3223C35.2764 56.9563 35.2554 56.5903 35.2134 56.2243C35.1714 55.8583 35.0994 55.5223 34.9974 55.2163C34.8954 54.9103 34.7574 54.6643 34.5834 54.4783C34.4094 54.2923 34.1904 54.1993 33.9264 54.1993C33.6684 54.1993 33.4494 54.2803 33.2694 54.4423C33.0954 54.6043 32.9544 54.8203 32.8464 55.0903C32.7384 55.3603 32.6604 55.6603 32.6124 55.9903C32.5644 56.3203 32.5404 56.6533 32.5404 56.9893C32.5404 57.2413 32.5524 57.5083 32.5764 57.7903C32.6004 58.0723 32.6424 58.3513 32.7024 58.6273C32.7684 58.8973 32.8554 59.1433 32.9634 59.3653C33.0714 59.5873 33.2064 59.7643 33.3684 59.8963C33.5304 60.0283 33.7284 60.0943 33.9624 60.0943Z"/>
  <path d="M39.7591 9.144C39.3751 9.144 39.0481 9.081 38.7781 8.955C38.5081 8.823 38.3011 8.661 38.1571 8.469C38.0131 8.277 37.9411 8.094 37.9411 7.92C37.9411 7.782 37.9771 7.668 38.0491 7.578C38.1211 7.482 38.2231 7.431 38.3551 7.425C38.5171 7.413 38.6281 7.458 38.6881 7.56C38.7481 7.656 38.7781 7.746 38.7781 7.83C38.7781 7.89 38.7691 7.95 38.7511 8.01C38.7331 8.07 38.7091 8.127 38.6791 8.181C38.7031 8.325 38.7781 8.445 38.9041 8.541C39.0301 8.631 39.1741 8.697 39.3361 8.739C39.5041 8.781 39.6571 8.799 39.7951 8.793C40.0891 8.781 40.3261 8.703 40.5061 8.559C40.6861 8.409 40.8181 8.22 40.9021 7.992C40.9921 7.764 41.0371 7.524 41.0371 7.272C41.0371 7.104 41.0221 6.918 40.9921 6.714C40.9681 6.51 40.9081 6.318 40.8121 6.138C40.7221 5.952 40.5841 5.799 40.3981 5.679C40.2121 5.559 39.9601 5.499 39.6421 5.499C39.5401 5.499 39.4141 5.511 39.2641 5.535C39.1201 5.559 38.9731 5.595 38.8231 5.643C38.6791 5.691 38.5561 5.748 38.4541 5.814L38.2021 5.58L38.1841 2.7H40.5151C40.8571 2.7 41.0911 2.655 41.2171 2.565C41.3491 2.469 41.4151 2.319 41.4151 2.115H41.6581L41.6041 3.303L38.5981 3.366V5.346C38.7421 5.286 38.9281 5.229 39.1561 5.175C39.3901 5.121 39.6391 5.094 39.9031 5.094C40.2751 5.094 40.5901 5.154 40.8481 5.274C41.1121 5.388 41.3251 5.544 41.4871 5.742C41.6551 5.934 41.7781 6.15 41.8561 6.39C41.9341 6.624 41.9731 6.864 41.9731 7.11C41.9731 7.554 41.8681 7.929 41.6581 8.235C41.4541 8.535 41.1841 8.763 40.8481 8.919C40.5121 9.069 40.1491 9.144 39.7591 9.144ZM45.1764 9.144C44.7204 9.144 44.3424 9.048 44.0424 8.856C43.7424 8.658 43.5084 8.4 43.3404 8.082C43.1724 7.758 43.0524 7.404 42.9804 7.02C42.9144 6.636 42.8814 6.255 42.8814 5.877C42.8814 5.499 42.9234 5.115 43.0074 4.725C43.0974 4.335 43.2354 3.978 43.4214 3.654C43.6074 3.324 43.8474 3.06 44.1414 2.862C44.4354 2.658 44.7924 2.556 45.2124 2.556C45.6504 2.556 46.0134 2.655 46.3014 2.853C46.5954 3.051 46.8264 3.312 46.9944 3.636C47.1684 3.954 47.2914 4.305 47.3634 4.689C47.4354 5.073 47.4714 5.454 47.4714 5.832C47.4714 6.204 47.4294 6.585 47.3454 6.975C47.2614 7.365 47.1294 7.725 46.9494 8.055C46.7694 8.379 46.5324 8.643 46.2384 8.847C45.9504 9.045 45.5964 9.144 45.1764 9.144ZM45.2304 8.793C45.4884 8.793 45.7014 8.712 45.8694 8.55C46.0374 8.388 46.1694 8.172 46.2654 7.902C46.3674 7.632 46.4394 7.335 46.4814 7.011C46.5234 6.681 46.5444 6.351 46.5444 6.021C46.5444 5.655 46.5234 5.289 46.4814 4.923C46.4394 4.557 46.3674 4.221 46.2654 3.915C46.1634 3.609 46.0254 3.363 45.8514 3.177C45.6774 2.991 45.4584 2.898 45.1944 2.898C44.9364 2.898 44.7174 2.979 44.5374 3.141C44.3634 3.303 44.2224 3.519 44.1144 3.789C44.0064 4.059 43.9284 4.359 43.8804 4.689C43.8324 5.019 43.8084 5.352 43.8084 5.688C43.8084 5.94 43.8204 6.207 43.8444 6.489C43.8684 6.771 43.9104 7.05 43.9704 7.326C44.0364 7.596 44.1234 7.842 44.2314 8.064C44.3394 8.286 44.4744 8.463 44.6364 8.595C44.7984 8.727 44.9964 8.793 45.2304 8.793Z"/>
  <path d="M3.93479 14.144C3.40079 14.144 2.97479 14.018 2.65679 13.766C2.34479 13.514 2.11979 13.157 1.98179 12.695C1.84979 12.227 1.78379 11.675 1.78379 11.039C1.78379 10.823 1.80179 10.568 1.83779 10.274C1.87979 9.974 1.95179 9.668 2.05379 9.356C2.15579 9.038 2.29679 8.744 2.47679 8.474C2.66279 8.198 2.89979 7.976 3.18779 7.808C3.47579 7.64 3.82379 7.556 4.23179 7.556C4.59179 7.556 4.88879 7.622 5.12279 7.754C5.35679 7.88 5.53079 8.033 5.64479 8.213C5.76479 8.387 5.82479 8.549 5.82479 8.699C5.82479 8.825 5.79179 8.933 5.72579 9.023C5.66579 9.107 5.56979 9.155 5.43779 9.167C5.28779 9.173 5.18279 9.131 5.12279 9.041C5.06279 8.951 5.03279 8.867 5.03279 8.789C5.03279 8.663 5.06879 8.537 5.14079 8.411C5.11079 8.303 5.01479 8.189 4.85279 8.069C4.69679 7.949 4.49579 7.889 4.24979 7.889C3.97379 7.889 3.73979 7.961 3.54779 8.105C3.36179 8.249 3.20879 8.438 3.08879 8.672C2.97479 8.906 2.88479 9.158 2.81879 9.428C2.75279 9.692 2.70479 9.947 2.67479 10.193C2.65079 10.439 2.63579 10.649 2.62979 10.823C2.77979 10.625 2.98079 10.451 3.23279 10.301C3.49079 10.145 3.79379 10.067 4.14179 10.067C4.50179 10.067 4.80179 10.13 5.04179 10.256C5.28779 10.376 5.48279 10.535 5.62679 10.733C5.77679 10.931 5.88179 11.15 5.94179 11.39C6.00779 11.624 6.04079 11.855 6.04079 12.083C6.04079 12.455 5.94779 12.8 5.76179 13.118C5.58179 13.43 5.33279 13.679 5.01479 13.865C4.69679 14.051 4.33679 14.144 3.93479 14.144ZM3.95279 13.793C4.23479 13.793 4.46279 13.724 4.63679 13.586C4.81079 13.442 4.93679 13.256 5.01479 13.028C5.09279 12.794 5.13179 12.545 5.13179 12.281C5.13179 12.113 5.11679 11.927 5.08679 11.723C5.05679 11.513 4.99979 11.315 4.91579 11.129C4.83779 10.937 4.72079 10.781 4.56479 10.661C4.40879 10.535 4.20479 10.472 3.95279 10.472C3.76679 10.472 3.58379 10.52 3.40379 10.616C3.22379 10.706 3.06479 10.826 2.92679 10.976C2.79479 11.126 2.69879 11.288 2.63879 11.462C2.65679 11.75 2.68979 12.032 2.73779 12.308C2.79179 12.584 2.86679 12.833 2.96279 13.055C3.06479 13.277 3.19679 13.457 3.35879 13.595C3.52079 13.727 3.71879 13.793 3.95279 13.793ZM9.28191 14.144C8.82591 14.144 8.44791 14.048 8.14791 13.856C7.84791 13.658 7.61391 13.4 7.44591 13.082C7.27791 12.758 7.15791 12.404 7.08591 12.02C7.01991 11.636 6.98691 11.255 6.98691 10.877C6.98691 10.499 7.02891 10.115 7.11291 9.725C7.20291 9.335 7.34091 8.978 7.52691 8.654C7.71291 8.324 7.95291 8.06 8.24691 7.862C8.54091 7.658 8.89791 7.556 9.31791 7.556C9.75591 7.556 10.1189 7.655 10.4069 7.853C10.7009 8.051 10.9319 8.312 11.0999 8.636C11.2739 8.954 11.3969 9.305 11.4689 9.689C11.5409 10.073 11.5769 10.454 11.5769 10.832C11.5769 11.204 11.5349 11.585 11.4509 11.975C11.3669 12.365 11.2349 12.725 11.0549 13.055C10.8749 13.379 10.6379 13.643 10.3439 13.847C10.0559 14.045 9.70191 14.144 9.28191 14.144ZM9.33591 13.793C9.59391 13.793 9.80691 13.712 9.97491 13.55C10.1429 13.388 10.2749 13.172 10.3709 12.902C10.4729 12.632 10.5449 12.335 10.5869 12.011C10.6289 11.681 10.6499 11.351 10.6499 11.021C10.6499 10.655 10.6289 10.289 10.5869 9.923C10.5449 9.557 10.4729 9.221 10.3709 8.915C10.2689 8.609 10.1309 8.363 9.95691 8.177C9.78291 7.991 9.56391 7.898 9.29991 7.898C9.04191 7.898 8.82291 7.979 8.64291 8.141C8.46891 8.303 8.32791 8.519 8.21991 8.789C8.11191 9.059 8.03391 9.359 7.98591 9.689C7.93791 10.019 7.91391 10.352 7.91391 10.688C7.91391 10.94 7.92591 11.207 7.94991 11.489C7.97391 11.771 8.01591 12.05 8.07591 12.326C8.14191 12.596 8.22891 12.842 8.33691 13.064C8.44491 13.286 8.57991 13.463 8.74191 13.595C8.90391 13.727 9.10191 13.793 9.33591 13.793ZM13.8818 10.364C13.5998 10.364 13.3538 10.301 13.1438 10.175C12.9398 10.049 12.7808 9.878 12.6668 9.662C12.5528 9.446 12.4958 9.209 12.4958 8.951C12.4958 8.693 12.5588 8.459 12.6848 8.249C12.8168 8.039 12.9908 7.871 13.2068 7.745C13.4228 7.619 13.6568 7.556 13.9088 7.556C14.1908 7.556 14.4338 7.619 14.6378 7.745C14.8478 7.871 15.0098 8.039 15.1238 8.249C15.2378 8.459 15.2948 8.693 15.2948 8.951C15.2948 9.209 15.2288 9.446 15.0968 9.662C14.9708 9.878 14.7998 10.049 14.5838 10.175C14.3738 10.301 14.1398 10.364 13.8818 10.364ZM13.8998 9.896C14.1458 9.896 14.3438 9.803 14.4938 9.617C14.6498 9.425 14.7278 9.203 14.7278 8.951C14.7278 8.705 14.6498 8.486 14.4938 8.294C14.3438 8.096 14.1428 7.997 13.8908 7.997C13.6448 7.997 13.4438 8.096 13.2878 8.294C13.1378 8.486 13.0628 8.705 13.0628 8.951C13.0628 9.203 13.1378 9.425 13.2878 9.617C13.4438 9.803 13.6478 9.896 13.8998 9.896Z"/>
</svg>
