<svg viewBox="0 0 60 71" xmlns="http://www.w3.org/2000/svg">
  <path d="M37.3367328,62.7163209 C35.5937328,54.8763209 33.6337328,4.56432091 33.6337328,4.56432091 L23.8327328,5.00032091 C23.8327328,5.00032091 24.0507328,51.1733209 24.2687328,62.9343209 C24.4867328,74.6953209 39.0787328,70.5573209 37.3367328,62.7163209" fill="#ECE0D2"></path>
  <path d="M29.3257328,37.6753209 C29.9217328,37.8083209 30.2927328,38.2443209 30.9677328,38.2693209 C32.7897328,38.3373209 33.5667328,37.6703209 35.2817328,38.8823209 C34.3397328,22.6933209 33.6337328,4.56432091 33.6337328,4.56432091 L23.8327328,5.00032091 C23.8327328,5.00032091 23.9107328,21.4623209 24.0197328,37.2313209 C24.7457328,37.4623209 25.6347328,37.8043209 26.3517328,37.9683209 C26.8917328,38.0903209 28.5087328,37.4923209 29.3257328,37.6753209" fill="#CCB8A0"></path>
  <path d="M36.7107328,58.2833209 C36.0417328,59.9753209 35.1487328,61.5533209 33.9577328,62.8693209 C32.5707328,64.4013209 30.5347328,65.6773209 28.3917328,65.6083209 C26.7087328,65.5543209 25.4307328,64.6883209 24.2997328,63.6023209 C25.0507328,74.5303209 39.0447328,70.4043209 37.3367328,62.7163209 C37.1297328,61.7863209 36.9197328,60.2563209 36.7107328,58.2833209" fill="#DDD0BC"></path>
  <path d="M34.8647328,16.3063209 L22.7577328,14.7323209 C22.7577328,14.7323209 21.9097328,35.1933209 21.1837328,36.5253209 C20.4567328,37.8573209 23.6047328,35.6783209 25.4217328,36.4043209 C27.2377328,37.1313209 27.4797328,36.8883209 28.4477328,36.4043209 C29.4167328,35.9203209 30.7487328,38.0993209 31.7167328,36.8883209 C32.6857328,35.6783209 35.2287328,38.2203209 36.0757328,36.8883209 C36.9237328,35.5573209 34.5017328,19.2113209 34.8647328,16.3063209" fill="#ECE0D2"></path>
  <path d="M35.2917328,23.5343209 C34.9737328,20.2523209 34.7317328,17.3733209 34.8647328,16.3063209 L22.7577328,14.7323209 C22.7577328,14.7323209 22.6297328,17.8243209 22.4297328,21.6833209 C25.1547328,23.0773209 33.9947328,23.8113209 35.2917328,23.5343209" fill="#CCB8A0"></path>
  <path d="M21.1837328,36.5253209 C20.4567328,37.8573209 23.6047328,35.6783209 25.4217328,36.4043209 C27.2377328,37.1313209 27.4797328,36.8883209 28.4477328,36.4043209 C29.4167328,35.9203209 30.7487328,38.0993209 31.7167328,36.8883209 C32.6857328,35.6783209 35.2287328,38.2203209 36.0757328,36.8883209 C34.3497328,37.0803209 33.1837328,35.6903209 32.1517328,36.3493209 C30.0327328,37.7043209 29.2747328,34.9723209 28.0247328,36.2923209 C27.2237328,37.1373209 25.3587328,35.4943209 24.6887328,35.7013209 C22.3267328,36.4313209 21.6047328,36.9123209 21.1837328,36.5253209" fill="#DDD0BC"></path>
  <path d="M8.18973279,20.2853209 C-3.13626721,20.7693209 -0.91026721,15.0273209 4.89773279,10.3803209 C10.7057328,5.73332091 18.3527328,0.0223209113 30.0667328,0.0223209113 C41.7797328,0.0223209113 49.2627328,5.10532091 54.8487328,10.0893209 C63.8507328,18.1243209 58.1137328,20.3513209 53.3957328,20.3513209 C39.8437328,20.3513209 8.18973279,20.2853209 8.18973279,20.2853209" fill="#CA4035"></path>
  <path d="M0.55473279,15.3253209 C-0.25126721,17.0583209 -0.29826721,18.2183209 1.21873279,19.5763209 C3.82273279,21.9083209 18.1267328,20.3543209 31.6157328,20.3273209 C43.6207328,20.3043209 54.1447328,20.7673209 56.9427328,19.8563209 C59.7367328,18.9473209 62.1567328,16.5273209 55.1027328,10.3183209 C58.9627328,17.6403209 42.1667328,13.8653209 23.3867328,16.3823209 C0.0997327898,19.5033209 0.55473279,15.3253209 0.55473279,15.3253209" fill="#AB3B32"></path>
  <path d="M9.89673279,6.60032091 C15.0047328,3.07532091 21.4367328,-0.307679089 30.0667328,0.0223209113 C47.7817328,0.700320911 46.9107328,8.10532091 36.2377328,9.70232091 C-2.24526721,15.4623209 8.07673279,7.85632091 9.89673279,6.60032091" fill="#E0594F"></path>
  <path d="M29.6167328,1.66432091 C29.9107328,2.83032091 26.8407328,4.61132091 22.7587328,5.64332091 C18.6767328,6.67432091 15.1287328,6.56532091 14.8347328,5.39932091 C14.5397328,4.23232091 17.6097328,2.45132091 21.6917328,1.41932091 C25.7737328,0.388320911 29.3217328,0.497320911 29.6167328,1.66432091" fill="#E5736D"></path>
  <path d="M36.6037328,2.62932091 C36.6497328,3.35132091 34.6377328,4.06732091 32.1097328,4.22732091 C29.5827328,4.38832091 27.4967328,3.93332091 27.4507328,3.21032091 C27.4047328,2.48832091 29.4167328,1.77332091 31.9437328,1.61232091 C34.4717328,1.45232091 36.5577328,1.90732091 36.6037328,2.62932091" fill="#E5736D"></path>
  <path d="M59.1977328,15.0583209 C59.3257328,15.3133209 58.3507328,16.2713209 58.1717328,16.4473209 C57.8437328,16.7723209 57.6647328,17.2883209 57.3387328,17.5643209 C57.0017328,17.8493209 56.5337328,17.5873209 56.1817328,17.7413209 C55.8737328,17.8763209 55.8797328,18.1833209 55.4697328,18.2223209 C55.0897328,18.2583209 54.7617328,18.0023209 54.3897328,17.9923209 C54.1297328,17.9853209 53.8827328,18.1233209 53.6227328,18.1543209 C53.0167328,18.2263209 52.6247328,18.2313209 52.1587328,18.4663209 C51.6097328,18.7443209 51.1797328,18.5403209 50.6307328,18.6693209 C50.0137328,18.8143209 49.7427328,19.5083209 49.0777328,18.9833209 C48.6947328,18.6803209 48.8537328,18.4563209 48.2187328,18.3763209 C47.4867328,18.2843209 46.4007328,18.2613209 45.7027328,18.5073209 C45.5687328,18.5553209 45.4897328,18.7333209 45.3777328,18.7643209 C44.9977328,18.8693209 44.6757328,18.6893209 44.2977328,18.7323209 C43.8207328,18.7863209 43.8127328,19.0763209 43.4607328,19.2783209 C42.9817328,19.5543209 42.7197328,19.3343209 42.3367328,19.0413209 C41.3527328,18.2913209 39.9237328,18.5363209 38.8637328,19.0623209 C38.2587328,19.3633209 38.1647328,19.2273209 37.5017328,19.0983209 C36.8787328,18.9773209 36.9397328,19.1903209 36.5037328,19.4123209 C35.7707328,19.7843209 35.3287328,19.1883209 34.6727328,19.0073209 C33.9667328,18.8133209 33.0037328,19.0103209 32.3277328,19.2353209 C31.7187328,19.4383209 31.2457328,19.5333209 30.5947328,19.5303209 C30.0037328,19.5273209 29.3247328,19.3573209 28.7567328,19.5313209 C28.0787328,19.7393209 27.8547328,19.9113209 27.1057328,19.7353209 C25.2057328,19.2913209 23.3727328,19.9723209 21.4887328,20.1653209 C21.0027328,20.2153209 20.6187328,20.3463209 20.1117328,20.2163209 C19.0397328,19.9423209 17.9977328,19.5093209 16.9087328,19.9853209 C16.1197328,20.3303209 15.4257328,20.0033209 14.6257328,20.2183209 C14.1367328,20.3483209 14.0907328,20.4193209 13.5667328,20.2533209 C12.5117328,19.9183209 11.7137328,20.1163209 10.6347328,20.1643209 C10.1677328,20.1843209 9.93873279,19.9983209 9.49173279,20.1713209 C9.36073279,20.2223209 9.37073279,20.4123209 9.21173279,20.4553209 C8.99073279,20.5153209 8.80673279,20.3693209 8.60473279,20.3313209 C8.02973279,20.2233209 7.51473279,19.9253209 6.92973279,19.8583209 C6.36873279,19.7943209 5.81473279,19.9523209 5.25373279,19.8923209 C5.06273279,19.8723209 4.68773279,19.8563209 4.48773279,19.7853209 C4.20773279,19.6853209 4.06373279,19.4213209 3.76773279,19.3303209 C3.48373279,19.2423209 3.08373279,19.3003209 2.79073279,19.3243209 C2.69873279,19.3323209 2.68573279,19.5413209 2.56173279,19.5303209 C2.45173279,19.5203209 2.39173279,19.3843209 2.29873279,19.3743209 L2.04073279,19.1533209 C1.93973279,19.1133209 1.82173279,19.2733209 1.80173279,19.2643209 C1.44773279,19.0953209 1.22873279,18.7523209 0.91173279,18.5353209 C0.71373279,18.4003209 0.20473279,18.3193209 0.11773279,18.0533209 C0.28373279,18.5603209 0.63573279,19.0543209 1.21873279,19.5763209 C3.82273279,21.9083209 18.1267328,20.3543209 31.6157328,20.3273209 C43.6207328,20.3043209 54.1447328,20.7673209 56.9427328,19.8563209 C58.8727328,19.2283209 60.6237328,17.8793209 59.1977328,15.0583209" fill="#A76D2E"></path>
  <path d="M16.7257328,11.3583209 C17.1707328,11.2173209 17.5837328,10.9403209 17.8867328,10.6023209 C17.7347328,10.2803209 17.2447328,9.25732091 16.7367328,9.53932091 C16.3237328,9.76832091 16.7827328,10.2593209 16.6367328,10.5623209 C16.5427328,10.7563209 15.9947328,10.7913209 15.9697328,11.0133209 C15.9457328,11.2323209 16.5117328,11.4253209 16.7257328,11.3583209" fill="#FEF0E7"></path>
  <path d="M38.5197328,2.54432091 C38.7817328,2.93032091 39.1657328,3.24732091 39.5757328,3.44132091 C39.8407328,3.20432091 40.6817328,2.44132091 40.2657328,2.03632091 C39.9277328,1.70532091 39.5887328,2.28532091 39.2567328,2.23132091 C39.0437328,2.19732091 38.8537328,1.68232091 38.6337328,1.72232091 C38.4167328,1.76132091 38.3937328,2.35832091 38.5197328,2.54432091" fill="#FEF0E7"></path>
  <path d="M31.1857328,4.39232091 L31.1977328,4.47132091 C31.6117328,4.26232091 31.8547328,4.52432091 32.2257328,4.40132091 C32.3107328,4.37232091 33.6507328,4.58332091 32.7427328,3.84432091 C32.1817328,3.38832091 31.1077328,3.65832091 31.1857328,4.39232091" fill="#FEF0E7"></path>
  <path d="M23.1447328,1.73632091 C23.2417328,1.63232091 23.2847328,1.53532091 23.2097328,1.52832091 C23.8237328,1.58932091 24.4247328,1.42332091 24.5107328,0.777320911 C24.0417328,0.740320911 22.2607328,0.878320911 22.3467328,1.64432091 C22.4237328,2.24932091 22.9247328,1.97232091 23.1447328,1.73632091" fill="#FEF0E7"></path>
  <path d="M12.7337328,8.30432091 C12.8707328,8.30232091 13.0017328,8.28332091 13.1357328,8.23132091 C13.0907328,7.59832091 12.4947328,7.38232091 12.5127328,8.17032091 L12.5217328,8.29432091 L12.7337328,8.30432091" fill="#FEF0E7"></path>
  <path d="M6.53573279,10.3613209 C6.71873279,10.3323209 6.91573279,10.2573209 7.00673279,10.3013209 C7.40173279,10.4933209 7.10173279,11.5283209 7.50473279,11.6303209 C7.80573279,11.7053209 7.89673279,11.1533209 8.08273279,11.0073209 C8.28573279,10.8473209 8.67373279,11.1703209 8.62473279,10.7173209 C8.60973279,10.5823209 7.72273279,9.72132091 7.57973279,9.65832091 C7.36073279,9.56232091 6.08373279,9.85332091 6.16373279,10.1883209 C6.20873279,10.3753209 6.36573279,10.3883209 6.53573279,10.3613209" fill="#FEF0E7"></path>
  <path d="M53.4557328,14.4893209 C53.2997328,14.5873209 53.1467328,14.7323209 53.0457328,14.7273209 C52.6067328,14.7053209 52.4807328,13.6343209 52.0697328,13.6973209 C51.7627328,13.7443209 51.8937328,14.2893209 51.7797328,14.4963209 C51.6547328,14.7223209 51.1717328,14.5753209 51.3927328,14.9733209 C51.4587328,15.0923209 52.6117328,15.5403209 52.7677328,15.5423365 C53.0077328,15.5463209 54.0707328,14.7803209 53.8667328,14.5033209 C53.7517328,14.3483209 53.6027328,14.3983209 53.4557328,14.4893209" fill="#FEF0E7"></path>
  <path d="M20.4377328,15.5573209 C20.0387328,15.5893209 19.1697328,15.6393209 19.0847328,15.7043209 C18.4697328,16.1663209 19.7717328,17.4093209 20.2887328,17.3753209 C21.3317328,17.3043209 21.1447328,16.0003209 22.2497328,15.6993209 C22.2147328,15.5553209 22.1207328,15.4663209 21.9957328,15.3873209 C21.4937328,15.0723209 21.0807328,15.4693209 20.6107328,15.5403209 L20.4377328,15.5573209" fill="#FEF0E7"></path>
  <path d="M46.8807328,17.2933209 C46.6967328,17.1973209 46.3007328,16.9813209 46.2457328,16.9853209 C45.8477328,17.0203209 46.0797328,17.9243209 46.3167328,18.0513209 C46.7947328,18.3073209 47.0707328,17.6813209 47.6387328,17.8533209 L47.6127328,17.6463209 C47.4777328,17.3693209 47.1877328,17.4313209 46.9617328,17.3333209 L46.8807328,17.2933209" fill="#FEF0E7"></path>
  <path d="M45.8337328,11.9283209 C45.9867328,11.6903209 46.0407328,11.4173209 45.8467328,11.1803209 C45.4737328,10.7263209 44.8387328,11.0713209 44.6017328,11.4683209 C44.8877328,11.7133209 45.0667328,12.1503209 45.1557328,12.5033209 C45.3687328,12.4173209 45.6627328,12.1943209 45.8337328,11.9283209" fill="#FEF0E7"></path>
  <path d="M28.4927328,18.9523209 C28.6387328,19.0333209 28.8027328,19.0723209 28.9497328,18.9993209 C29.3667328,18.7923209 29.1377328,18.0583209 28.7477328,17.9313209 C27.9527328,17.6753209 26.9077328,18.4533209 27.0117328,19.2993209 C27.4677328,19.0933209 27.6687328,18.7233209 28.0807328,18.5283209 C28.0417328,18.5463209 28.2397328,18.8123209 28.4927328,18.9523209" fill="#FEF0E7"></path>
  <path d="M30.4747328,11.5163209 C30.3437328,11.5113209 30.2117328,11.5243209 30.0767328,11.5763209 C28.6927328,12.1013209 29.9477328,13.6123209 31.2857328,12.8143209 C32.0107328,12.3813209 32.7457328,10.2413209 31.4027328,10.7743209 L31.6357328,11.5163209 C31.2427328,11.7003209 30.8627328,11.5303209 30.4747328,11.5163209" fill="#FEF0E7"></path>
  <path d="M10.1147328,15.2663209 C10.2997328,15.3893209 10.5787328,15.4933209 10.9657328,15.5713209 C13.9137328,16.1623209 10.9877328,13.7543209 11.0627328,13.7213209 C9.97073279,14.2043209 9.47373279,14.8433209 10.1147328,15.2663209" fill="#FEF0E7"></path>
  <path d="M40.4767328,8.39332091 C40.5567328,8.38232091 40.6777328,8.40332091 40.8457328,8.46432091 C42.1287328,8.93132091 40.8647328,9.34432091 40.8977328,9.37932091 C40.4187328,8.86832091 40.1987328,8.43432091 40.4767328,8.39332091" fill="#FEF0E7"></path>
  <path d="M11.0687328,18.6743209 C11.1487328,18.6623209 11.2697328,18.6833209 11.4387328,18.7443209 C12.7207328,19.2113209 11.4567328,19.6243209 11.4897328,19.6593209 C11.0107328,19.1493209 10.7907328,18.7143209 11.0687328,18.6743209" fill="#FEF0E7"></path>
  <path d="M16.6837328,3.19132091 C16.3147328,3.35232091 15.2117328,4.17332091 15.2327328,4.17732091 C15.9447328,4.31732091 17.8067328,4.50832091 16.7507328,3.16732091 L16.6837328,3.19132091" fill="#FEF0E7"></path>
  <path d="M49.1897328,9.22732091 C49.5617328,9.38332091 50.9167328,9.61332091 50.9057328,9.59432091 C50.5147328,8.98432091 49.3657328,7.50532091 49.1267328,9.19532091 L49.1897328,9.22732091" fill="#FEF0E7"></path>
  <path d="M1.33773279,16.1363209 C1.23673279,16.3143209 1.17873279,16.4973209 1.23073279,16.6183209 C1.39273279,16.9973209 1.58273279,16.4633209 1.77073279,16.4133209 C2.12873279,16.3183209 2.50573279,16.6723209 2.86573279,16.6143209 C3.10773279,16.5743209 3.65073279,15.8973209 3.28273279,15.7713209 C2.90273279,15.6383209 2.22373279,15.4063209 1.82073279,15.6063209 C1.68273279,15.6743209 1.47173279,15.9013209 1.33773279,16.1363209" fill="#FEF0E7"></path>
  <path d="M45.8567328,4.84032091 C45.7057328,4.97932091 45.5947328,5.13532091 45.6067328,5.26632091 C45.6447328,5.67632091 45.9897328,5.22732091 46.1847328,5.23732091 C46.5537328,5.25732091 46.8037328,5.70932091 47.1637328,5.76532091 C47.4067328,5.80232091 48.1317328,5.32432091 47.8207328,5.09132091 C47.4987328,4.84732091 46.9247328,4.41832091 46.4797328,4.48432091 C46.3267328,4.50732091 46.0567328,4.65832091 45.8567328,4.84032091" fill="#FEF0E7"></path>
  <path d="M23.3037328,6.32632091 C23.2467328,6.38132091 23.1917328,6.45332091 23.1327328,6.54632091 C23.0127328,6.73432091 22.8167328,7.35732091 23.1517328,7.45032091 C23.3597328,7.50832091 23.6967328,6.92632091 23.9227328,6.85432091 C24.5017328,6.66832091 26.4367328,7.99732091 25.7407328,6.18632091 C25.3827328,6.18732091 25.1547328,6.46532091 24.8447328,6.51532091 C24.4877328,6.57132091 24.4167328,6.43432091 24.0657328,6.30132091 C23.6947328,6.16032091 23.4957328,6.13932091 23.3037328,6.32632091" fill="#FEF0E7"></path>
  <path d="M40.2037328,14.7793209 L40.0587328,14.6963209 C39.4847328,14.4233209 38.6997328,15.4313209 38.7387328,16.0273209 C38.7857328,16.7023209 39.4907328,17.3383209 40.2007328,16.5533209 C39.9237328,16.3773209 39.7187328,15.9463209 39.5007328,15.7623209 C39.6837328,15.9163209 40.8417328,15.2303209 40.2037328,14.7793209" fill="#FEF0E7"></path>
</svg>