<svg viewBox="0 0 186 186" fill="none" xmlns="http://www.w3.org/2000/svg">
  <g stroke="currentcolor">
    <rect x="13.1453" y="48" width="160" height="90"/>
    <path d="M13.1453 131H20.1453V138"/>
    <g stroke-dasharray="2 2">
      <path d="M13.1453 48L173.145 138"/>
      <circle cx="93.1453" cy="93" r="91.7878"/>
    </g>
  </g>
  <g fill="currentcolor">
    <path d="M21.4581 96.099C21.1761 96.099 20.9841 96.024 20.8821 95.874C20.7801 95.724 20.7291 95.511 20.7291 95.235C20.7291 95.007 20.7501 94.731 20.7921 94.407C20.8401 94.077 20.8851 93.735 20.9271 93.381C20.9691 93.021 20.9901 92.685 20.9901 92.373C20.9901 92.301 20.9781 92.223 20.9541 92.139C20.9301 92.055 20.8881 91.983 20.8281 91.923C20.7681 91.857 20.6781 91.824 20.5581 91.824C20.3961 91.824 20.2341 91.899 20.0721 92.049C19.9101 92.193 19.7541 92.391 19.6041 92.643C19.4601 92.895 19.3281 93.183 19.2081 93.507C19.0941 93.825 19.0041 94.158 18.9381 94.506C18.8721 94.848 18.8391 95.187 18.8391 95.523C18.8391 95.613 18.8391 95.697 18.8391 95.775C18.8451 95.847 18.8511 95.922 18.8571 96H18.1191C18.1131 95.958 18.1101 95.922 18.1101 95.892C18.1101 95.856 18.1101 95.814 18.1101 95.766C18.1101 95.604 18.1191 95.355 18.1371 95.019C18.1551 94.683 18.1791 94.302 18.2091 93.876C18.2391 93.444 18.2721 93.003 18.3081 92.553C18.3501 92.103 18.3921 91.677 18.4341 91.275C18.4761 90.867 18.5181 90.525 18.5601 90.249C18.5841 90.093 18.5991 89.994 18.6051 89.952C18.6171 89.91 18.6291 89.85 18.6411 89.772L18.0111 89.808L18.0471 89.448C18.3111 89.448 18.5151 89.436 18.6591 89.412C18.8091 89.388 18.9231 89.358 19.0011 89.322C19.0791 89.286 19.1421 89.247 19.1901 89.205H19.4511C19.4271 89.355 19.4001 89.523 19.3701 89.709C19.3401 89.895 19.3101 90.078 19.2801 90.258C19.2501 90.438 19.2261 90.597 19.2081 90.735C19.1901 90.885 19.1661 91.08 19.1361 91.32C19.1121 91.554 19.0851 91.803 19.0551 92.067C19.0311 92.325 19.0071 92.574 18.9831 92.814C18.9651 93.054 18.9501 93.252 18.9381 93.408H18.9651C19.1691 92.862 19.3701 92.445 19.5681 92.157C19.7661 91.869 19.9611 91.671 20.1531 91.563C20.3511 91.455 20.5461 91.401 20.7381 91.401C21.0981 91.401 21.3531 91.518 21.5031 91.752C21.6531 91.98 21.7281 92.253 21.7281 92.571C21.7281 92.901 21.7071 93.24 21.6651 93.588C21.6231 93.93 21.5811 94.248 21.5391 94.542C21.4971 94.83 21.4761 95.061 21.4761 95.235C21.4761 95.343 21.4881 95.439 21.5121 95.523C21.5421 95.607 21.6111 95.649 21.7191 95.649C21.8211 95.649 21.9321 95.586 22.0521 95.46C22.1781 95.328 22.2861 95.1 22.3761 94.776L22.6011 94.839C22.5831 94.941 22.5471 95.064 22.4931 95.208C22.4391 95.352 22.3641 95.493 22.2681 95.631C22.1781 95.763 22.0641 95.874 21.9261 95.964C21.7941 96.054 21.6381 96.099 21.4581 96.099Z"/>
    <path d="M95.3018 128.401C95.5718 128.401 95.7878 128.488 95.9498 128.662C96.1178 128.83 96.2348 129.055 96.3008 129.337C96.3728 129.613 96.3938 129.916 96.3638 130.246C96.3398 130.57 96.2708 130.885 96.1568 131.191C96.0248 131.545 95.8448 131.869 95.6168 132.163C95.3948 132.451 95.1368 132.679 94.8428 132.847C94.5488 133.015 94.2308 133.099 93.8888 133.099C93.7328 133.099 93.5768 133.063 93.4208 132.991C93.2708 132.913 93.1508 132.775 93.0608 132.577C92.9768 132.379 92.9498 132.1 92.9798 131.74C92.8898 131.992 92.7578 132.223 92.5838 132.433C92.4158 132.637 92.2298 132.799 92.0258 132.919C91.8218 133.039 91.6178 133.099 91.4138 133.099C91.0658 133.099 90.8228 132.985 90.6848 132.757C90.5468 132.523 90.4778 132.247 90.4778 131.929C90.4778 131.611 90.4958 131.281 90.5318 130.939C90.5738 130.591 90.6128 130.27 90.6488 129.976C90.6908 129.676 90.7118 129.442 90.7118 129.274C90.7118 129.16 90.6968 129.061 90.6668 128.977C90.6428 128.893 90.5768 128.851 90.4688 128.851C90.3728 128.851 90.2648 128.917 90.1448 129.049C90.0308 129.181 89.9288 129.406 89.8388 129.724L89.5868 129.67C89.6048 129.562 89.6408 129.439 89.6948 129.301C89.7488 129.157 89.8208 129.016 89.9108 128.878C90.0068 128.74 90.1208 128.626 90.2528 128.536C90.3908 128.446 90.5498 128.401 90.7298 128.401C90.9698 128.401 91.1498 128.476 91.2698 128.626C91.3958 128.776 91.4588 128.992 91.4588 129.274C91.4588 129.472 91.4468 129.703 91.4228 129.967C91.3988 130.231 91.3688 130.501 91.3328 130.777C91.3028 131.053 91.2758 131.308 91.2518 131.542C91.2278 131.776 91.2158 131.956 91.2158 132.082C91.2158 132.214 91.2428 132.337 91.2968 132.451C91.3508 132.565 91.4528 132.622 91.6028 132.622C91.8608 132.622 92.1068 132.499 92.3408 132.253C92.5808 132.007 92.7788 131.653 92.9348 131.191C93.0908 130.723 93.1688 130.162 93.1688 129.508C93.1688 129.352 93.1628 129.19 93.1508 129.022C93.1448 128.854 93.1298 128.68 93.1058 128.5H93.8798C93.8918 128.548 93.9008 128.617 93.9068 128.707C93.9128 128.791 93.9158 128.857 93.9158 128.905C93.9158 129.307 93.8918 129.688 93.8438 130.048C93.7958 130.402 93.7448 130.735 93.6908 131.047C93.6428 131.359 93.6188 131.653 93.6188 131.929C93.6188 132.103 93.6488 132.262 93.7088 132.406C93.7688 132.55 93.9008 132.625 94.1048 132.631C94.3328 132.631 94.5578 132.562 94.7798 132.424C95.0018 132.28 95.2028 132.082 95.3828 131.83C95.5628 131.578 95.7038 131.296 95.8058 130.984C95.8418 130.864 95.8748 130.708 95.9048 130.516C95.9348 130.318 95.9438 130.117 95.9318 129.913C95.9258 129.703 95.8898 129.514 95.8238 129.346C95.7638 129.178 95.6588 129.064 95.5088 129.004C95.4728 129.082 95.4218 129.139 95.3558 129.175C95.2898 129.211 95.2178 129.229 95.1398 129.229C95.0618 129.229 94.9778 129.199 94.8878 129.139C94.8038 129.073 94.7618 128.974 94.7618 128.842C94.7618 128.74 94.8008 128.641 94.8788 128.545C94.9568 128.449 95.0978 128.401 95.3018 128.401Z"/>
    <path d="M96.2062 88.599C95.9302 88.599 95.7022 88.524 95.5222 88.374C95.3422 88.218 95.2072 88.011 95.1172 87.753C95.0332 87.489 94.9912 87.201 94.9912 86.889C94.9912 86.301 95.0872 85.785 95.2792 85.341C95.4772 84.891 95.7712 84.54 96.1612 84.288C96.5512 84.03 97.0342 83.901 97.6102 83.901C97.7002 83.901 97.7872 83.904 97.8712 83.91C97.9552 83.916 98.0362 83.925 98.1142 83.937C98.1382 83.721 98.1622 83.505 98.1862 83.289C98.2162 83.067 98.2432 82.866 98.2672 82.686C98.2972 82.5 98.3242 82.362 98.3482 82.272C98.2402 82.278 98.1292 82.284 98.0152 82.29C97.9072 82.296 97.7992 82.302 97.6912 82.308L97.7272 81.948C97.9912 81.948 98.1952 81.936 98.3392 81.912C98.4892 81.888 98.6032 81.858 98.6812 81.822C98.7592 81.786 98.8222 81.747 98.8702 81.705H99.1312C99.0772 82.029 99.0202 82.425 98.9602 82.893C98.9062 83.355 98.8372 83.943 98.7532 84.657C98.7112 85.041 98.6692 85.425 98.6272 85.809C98.5912 86.187 98.5582 86.538 98.5282 86.862C98.5042 87.186 98.4922 87.456 98.4922 87.672C98.4922 87.786 98.5042 87.894 98.5282 87.996C98.5522 88.098 98.6212 88.149 98.7352 88.149C98.8372 88.149 98.9482 88.083 99.0682 87.951C99.1882 87.819 99.2932 87.594 99.3832 87.276L99.6442 87.33C99.6262 87.438 99.5872 87.564 99.5272 87.708C99.4732 87.846 99.3982 87.984 99.3022 88.122C99.2062 88.26 99.0892 88.374 98.9512 88.464C98.8132 88.554 98.6542 88.599 98.4742 88.599C98.2342 88.599 98.0572 88.524 97.9432 88.374C97.8352 88.224 97.7812 88.029 97.7812 87.789C97.7812 87.465 97.8262 87.078 97.9162 86.628H97.8892C97.7272 87.174 97.5472 87.591 97.3492 87.879C97.1572 88.161 96.9622 88.353 96.7642 88.455C96.5722 88.551 96.3862 88.599 96.2062 88.599ZM96.3952 88.176C96.5872 88.176 96.7762 88.068 96.9622 87.852C97.1542 87.636 97.3282 87.354 97.4842 87.006C97.6402 86.658 97.7602 86.289 97.8442 85.899C97.8922 85.689 97.9312 85.455 97.9612 85.197C97.9972 84.939 98.0332 84.645 98.0692 84.315C97.9732 84.279 97.8712 84.255 97.7632 84.243C97.6612 84.231 97.5592 84.225 97.4572 84.225C97.1392 84.225 96.8722 84.303 96.6562 84.459C96.4402 84.615 96.2662 84.819 96.1342 85.071C96.0022 85.323 95.9062 85.596 95.8462 85.89C95.7922 86.178 95.7652 86.46 95.7652 86.736C95.7652 87.144 95.8102 87.486 95.9002 87.762C95.9962 88.038 96.1612 88.176 96.3952 88.176Z"/>
  </g>
</svg>
